<svg width="186" height="79" viewBox="0 0 186 79" fill="none" xmlns="http://www.w3.org/2000/svg">
<mask id="path-1-outside-1_214_3390" maskUnits="userSpaceOnUse" x="-1.52893" y="-3.79259" width="191.078" height="84.624" fill="black">
<rect fill="white" x="-1.52893" y="-3.79259" width="191.078" height="84.624"/>
<path d="M39.6977 62.854L38.0658 48.5971L24.4547 50.1552L26.0866 64.4121L17.0953 65.4413L13.0012 29.6748L21.9925 28.6456L23.5335 42.1077L37.1446 40.5497L35.6036 27.0876L44.5949 26.0584L48.689 61.8248L39.6977 62.854ZM53.1645 61.3125L49.0704 25.5461L76.6403 22.3902L77.5615 30.4376L58.9828 32.5643L59.6538 38.426L76.8416 36.4586L77.7059 44.0093L60.5181 45.9767L61.2346 52.2358L79.7636 50.1149L80.6848 58.1623L53.1645 61.3125ZM83.8489 57.8001L79.7547 22.0337L88.746 21.0045L91.919 48.7234L108.213 46.8583L109.134 54.9058L83.8489 57.8001ZM111.574 54.6265L107.48 18.86L116.471 17.8308L119.644 45.5498L135.938 43.6847L136.859 51.7321L111.574 54.6265ZM156.257 50.1156C144.335 51.4803 136.928 43.9237 135.762 33.7402C134.596 23.5567 140.104 14.5216 152.027 13.1569C163.899 11.7979 171.307 19.3545 172.472 29.538C173.638 39.7215 168.13 48.7565 156.257 50.1156ZM145.101 32.6711C145.755 38.3838 148.846 42.9621 155.353 42.2171C161.811 41.4779 163.787 36.3197 163.133 30.607C162.479 24.8943 159.389 20.3161 152.931 21.0553C146.423 21.8002 144.447 26.9584 145.101 32.6711Z"/>
</mask>
<path d="M39.6977 62.854L38.0658 48.5971L24.4547 50.1552L26.0866 64.4121L17.0953 65.4413L13.0012 29.6748L21.9925 28.6456L23.5335 42.1077L37.1446 40.5497L35.6036 27.0876L44.5949 26.0584L48.689 61.8248L39.6977 62.854ZM53.1645 61.3125L49.0704 25.5461L76.6403 22.3902L77.5615 30.4376L58.9828 32.5643L59.6538 38.426L76.8416 36.4586L77.7059 44.0093L60.5181 45.9767L61.2346 52.2358L79.7636 50.1149L80.6848 58.1623L53.1645 61.3125ZM83.8489 57.8001L79.7547 22.0337L88.746 21.0045L91.919 48.7234L108.213 46.8583L109.134 54.9058L83.8489 57.8001ZM111.574 54.6265L107.48 18.86L116.471 17.8308L119.644 45.5498L135.938 43.6847L136.859 51.7321L111.574 54.6265ZM156.257 50.1156C144.335 51.4803 136.928 43.9237 135.762 33.7402C134.596 23.5567 140.104 14.5216 152.027 13.1569C163.899 11.7979 171.307 19.3545 172.472 29.538C173.638 39.7215 168.13 48.7565 156.257 50.1156ZM145.101 32.6711C145.755 38.3838 148.846 42.9621 155.353 42.2171C161.811 41.4779 163.787 36.3197 163.133 30.607C162.479 24.8943 159.389 20.3161 152.931 21.0553C146.423 21.8002 144.447 26.9584 145.101 32.6711Z" fill="#C7C2EA"/>
<path d="M39.6977 62.854L26.7821 64.3324C27.5986 71.4656 34.043 76.5862 41.1762 75.7697L39.6977 62.854ZM38.0658 48.5971L50.9814 47.1187C50.1649 39.9856 43.7205 34.8649 36.5873 35.6815L38.0658 48.5971ZM24.4547 50.1552L22.9762 37.2395C15.8431 38.056 10.7225 44.5005 11.539 51.6336L24.4547 50.1552ZM26.0866 64.4121L27.5651 77.3277C34.6982 76.5112 39.8188 70.0667 39.0023 62.9336L26.0866 64.4121ZM17.0953 65.4413L4.17967 66.9197C4.99619 74.0528 11.4406 79.1734 18.5738 78.3569L17.0953 65.4413ZM13.0012 29.6748L11.5228 16.7592C4.38965 17.5757 -0.730968 24.0201 0.0855483 31.1533L13.0012 29.6748ZM21.9925 28.6456L34.9082 27.1672C34.0916 20.0341 27.6472 14.9134 20.5141 15.73L21.9925 28.6456ZM23.5335 42.1077L10.6178 43.5861C11.4343 50.7193 17.8788 55.8399 25.0119 55.0234L23.5335 42.1077ZM37.1446 40.5497L38.623 53.4653C45.7561 52.6488 50.8768 46.2044 50.0603 39.0712L37.1446 40.5497ZM35.6036 27.0876L34.1252 14.1719C26.9921 14.9884 21.8714 21.4329 22.688 28.566L35.6036 27.0876ZM44.5949 26.0584L57.5106 24.5799C56.694 17.4468 50.2496 12.3262 43.1165 13.1427L44.5949 26.0584ZM48.689 61.8248L50.1675 74.7405C57.3006 73.9239 62.4212 67.4795 61.6047 60.3464L48.689 61.8248ZM39.6977 62.854L52.6134 61.3756L50.9814 47.1187L38.0658 48.5971L25.1501 50.0755L26.7821 64.3324L39.6977 62.854ZM38.0658 48.5971L36.5873 35.6815L22.9762 37.2395L24.4547 50.1552L25.9331 63.0708L39.5442 61.5128L38.0658 48.5971ZM24.4547 50.1552L11.539 51.6336L13.171 65.8905L26.0866 64.4121L39.0023 62.9336L37.3703 48.6767L24.4547 50.1552ZM26.0866 64.4121L24.6082 51.4964L15.6169 52.5256L17.0953 65.4413L18.5738 78.3569L27.5651 77.3277L26.0866 64.4121ZM17.0953 65.4413L30.011 63.9628L25.9169 28.1964L13.0012 29.6748L0.0855483 31.1533L4.17967 66.9197L17.0953 65.4413ZM13.0012 29.6748L14.4796 42.5905L23.4709 41.5613L21.9925 28.6456L20.5141 15.73L11.5228 16.7592L13.0012 29.6748ZM21.9925 28.6456L9.07683 30.124L10.6178 43.5861L23.5335 42.1077L36.4491 40.6293L34.9082 27.1672L21.9925 28.6456ZM23.5335 42.1077L25.0119 55.0234L38.623 53.4653L37.1446 40.5497L35.6662 27.634L22.055 29.192L23.5335 42.1077ZM37.1446 40.5497L50.0603 39.0712L48.5193 25.6091L35.6036 27.0876L22.688 28.566L24.2289 42.0281L37.1446 40.5497ZM35.6036 27.0876L37.082 40.0032L46.0733 38.974L44.5949 26.0584L43.1165 13.1427L34.1252 14.1719L35.6036 27.0876ZM44.5949 26.0584L31.6792 27.5368L35.7734 63.3032L48.689 61.8248L61.6047 60.3464L57.5106 24.5799L44.5949 26.0584ZM48.689 61.8248L47.2106 48.9091L38.2193 49.9384L39.6977 62.854L41.1762 75.7697L50.1675 74.7405L48.689 61.8248ZM53.1645 61.3125L40.2488 62.7909C41.0653 69.9241 47.5098 75.0447 54.6429 74.2282L53.1645 61.3125ZM49.0704 25.5461L47.5919 12.6304C40.4588 13.4469 35.3382 19.8914 36.1547 27.0245L49.0704 25.5461ZM76.6403 22.3902L89.556 20.9117C88.7395 13.7786 82.295 8.658 75.1619 9.47451L76.6403 22.3902ZM77.5615 30.4376L79.0399 43.3533C86.1731 42.5368 91.2937 36.0923 90.4772 28.9592L77.5615 30.4376ZM58.9828 32.5643L57.5044 19.6486C50.3713 20.4651 45.2506 26.9096 46.0672 34.0427L58.9828 32.5643ZM59.6538 38.426L46.7381 39.9044C47.5547 47.0376 53.9991 52.1582 61.1322 51.3417L59.6538 38.426ZM76.8416 36.4586L89.7572 34.9801C88.9407 27.847 82.4963 22.7264 75.3631 23.5429L76.8416 36.4586ZM77.7059 44.0093L79.1843 56.9249C86.3174 56.1084 91.4381 49.6639 90.6215 42.5308L77.7059 44.0093ZM60.5181 45.9767L59.0397 33.061C51.9066 33.8776 46.7859 40.322 47.6025 47.4551L60.5181 45.9767ZM61.2346 52.2358L48.3189 53.7143C49.1354 60.8474 55.5799 65.968 62.713 65.1515L61.2346 52.2358ZM79.7636 50.1149L92.6793 48.6364C91.8627 41.5033 85.4183 36.3827 78.2852 37.1992L79.7636 50.1149ZM80.6848 58.1623L82.1632 71.078C89.2963 70.2614 94.4169 63.817 93.6004 56.6839L80.6848 58.1623ZM53.1645 61.3125L66.0801 59.8341L61.986 24.0676L49.0704 25.5461L36.1547 27.0245L40.2488 62.7909L53.1645 61.3125ZM49.0704 25.5461L50.5488 38.4617L78.1188 35.3058L76.6403 22.3902L75.1619 9.47451L47.5919 12.6304L49.0704 25.5461ZM76.6403 22.3902L63.7247 23.8686L64.6458 31.9161L77.5615 30.4376L90.4772 28.9592L89.556 20.9117L76.6403 22.3902ZM77.5615 30.4376L76.0831 17.522L57.5044 19.6486L58.9828 32.5643L60.4613 45.4799L79.0399 43.3533L77.5615 30.4376ZM58.9828 32.5643L46.0672 34.0427L46.7381 39.9044L59.6538 38.426L72.5695 36.9476L71.8985 31.0859L58.9828 32.5643ZM59.6538 38.426L61.1322 51.3417L78.32 49.3742L76.8416 36.4586L75.3631 23.5429L58.1754 25.5104L59.6538 38.426ZM76.8416 36.4586L63.9259 37.937L64.7902 45.4877L77.7059 44.0093L90.6215 42.5308L89.7572 34.9801L76.8416 36.4586ZM77.7059 44.0093L76.2274 31.0936L59.0397 33.061L60.5181 45.9767L61.9965 58.8924L79.1843 56.9249L77.7059 44.0093ZM60.5181 45.9767L47.6025 47.4551L48.3189 53.7143L61.2346 52.2358L74.1502 50.7574L73.4338 44.4983L60.5181 45.9767ZM61.2346 52.2358L62.713 65.1515L81.242 63.0305L79.7636 50.1149L78.2852 37.1992L59.7562 39.3202L61.2346 52.2358ZM79.7636 50.1149L66.8479 51.5933L67.7691 59.6407L80.6848 58.1623L93.6004 56.6839L92.6793 48.6364L79.7636 50.1149ZM80.6848 58.1623L79.2063 45.2466L51.686 48.3968L53.1645 61.3125L54.6429 74.2282L82.1632 71.078L80.6848 58.1623ZM83.8489 57.8001L70.9332 59.2785C71.7497 66.4117 78.1942 71.5323 85.3273 70.7158L83.8489 57.8001ZM79.7547 22.0337L78.2763 9.11801C71.1432 9.93453 66.0226 16.379 66.8391 23.5121L79.7547 22.0337ZM88.746 21.0045L101.662 19.526C100.845 12.3929 94.4007 7.27228 87.2676 8.08879L88.746 21.0045ZM91.919 48.7234L79.0033 50.2019C79.8198 57.335 86.2643 62.4556 93.3974 61.6391L91.919 48.7234ZM108.213 46.8583L121.128 45.3799C120.312 38.2468 113.867 33.1262 106.734 33.9427L108.213 46.8583ZM109.134 54.9058L110.612 67.8215C117.745 67.0049 122.866 60.5605 122.049 53.4274L109.134 54.9058ZM83.8489 57.8001L96.7645 56.3217L92.6704 20.5552L79.7547 22.0337L66.8391 23.5121L70.9332 59.2785L83.8489 57.8001ZM79.7547 22.0337L81.2332 34.9493L90.2245 33.9201L88.746 21.0045L87.2676 8.08879L78.2763 9.11801L79.7547 22.0337ZM88.746 21.0045L75.8304 22.4829L79.0033 50.2019L91.919 48.7234L104.835 47.245L101.662 19.526L88.746 21.0045ZM91.919 48.7234L93.3974 61.6391L109.691 59.774L108.213 46.8583L106.734 33.9427L90.4406 35.8078L91.919 48.7234ZM108.213 46.8583L95.2969 48.3368L96.2181 56.3842L109.134 54.9058L122.049 53.4274L121.128 45.3799L108.213 46.8583ZM109.134 54.9058L107.655 41.9901L82.3704 44.8845L83.8489 57.8001L85.3273 70.7158L110.612 67.8215L109.134 54.9058ZM111.574 54.6265L98.6584 56.1049C99.4749 63.238 105.919 68.3586 113.053 67.5421L111.574 54.6265ZM107.48 18.86L106.002 5.94435C98.8684 6.76087 93.7478 13.2053 94.5643 20.3384L107.48 18.86ZM116.471 17.8308L129.387 16.3524C128.57 9.21924 122.126 4.09862 114.993 4.91514L116.471 17.8308ZM119.644 45.5498L106.729 47.0282C107.545 54.1613 113.989 59.282 121.123 58.4654L119.644 45.5498ZM135.938 43.6847L148.853 42.2063C148.037 35.0731 141.592 29.9525 134.459 30.769L135.938 43.6847ZM136.859 51.7321L138.337 64.6478C145.471 63.8313 150.591 57.3868 149.775 50.2537L136.859 51.7321ZM111.574 54.6265L124.49 53.148L120.396 17.3816L107.48 18.86L94.5643 20.3384L98.6584 56.1049L111.574 54.6265ZM107.48 18.86L108.958 31.7757L117.95 30.7465L116.471 17.8308L114.993 4.91514L106.002 5.94435L107.48 18.86ZM116.471 17.8308L103.556 19.3092L106.729 47.0282L119.644 45.5498L132.56 44.0714L129.387 16.3524L116.471 17.8308ZM119.644 45.5498L121.123 58.4654L137.416 56.6003L135.938 43.6847L134.459 30.769L118.166 32.6341L119.644 45.5498ZM135.938 43.6847L123.022 45.1631L123.943 53.2106L136.859 51.7321L149.775 50.2537L148.853 42.2063L135.938 43.6847ZM136.859 51.7321L135.381 38.8165L110.096 41.7108L111.574 54.6265L113.053 67.5421L138.337 64.6478L136.859 51.7321ZM156.257 50.1156L154.779 37.1999C151.99 37.5192 150.875 36.7646 150.439 36.3908C149.847 35.8829 148.953 34.6701 148.678 32.2617L135.762 33.7402L122.846 35.2186C123.736 42.9938 127.129 50.651 133.512 56.1261C140.052 61.7353 148.603 64.0767 157.736 63.0312L156.257 50.1156ZM135.762 33.7402L148.678 32.2617C148.402 29.8534 148.999 28.47 149.461 27.8414C149.801 27.3787 150.716 26.3918 153.505 26.0726L152.027 13.1569L150.548 0.241253C141.415 1.2867 133.615 5.4997 128.512 12.4416C123.531 19.2176 121.956 27.4434 122.846 35.2186L135.762 33.7402ZM152.027 13.1569L153.505 26.0726C156.253 25.758 157.355 26.5029 157.791 26.8782C158.386 27.3891 159.281 28.6075 159.557 31.0164L172.472 29.538L185.388 28.0596C184.498 20.285 181.107 12.6334 174.738 7.15982C168.211 1.55067 159.672 -0.803164 150.548 0.241253L152.027 13.1569ZM172.472 29.538L159.557 31.0164C159.832 33.4254 159.236 34.8146 158.772 35.4466C158.431 35.9108 157.527 36.8853 154.779 37.1999L156.257 50.1156L157.736 63.0312C166.86 61.9868 174.646 57.7643 179.736 50.8254C184.703 44.0542 186.278 35.8341 185.388 28.0596L172.472 29.538ZM145.101 32.6711L132.185 34.1496C132.7 38.6443 134.315 44.2765 138.582 48.793C143.345 53.8347 149.938 55.9219 156.832 55.1328L155.353 42.2171L153.875 29.3015C153.866 29.3024 154.003 29.2861 154.26 29.3096C154.52 29.3335 154.875 29.3963 155.288 29.537C156.178 29.84 156.94 30.3649 157.482 30.9385C157.979 31.4651 158.142 31.8692 158.151 31.8919C158.158 31.911 158.074 31.6952 158.017 31.1927L145.101 32.6711ZM155.353 42.2171L156.832 55.1328C163.736 54.3425 169.668 50.7934 173.147 44.8149C176.261 39.4621 176.563 33.624 176.049 29.1286L163.133 30.607L150.218 32.0855C150.275 32.5877 150.242 32.8198 150.245 32.8042C150.247 32.7854 150.312 32.3609 150.674 31.7394C151.067 31.0625 151.69 30.3738 152.497 29.8697C153.277 29.382 153.848 29.3046 153.875 29.3015L155.353 42.2171ZM163.133 30.607L176.049 29.1286C175.534 24.6332 173.92 19.0144 169.677 14.5039C164.937 9.46609 158.356 7.34937 151.452 8.13968L152.931 21.0553L154.409 33.971C154.382 33.9741 153.809 34.0276 152.938 33.7289C152.038 33.4202 151.277 32.8899 150.74 32.3195C150.247 31.7958 150.088 31.3969 150.081 31.3792C150.076 31.3645 150.16 31.5832 150.218 32.0855L163.133 30.607ZM152.931 21.0553L151.452 8.13968C144.559 8.92874 138.608 12.452 135.107 18.4394C131.972 23.8034 131.671 29.6549 132.185 34.1496L145.101 32.6711L158.017 31.1927C157.959 30.6902 157.992 30.461 157.989 30.4813C157.986 30.5054 157.919 30.9358 157.553 31.5612C157.155 32.2424 156.531 32.926 155.733 33.4223C155.362 33.6527 155.031 33.7939 154.782 33.8761C154.538 33.9569 154.401 33.9719 154.409 33.971L152.931 21.0553Z" fill="#291F5B" mask="url(#path-1-outside-1_214_3390)"/>
</svg>
