<svg width="229" height="148" viewBox="0 0 229 148" fill="none" xmlns="http://www.w3.org/2000/svg">
<mask id="path-1-outside-1_214_3388" maskUnits="userSpaceOnUse" x="-0.904053" y="61.0977" width="230" height="78" fill="black">
<rect fill="white" x="-0.904053" y="61.0977" width="230" height="78"/>
<path d="M30.78 125.938C19.16 125.938 13 119.148 13 108.578V105.778H25.11V108.578C25.11 112.778 26.58 115.158 30.78 115.158C34.98 115.158 36.45 112.778 36.45 108.578V74.6977H49.12V108.578C49.12 119.148 42.4 125.938 30.78 125.938ZM89.8572 125.098L86.9872 116.628H66.7572L63.8872 125.098H51.0072L69.2772 74.6977H84.3972L103.227 125.098H89.8572ZM70.2572 106.058H83.4872L76.8372 86.3877L70.2572 106.058ZM144.667 125.098L137.527 91.3577L130.387 125.098H116.107L102.107 74.6977H115.477L123.877 110.328L131.157 74.6977H143.827L151.107 110.328L159.507 74.6977H172.947L158.877 125.098H144.667ZM173.621 125.098V115.018L198.891 85.8277L185.941 86.0377H174.461V74.6977H215.621V84.2877L189.861 113.968L203.231 113.758H215.901V125.098H173.621Z"/>
</mask>
<path d="M30.78 125.938C19.16 125.938 13 119.148 13 108.578V105.778H25.11V108.578C25.11 112.778 26.58 115.158 30.78 115.158C34.98 115.158 36.45 112.778 36.45 108.578V74.6977H49.12V108.578C49.12 119.148 42.4 125.938 30.78 125.938ZM89.8572 125.098L86.9872 116.628H66.7572L63.8872 125.098H51.0072L69.2772 74.6977H84.3972L103.227 125.098H89.8572ZM70.2572 106.058H83.4872L76.8372 86.3877L70.2572 106.058ZM144.667 125.098L137.527 91.3577L130.387 125.098H116.107L102.107 74.6977H115.477L123.877 110.328L131.157 74.6977H143.827L151.107 110.328L159.507 74.6977H172.947L158.877 125.098H144.667ZM173.621 125.098V115.018L198.891 85.8277L185.941 86.0377H174.461V74.6977H215.621V84.2877L189.861 113.968L203.231 113.758H215.901V125.098H173.621Z" fill="#EDEDF7"/>
<path d="M13 105.778V92.7777C5.82027 92.7777 -3.05176e-05 98.598 -3.05176e-05 105.778H13ZM25.11 105.778H38.11C38.11 98.598 32.2897 92.7777 25.11 92.7777V105.778ZM36.45 74.6977V61.6977C29.2703 61.6977 23.45 67.518 23.45 74.6977H36.45ZM49.12 74.6977H62.12C62.12 67.518 56.2997 61.6977 49.12 61.6977V74.6977ZM30.78 125.938V112.938C29.1268 112.938 28.0967 112.695 27.5302 112.49C26.9992 112.297 26.815 112.12 26.7649 112.069C26.7118 112.016 26.5541 111.845 26.3851 111.373C26.2045 110.867 26 109.973 26 108.578H13H-3.05176e-05C-3.05176e-05 116.357 2.30792 124.329 8.30003 130.374C14.321 136.447 22.4367 138.938 30.78 138.938V125.938ZM13 108.578H26V105.778H13H-3.05176e-05V108.578H13ZM13 105.778V118.778H25.11V105.778V92.7777H13V105.778ZM25.11 105.778H12.11V108.578H25.11H38.11V105.778H25.11ZM25.11 108.578H12.11C12.11 111.725 12.5681 116.983 16.2032 121.544C20.3562 126.756 26.2005 128.158 30.78 128.158V115.158V102.158C30.9111 102.158 31.7409 102.171 32.9127 102.635C34.1998 103.145 35.5079 104.05 36.5367 105.341C38.3868 107.663 38.11 109.63 38.11 108.578H25.11ZM30.78 115.158V128.158C35.3594 128.158 41.2038 126.756 45.3567 121.544C48.9918 116.983 49.45 111.725 49.45 108.578H36.45H23.45C23.45 109.63 23.1731 107.663 25.0232 105.341C26.0521 104.05 27.3601 103.145 28.6473 102.635C29.8191 102.171 30.6488 102.158 30.78 102.158V115.158ZM36.45 108.578H49.45V74.6977H36.45H23.45V108.578H36.45ZM36.45 74.6977V87.6977H49.12V74.6977V61.6977H36.45V74.6977ZM49.12 74.6977H36.12V108.578H49.12H62.12V74.6977H49.12ZM49.12 108.578H36.12C36.12 111.055 35.399 111.752 35.2866 111.861C35.126 112.015 34.0743 112.938 30.78 112.938V125.938V138.938C39.1057 138.938 47.2239 136.465 53.3283 130.582C59.481 124.653 62.12 116.671 62.12 108.578H49.12ZM89.8572 125.098L77.5449 129.27C79.333 134.547 84.2853 138.098 89.8572 138.098V125.098ZM86.9872 116.628L99.2996 112.456C97.5115 107.179 92.5592 103.628 86.9872 103.628V116.628ZM66.7572 116.628V103.628C61.1853 103.628 56.233 107.179 54.4449 112.456L66.7572 116.628ZM63.8872 125.098V138.098C69.4592 138.098 74.4115 134.547 76.1996 129.27L63.8872 125.098ZM51.0072 125.098L38.7855 120.667C37.341 124.652 37.9298 129.091 40.3631 132.561C42.7964 136.032 46.7688 138.098 51.0072 138.098V125.098ZM69.2772 74.6977V61.6977C63.8059 61.6977 58.9201 65.1235 57.0555 70.2674L69.2772 74.6977ZM84.3972 74.6977L96.5751 70.148C94.6765 65.0663 89.822 61.6977 84.3972 61.6977V74.6977ZM103.227 125.098V138.098C107.488 138.098 111.479 136.01 113.908 132.509C116.337 129.008 116.896 124.539 115.405 120.548L103.227 125.098ZM70.2572 106.058L57.9287 101.934C56.6023 105.899 57.264 110.26 59.707 113.653C62.15 117.047 66.076 119.058 70.2572 119.058V106.058ZM83.4872 106.058V119.058C87.6758 119.058 91.6077 117.04 94.0496 113.636C96.4914 110.233 97.1439 105.862 95.8025 101.894L83.4872 106.058ZM76.8372 86.3877L89.1525 82.2242C87.3645 76.9355 82.3993 73.3788 76.8165 73.3878C71.2336 73.3967 66.2798 76.9692 64.5087 82.2636L76.8372 86.3877ZM89.8572 125.098L102.17 120.926L99.2996 112.456L86.9872 116.628L74.6749 120.8L77.5449 129.27L89.8572 125.098ZM86.9872 116.628V103.628H66.7572V116.628V129.628H86.9872V116.628ZM66.7572 116.628L54.4449 112.456L51.5749 120.926L63.8872 125.098L76.1996 129.27L79.0696 120.8L66.7572 116.628ZM63.8872 125.098V112.098H51.0072V125.098V138.098H63.8872V125.098ZM51.0072 125.098L63.229 129.528L81.499 79.1281L69.2772 74.6977L57.0555 70.2674L38.7855 120.667L51.0072 125.098ZM69.2772 74.6977V87.6977H84.3972V74.6977V61.6977H69.2772V74.6977ZM84.3972 74.6977L72.2194 79.2475L91.0494 129.648L103.227 125.098L115.405 120.548L96.5751 70.148L84.3972 74.6977ZM103.227 125.098V112.098H89.8572V125.098V138.098H103.227V125.098ZM70.2572 106.058V119.058H83.4872V106.058V93.0577H70.2572V106.058ZM83.4872 106.058L95.8025 101.894L89.1525 82.2242L76.8372 86.3877L64.522 90.5513L71.172 110.221L83.4872 106.058ZM76.8372 86.3877L64.5087 82.2636L57.9287 101.934L70.2572 106.058L82.5857 110.182L89.1657 90.5119L76.8372 86.3877ZM144.667 125.098L131.949 127.789C133.221 133.799 138.525 138.098 144.667 138.098V125.098ZM137.527 91.3577L150.246 88.6663C148.974 82.657 143.67 78.3577 137.527 78.3577C131.385 78.3577 126.081 82.657 124.809 88.6663L137.527 91.3577ZM130.387 125.098V138.098C136.53 138.098 141.834 133.799 143.106 127.789L130.387 125.098ZM116.107 125.098L103.581 128.577C105.144 134.204 110.268 138.098 116.107 138.098V125.098ZM102.107 74.6977V61.6977C98.0448 61.6977 94.2159 63.5969 91.7576 66.8311C89.2992 70.0654 88.4942 74.2629 89.5815 78.1771L102.107 74.6977ZM115.477 74.6977L128.13 71.7147C126.747 65.8451 121.508 61.6977 115.477 61.6977V74.6977ZM123.877 110.328L111.224 113.311C112.625 119.251 117.969 123.418 124.072 123.326C130.175 123.235 135.392 118.91 136.614 112.93L123.877 110.328ZM131.157 74.6977V61.6977C124.981 61.6977 119.657 66.0438 118.42 72.0953L131.157 74.6977ZM143.827 74.6977L156.564 72.0953C155.328 66.0438 150.004 61.6977 143.827 61.6977V74.6977ZM151.107 110.328L138.37 112.93C139.592 118.91 144.81 123.235 150.912 123.326C157.015 123.418 162.36 119.251 163.76 113.311L151.107 110.328ZM159.507 74.6977V61.6977C153.477 61.6977 148.238 65.8451 146.854 71.7147L159.507 74.6977ZM172.947 74.6977L185.468 78.1933C186.562 74.2776 185.76 70.076 183.302 66.8378C180.844 63.5996 177.013 61.6977 172.947 61.6977V74.6977ZM158.877 125.098V138.098C164.711 138.098 169.83 134.212 171.398 128.593L158.877 125.098ZM144.667 125.098L157.386 122.406L150.246 88.6663L137.527 91.3577L124.809 94.0492L131.949 127.789L144.667 125.098ZM137.527 91.3577L124.809 88.6663L117.669 122.406L130.387 125.098L143.106 127.789L150.246 94.0492L137.527 91.3577ZM130.387 125.098V112.098H116.107V125.098V138.098H130.387V125.098ZM116.107 125.098L128.633 121.618L114.633 71.2184L102.107 74.6977L89.5815 78.1771L103.581 128.577L116.107 125.098ZM102.107 74.6977V87.6977H115.477V74.6977V61.6977H102.107V74.6977ZM115.477 74.6977L102.824 77.6808L111.224 113.311L123.877 110.328L136.53 107.345L128.13 71.7147L115.477 74.6977ZM123.877 110.328L136.614 112.93L143.894 77.3002L131.157 74.6977L118.42 72.0953L111.14 107.725L123.877 110.328ZM131.157 74.6977V87.6977H143.827V74.6977V61.6977H131.157V74.6977ZM143.827 74.6977L131.09 77.3002L138.37 112.93L151.107 110.328L163.844 107.725L156.564 72.0953L143.827 74.6977ZM151.107 110.328L163.76 113.311L172.16 77.6808L159.507 74.6977L146.854 71.7147L138.454 107.345L151.107 110.328ZM159.507 74.6977V87.6977H172.947V74.6977V61.6977H159.507V74.6977ZM172.947 74.6977L160.426 71.2022L146.356 121.602L158.877 125.098L171.398 128.593L185.468 78.1933L172.947 74.6977ZM158.877 125.098V112.098H144.667V125.098V138.098H158.877V125.098ZM173.621 125.098H160.621C160.621 132.277 166.441 138.098 173.621 138.098V125.098ZM173.621 115.018L163.792 106.509C161.747 108.872 160.621 111.893 160.621 115.018H173.621ZM198.891 85.8277L208.72 94.3365C212.075 90.4605 212.839 84.9744 210.671 80.329C208.502 75.6835 203.806 72.7463 198.68 72.8295L198.891 85.8277ZM185.941 86.0377V99.0377C186.011 99.0377 186.082 99.0372 186.152 99.036L185.941 86.0377ZM174.461 86.0377H161.461C161.461 93.2174 167.281 99.0377 174.461 99.0377V86.0377ZM174.461 74.6977V61.6977C167.281 61.6977 161.461 67.518 161.461 74.6977H174.461ZM215.621 74.6977H228.621C228.621 67.518 222.801 61.6977 215.621 61.6977V74.6977ZM215.621 84.2877L225.439 92.8089C227.491 90.4444 228.621 87.4187 228.621 84.2877H215.621ZM189.861 113.968L180.043 105.447C176.682 109.32 175.911 114.807 178.076 119.456C180.241 124.105 184.937 127.047 190.065 126.966L189.861 113.968ZM203.231 113.758V100.758C203.163 100.758 203.095 100.758 203.027 100.759L203.231 113.758ZM215.901 113.758H228.901C228.901 106.578 223.081 100.758 215.901 100.758V113.758ZM215.901 125.098V138.098C223.081 138.098 228.901 132.277 228.901 125.098H215.901ZM173.621 125.098H186.621V115.018H173.621H160.621V125.098H173.621ZM173.621 115.018L183.45 123.526L208.72 94.3365L198.891 85.8277L189.062 77.319L163.792 106.509L173.621 115.018ZM198.891 85.8277L198.68 72.8295L185.73 73.0395L185.941 86.0377L186.152 99.036L199.102 98.826L198.891 85.8277ZM185.941 86.0377V73.0377H174.461V86.0377V99.0377H185.941V86.0377ZM174.461 86.0377H187.461V74.6977H174.461H161.461V86.0377H174.461ZM174.461 74.6977V87.6977H215.621V74.6977V61.6977H174.461V74.6977ZM215.621 74.6977H202.621V84.2877H215.621H228.621V74.6977H215.621ZM215.621 84.2877L205.803 75.7666L180.043 105.447L189.861 113.968L199.679 122.489L225.439 92.8089L215.621 84.2877ZM189.861 113.968L190.065 126.966L203.435 126.756L203.231 113.758L203.027 100.759L189.657 100.969L189.861 113.968ZM203.231 113.758V126.758H215.901V113.758V100.758H203.231V113.758ZM215.901 113.758H202.901V125.098H215.901H228.901V113.758H215.901ZM215.901 125.098V112.098H173.621V125.098V138.098H215.901V125.098Z" fill="#291F5B" mask="url(#path-1-outside-1_214_3388)"/>
<mask id="path-3-outside-2_214_3388" maskUnits="userSpaceOnUse" x="20.6741" y="2.60935" width="191.078" height="84.624" fill="black">
<rect fill="white" x="20.6741" y="2.60935" width="191.078" height="84.624"/>
<path d="M61.9007 69.256L60.2688 54.9991L46.6577 56.5571L48.2896 70.814L39.2983 71.8432L35.2042 36.0768L44.1955 35.0476L45.7365 48.5097L59.3476 46.9516L57.8066 33.4895L66.7979 32.4603L70.892 68.2267L61.9007 69.256ZM75.3675 67.7144L71.2734 31.948L98.8433 28.7921L99.7645 36.8396L81.1858 38.9662L81.8568 44.828L99.0446 42.8605L99.9089 50.4112L82.7211 52.3787L83.4376 58.6378L101.967 56.5168L102.888 64.5642L75.3675 67.7144ZM106.052 64.2021L101.958 28.4356L110.949 27.4064L114.122 55.1254L130.416 53.2603L131.337 61.3077L106.052 64.2021ZM133.777 61.0284L129.683 25.262L138.674 24.2327L141.847 51.9517L158.141 50.0866L159.062 58.1341L133.777 61.0284ZM178.46 56.5175C166.538 57.8822 159.131 50.3256 157.965 40.1421C156.799 29.9586 162.307 20.9236 174.23 19.5589C186.102 18.1998 193.51 25.7565 194.675 35.94C195.841 46.1235 190.333 55.1585 178.46 56.5175ZM167.304 39.0731C167.958 44.7858 171.049 49.364 177.556 48.6191C184.014 47.8799 185.99 42.7217 185.336 37.009C184.682 31.2963 181.592 26.7181 175.134 27.4573C168.626 28.2022 166.65 33.3604 167.304 39.0731Z"/>
</mask>
<path d="M61.9007 69.256L60.2688 54.9991L46.6577 56.5571L48.2896 70.814L39.2983 71.8432L35.2042 36.0768L44.1955 35.0476L45.7365 48.5097L59.3476 46.9516L57.8066 33.4895L66.7979 32.4603L70.892 68.2267L61.9007 69.256ZM75.3675 67.7144L71.2734 31.948L98.8433 28.7921L99.7645 36.8396L81.1858 38.9662L81.8568 44.828L99.0446 42.8605L99.9089 50.4112L82.7211 52.3787L83.4376 58.6378L101.967 56.5168L102.888 64.5642L75.3675 67.7144ZM106.052 64.2021L101.958 28.4356L110.949 27.4064L114.122 55.1254L130.416 53.2603L131.337 61.3077L106.052 64.2021ZM133.777 61.0284L129.683 25.262L138.674 24.2327L141.847 51.9517L158.141 50.0866L159.062 58.1341L133.777 61.0284ZM178.46 56.5175C166.538 57.8822 159.131 50.3256 157.965 40.1421C156.799 29.9586 162.307 20.9236 174.23 19.5589C186.102 18.1998 193.51 25.7565 194.675 35.94C195.841 46.1235 190.333 55.1585 178.46 56.5175ZM167.304 39.0731C167.958 44.7858 171.049 49.364 177.556 48.6191C184.014 47.8799 185.99 42.7217 185.336 37.009C184.682 31.2963 181.592 26.7181 175.134 27.4573C168.626 28.2022 166.65 33.3604 167.304 39.0731Z" fill="#C7C2EA"/>
<path d="M61.9007 69.256L48.9851 70.7344C49.8016 77.8675 56.2461 82.9881 63.3792 82.1716L61.9007 69.256ZM60.2688 54.9991L73.1844 53.5206C72.3679 46.3875 65.9235 41.2669 58.7903 42.0834L60.2688 54.9991ZM46.6577 56.5571L45.1792 43.6414C38.0461 44.458 32.9255 50.9024 33.742 58.0355L46.6577 56.5571ZM48.2896 70.814L49.7681 83.7297C56.9012 82.9131 62.0218 76.4687 61.2053 69.3356L48.2896 70.814ZM39.2983 71.8432L26.3827 73.3217C27.1992 80.4548 33.6436 85.5754 40.7768 84.7589L39.2983 71.8432ZM35.2042 36.0768L33.7258 23.1611C26.5927 23.9776 21.472 30.4221 22.2886 37.5552L35.2042 36.0768ZM44.1955 35.0476L57.1112 33.5691C56.2946 26.436 49.8502 21.3154 42.7171 22.1319L44.1955 35.0476ZM45.7365 48.5097L32.8208 49.9881C33.6373 57.1212 40.0818 62.2418 47.2149 61.4253L45.7365 48.5097ZM59.3476 46.9516L60.826 59.8673C67.9592 59.0508 73.0798 52.6063 72.2633 45.4732L59.3476 46.9516ZM57.8066 33.4895L56.3282 20.5739C49.1951 21.3904 44.0744 27.8348 44.891 34.968L57.8066 33.4895ZM66.7979 32.4603L79.7136 30.9819C78.897 23.8487 72.4526 18.7281 65.3195 19.5446L66.7979 32.4603ZM70.892 68.2267L72.3705 81.1424C79.5036 80.3259 84.6242 73.8814 83.8077 66.7483L70.892 68.2267ZM61.9007 69.256L74.8164 67.7775L73.1844 53.5206L60.2688 54.9991L47.3531 56.4775L48.9851 70.7344L61.9007 69.256ZM60.2688 54.9991L58.7903 42.0834L45.1792 43.6414L46.6577 56.5571L48.1361 69.4728L61.7472 67.9147L60.2688 54.9991ZM46.6577 56.5571L33.742 58.0355L35.374 72.2924L48.2896 70.814L61.2053 69.3356L59.5733 55.0787L46.6577 56.5571ZM48.2896 70.814L46.8112 57.8983L37.8199 58.9276L39.2983 71.8432L40.7768 84.7589L49.7681 83.7297L48.2896 70.814ZM39.2983 71.8432L52.214 70.3648L48.1199 34.5983L35.2042 36.0768L22.2886 37.5552L26.3827 73.3217L39.2983 71.8432ZM35.2042 36.0768L36.6826 48.9924L45.6739 47.9632L44.1955 35.0476L42.7171 22.1319L33.7258 23.1611L35.2042 36.0768ZM44.1955 35.0476L31.2798 36.526L32.8208 49.9881L45.7365 48.5097L58.6521 47.0312L57.1112 33.5691L44.1955 35.0476ZM45.7365 48.5097L47.2149 61.4253L60.826 59.8673L59.3476 46.9516L57.8692 34.036L44.258 35.594L45.7365 48.5097ZM59.3476 46.9516L72.2633 45.4732L70.7223 32.0111L57.8066 33.4895L44.891 34.968L46.4319 48.43L59.3476 46.9516ZM57.8066 33.4895L59.285 46.4052L68.2763 45.376L66.7979 32.4603L65.3195 19.5446L56.3282 20.5739L57.8066 33.4895ZM66.7979 32.4603L53.8822 33.9387L57.9764 69.7052L70.892 68.2267L83.8077 66.7483L79.7136 30.9819L66.7979 32.4603ZM70.892 68.2267L69.4136 55.3111L60.4223 56.3403L61.9007 69.256L63.3792 82.1716L72.3705 81.1424L70.892 68.2267ZM75.3675 67.7144L62.4518 69.1929C63.2683 76.326 69.7128 81.4466 76.8459 80.6301L75.3675 67.7144ZM71.2734 31.948L69.7949 19.0323C62.6618 19.8489 57.5412 26.2933 58.3577 33.4264L71.2734 31.948ZM98.8433 28.7921L111.759 27.3137C110.942 20.1806 104.498 15.0599 97.3649 15.8765L98.8433 28.7921ZM99.7645 36.8396L101.243 49.7552C108.376 48.9387 113.497 42.4943 112.68 35.3611L99.7645 36.8396ZM81.1858 38.9662L79.7074 26.0506C72.5743 26.8671 67.4536 33.3116 68.2702 40.4447L81.1858 38.9662ZM81.8568 44.828L68.9411 46.3064C69.7577 53.4395 76.2021 58.5601 83.3352 57.7436L81.8568 44.828ZM99.0446 42.8605L111.96 41.3821C111.144 34.249 104.699 29.1283 97.5661 29.9448L99.0446 42.8605ZM99.9089 50.4112L101.387 63.3269C108.52 62.5103 113.641 56.0659 112.825 48.9328L99.9089 50.4112ZM82.7211 52.3787L81.2427 39.463C74.1096 40.2795 68.9889 46.724 69.8055 53.8571L82.7211 52.3787ZM83.4376 58.6378L70.5219 60.1162C71.3384 67.2493 77.7829 72.37 84.916 71.5534L83.4376 58.6378ZM101.967 56.5168L114.882 55.0384C114.066 47.9052 107.621 42.7846 100.488 43.6011L101.967 56.5168ZM102.888 64.5642L104.366 77.4799C111.499 76.6634 116.62 70.2189 115.803 63.0858L102.888 64.5642ZM75.3675 67.7144L88.2831 66.236L84.189 30.4696L71.2734 31.948L58.3577 33.4264L62.4518 69.1929L75.3675 67.7144ZM71.2734 31.948L72.7518 44.8637L100.322 41.7078L98.8433 28.7921L97.3649 15.8765L69.7949 19.0323L71.2734 31.948ZM98.8433 28.7921L85.9277 30.2706L86.8488 38.318L99.7645 36.8396L112.68 35.3611L111.759 27.3137L98.8433 28.7921ZM99.7645 36.8396L98.2861 23.9239L79.7074 26.0506L81.1858 38.9662L82.6643 51.8819L101.243 49.7552L99.7645 36.8396ZM81.1858 38.9662L68.2702 40.4447L68.9411 46.3064L81.8568 44.828L94.7725 43.3495L94.1015 37.4878L81.1858 38.9662ZM81.8568 44.828L83.3352 57.7436L100.523 55.7762L99.0446 42.8605L97.5661 29.9448L80.3784 31.9123L81.8568 44.828ZM99.0446 42.8605L86.1289 44.3389L86.9932 51.8896L99.9089 50.4112L112.825 48.9328L111.96 41.3821L99.0446 42.8605ZM99.9089 50.4112L98.4304 37.4955L81.2427 39.463L82.7211 52.3787L84.1996 65.2943L101.387 63.3269L99.9089 50.4112ZM82.7211 52.3787L69.8055 53.8571L70.5219 60.1162L83.4376 58.6378L96.3532 57.1593L95.6368 50.9002L82.7211 52.3787ZM83.4376 58.6378L84.916 71.5534L103.445 69.4325L101.967 56.5168L100.488 43.6011L81.9592 45.7221L83.4376 58.6378ZM101.967 56.5168L89.0509 57.9952L89.9721 66.0427L102.888 64.5642L115.803 63.0858L114.882 55.0384L101.967 56.5168ZM102.888 64.5642L101.409 51.6486L73.8891 54.7988L75.3675 67.7144L76.8459 80.6301L104.366 77.4799L102.888 64.5642ZM106.052 64.2021L93.1362 65.6805C93.9527 72.8136 100.397 77.9342 107.53 77.1177L106.052 64.2021ZM101.958 28.4356L100.479 15.52C93.3462 16.3365 88.2256 22.7809 89.0421 29.914L101.958 28.4356ZM110.949 27.4064L123.865 25.928C123.048 18.7948 116.604 13.6742 109.471 14.4907L110.949 27.4064ZM114.122 55.1254L101.206 56.6038C102.023 63.7369 108.467 68.8576 115.6 68.0411L114.122 55.1254ZM130.416 53.2603L143.331 51.7819C142.515 44.6487 136.07 39.5281 128.937 40.3446L130.416 53.2603ZM131.337 61.3077L132.815 74.2234C139.948 73.4069 145.069 66.9624 144.252 59.8293L131.337 61.3077ZM106.052 64.2021L118.968 62.7236L114.873 26.9572L101.958 28.4356L89.0421 29.914L93.1362 65.6805L106.052 64.2021ZM101.958 28.4356L103.436 41.3513L112.427 40.3221L110.949 27.4064L109.471 14.4907L100.479 15.52L101.958 28.4356ZM110.949 27.4064L98.0334 28.8848L101.206 56.6038L114.122 55.1254L127.038 53.647L123.865 25.928L110.949 27.4064ZM114.122 55.1254L115.6 68.0411L131.894 66.176L130.416 53.2603L128.937 40.3446L112.644 42.2097L114.122 55.1254ZM130.416 53.2603L117.5 54.7387L118.421 62.7862L131.337 61.3077L144.252 59.8293L143.331 51.7819L130.416 53.2603ZM131.337 61.3077L129.858 48.3921L104.573 51.2864L106.052 64.2021L107.53 77.1177L132.815 74.2234L131.337 61.3077ZM133.777 61.0284L120.861 62.5068C121.678 69.64 128.122 74.7606 135.256 73.9441L133.777 61.0284ZM129.683 25.262L128.205 12.3463C121.071 13.1628 115.951 19.6073 116.767 26.7404L129.683 25.262ZM138.674 24.2327L151.59 22.7543C150.773 15.6212 144.329 10.5006 137.196 11.3171L138.674 24.2327ZM141.847 51.9517L128.932 53.4302C129.748 60.5633 136.192 65.6839 143.326 64.8674L141.847 51.9517ZM158.141 50.0866L171.056 48.6082C170.24 41.4751 163.795 36.3545 156.662 37.171L158.141 50.0866ZM159.062 58.1341L160.54 71.0497C167.674 70.2332 172.794 63.7888 171.978 56.6557L159.062 58.1341ZM133.777 61.0284L146.693 59.55L142.599 23.7835L129.683 25.262L116.767 26.7404L120.861 62.5068L133.777 61.0284ZM129.683 25.262L131.161 38.1776L140.153 37.1484L138.674 24.2327L137.196 11.3171L128.205 12.3463L129.683 25.262ZM138.674 24.2327L125.759 25.7112L128.932 53.4302L141.847 51.9517L154.763 50.4733L151.59 22.7543L138.674 24.2327ZM141.847 51.9517L143.326 64.8674L159.619 63.0023L158.141 50.0866L156.662 37.171L140.369 39.0361L141.847 51.9517ZM158.141 50.0866L145.225 51.5651L146.146 59.6125L159.062 58.1341L171.978 56.6557L171.056 48.6082L158.141 50.0866ZM159.062 58.1341L157.584 45.2184L132.299 48.1127L133.777 61.0284L135.256 73.9441L160.54 71.0497L159.062 58.1341ZM178.46 56.5175L176.982 43.6019C174.193 43.9211 173.078 43.1666 172.642 42.7928C172.05 42.2848 171.156 41.072 170.881 38.6637L157.965 40.1421L145.049 41.6205C145.939 49.3957 149.332 57.053 155.715 62.528C162.255 68.1372 170.806 70.4786 179.939 69.4332L178.46 56.5175ZM157.965 40.1421L170.881 38.6637C170.605 36.2554 171.202 34.8719 171.664 34.2433C172.004 33.7807 172.919 32.7938 175.708 32.4745L174.23 19.5589L172.751 6.6432C163.618 7.68865 155.818 11.9016 150.715 18.8436C145.734 25.6195 144.159 33.8454 145.049 41.6205L157.965 40.1421ZM174.23 19.5589L175.708 32.4745C178.456 32.1599 179.558 32.9049 179.994 33.2802C180.589 33.791 181.484 35.0094 181.76 37.4184L194.675 35.94L207.591 34.4615C206.701 26.687 203.31 19.0353 196.941 13.5618C190.414 7.95261 181.875 5.59878 172.751 6.6432L174.23 19.5589ZM194.675 35.94L181.76 37.4184C182.035 39.8273 181.439 41.2165 180.975 41.8485C180.634 42.3127 179.73 43.2873 176.982 43.6019L178.46 56.5175L179.939 69.4332C189.063 68.3888 196.849 64.1662 201.939 57.2273C206.906 50.4561 208.481 42.2361 207.591 34.4615L194.675 35.94ZM167.304 39.0731L154.388 40.5515C154.903 45.0462 156.518 50.6784 160.785 55.195C165.548 60.2366 172.141 62.3238 179.035 61.5348L177.556 48.6191L176.078 35.7034C176.069 35.7044 176.206 35.688 176.463 35.7115C176.723 35.7355 177.078 35.7982 177.491 35.9389C178.381 36.2419 179.143 36.7668 179.685 37.3404C180.182 37.867 180.345 38.2712 180.354 38.2939C180.361 38.3129 180.277 38.0972 180.22 37.5947L167.304 39.0731ZM177.556 48.6191L179.035 61.5348C185.939 60.7444 191.871 57.1954 195.35 51.2168C198.464 45.8641 198.766 40.0259 198.252 35.5305L185.336 37.009L172.421 38.4874C172.478 38.9897 172.445 39.2218 172.448 39.2061C172.45 39.1873 172.515 38.7628 172.877 38.1414C173.27 37.4645 173.893 36.7758 174.7 36.2716C175.48 35.784 176.051 35.7065 176.078 35.7034L177.556 48.6191ZM185.336 37.009L198.252 35.5305C197.737 31.0352 196.123 25.4164 191.88 20.9059C187.14 15.868 180.559 13.7513 173.655 14.5416L175.134 27.4573L176.612 40.3729C176.585 40.376 176.012 40.4295 175.141 40.1309C174.241 39.8221 173.48 39.2918 172.943 38.7214C172.45 38.1978 172.291 37.7988 172.284 37.7812C172.279 37.7665 172.363 37.9851 172.421 38.4874L185.336 37.009ZM175.134 27.4573L173.655 14.5416C166.762 15.3307 160.811 18.8539 157.31 24.8414C154.175 30.2053 153.874 36.0568 154.388 40.5515L167.304 39.0731L180.22 37.5947C180.162 37.0921 180.195 36.863 180.192 36.8832C180.189 36.9074 180.122 37.3377 179.756 37.9631C179.358 38.6443 178.734 39.3279 177.936 39.8242C177.565 40.0546 177.234 40.1958 176.985 40.2781C176.741 40.3589 176.604 40.3739 176.612 40.3729L175.134 27.4573Z" fill="#291F5B" mask="url(#path-3-outside-2_214_3388)"/>
</svg>
