<svg width="253" height="162" viewBox="0 0 253 162" fill="none" xmlns="http://www.w3.org/2000/svg">
<path d="M38.8626 68.1914V47.7056H20.752V68.1914H5.61031V14.7502H20.752V34.1969H38.8626V14.7502H54.0043V68.1914H38.8626ZM77.3002 69.0821C63.643 69.0821 56.5175 60.3237 56.5175 48.8932C56.5175 37.4627 63.643 28.7043 77.3002 28.7043C90.9573 28.7043 98.0828 37.4627 98.0828 48.8932C98.0828 60.3237 90.9573 69.0821 77.3002 69.0821ZM70.4716 48.8932C70.4716 54.6827 72.2529 58.097 77.3002 58.097C82.3474 58.097 84.1288 54.6827 84.1288 48.8932C84.1288 43.1037 82.3474 39.6894 77.3002 39.6894C72.2529 39.6894 70.4716 43.1037 70.4716 48.8932ZM136.124 68.1914L130.26 46.5923L124.396 68.1914H109.7L96.8593 29.595H111.853L118.236 52.0848L123.877 29.595H136.643L142.284 52.0848L148.668 29.595H163.661L150.82 68.1914H136.124ZM183.865 17.7192H197.819V29.595H206.726V39.3925H197.819V55.3507C197.819 57.3547 198.413 58.3938 201.085 58.3938H206.726V68.1914H197.002C190.768 68.1914 183.865 67.2265 183.865 56.6867V39.3925H177.63V29.595H183.865V17.7192ZM227.789 69.0821C214.132 69.0821 207.006 60.3237 207.006 48.8932C207.006 37.4627 214.132 28.7043 227.789 28.7043C241.446 28.7043 248.572 37.4627 248.572 48.8932C248.572 60.3237 241.446 69.0821 227.789 69.0821ZM220.96 48.8932C220.96 54.6827 222.742 58.097 227.789 58.097C232.836 58.097 234.618 54.6827 234.618 48.8932C234.618 43.1037 232.836 39.6894 227.789 39.6894C222.742 39.6894 220.96 43.1037 220.96 48.8932ZM53.5079 103.595H67.0909V107.9C69.4661 104.634 73.0288 102.704 78.076 102.704C88.7643 102.704 94.4053 111.463 94.4053 122.893C94.4053 134.324 88.7643 143.082 78.076 143.082C73.3257 143.082 69.8372 141.375 67.462 138.406V157.036H53.5079V103.595ZM67.3136 122.893C67.3136 128.683 69.0949 132.097 73.8453 132.097C78.5956 132.097 80.377 128.683 80.377 122.893C80.377 117.104 78.5956 113.689 73.8453 113.689C69.0949 113.689 67.3136 117.104 67.3136 122.893ZM96.2041 88.7502H110.158V129.351C110.158 131.355 110.752 132.394 113.424 132.394H118.323V142.191H109.342C103.107 142.191 96.2041 141.226 96.2041 130.687V88.7502ZM144.695 142.191V138.406C141.503 141.895 137.792 143.082 132.596 143.082C124.58 143.082 118.345 138.851 118.345 130.984C118.345 124.081 122.502 121.038 134.526 119.108L144.398 117.549V116.51C144.398 114.729 143.953 112.502 139.499 112.502C135.788 112.502 134.452 114.729 134.452 116.51H120.646C120.646 107.603 128.366 102.704 139.351 102.704C151.82 102.704 158.055 107.38 158.055 114.803V142.191H144.695ZM132.522 130.464C132.522 132.691 134.304 134.027 137.272 134.027C141.206 134.027 144.398 132.32 144.398 127.718V125.417L137.495 126.753C133.932 127.421 132.522 128.237 132.522 130.464ZM159.689 157.036V146.199H166.369C169.857 146.199 170.971 145.606 172.01 143.305L157.462 103.595H172.455L179.729 130.316L186.409 103.595H201.402L187.3 143.527C184.405 151.692 179.952 157.036 170.006 157.036H159.689Z" fill="#EEECF8"/>
<path d="M38.8626 68.1914H34.4811V72.5729H38.8626V68.1914ZM38.8626 47.7056H43.2442V43.3241H38.8626V47.7056ZM20.752 47.7056V43.3241H16.3705V47.7056H20.752ZM20.752 68.1914V72.5729H25.1335V68.1914H20.752ZM5.61031 68.1914H1.22878V72.5729H5.61031V68.1914ZM5.61031 14.7502V10.3687H1.22878V14.7502H5.61031ZM20.752 14.7502H25.1335V10.3687H20.752V14.7502ZM20.752 34.1969H16.3705V38.5784H20.752V34.1969ZM38.8626 34.1969V38.5784H43.2442V34.1969H38.8626ZM38.8626 14.7502V10.3687H34.4811V14.7502H38.8626ZM54.0043 14.7502H58.3858V10.3687H54.0043V14.7502ZM54.0043 68.1914V72.5729H58.3858V68.1914H54.0043ZM38.8626 68.1914H43.2442V47.7056H38.8626H34.4811V68.1914H38.8626ZM38.8626 47.7056V43.3241H20.752V47.7056V52.0871H38.8626V47.7056ZM20.752 47.7056H16.3705V68.1914H20.752H25.1335V47.7056H20.752ZM20.752 68.1914V63.8099H5.61031V68.1914V72.5729H20.752V68.1914ZM5.61031 68.1914H9.99185V14.7502H5.61031H1.22878V68.1914H5.61031ZM5.61031 14.7502V19.1317H20.752V14.7502V10.3687H5.61031V14.7502ZM20.752 14.7502H16.3705V34.1969H20.752H25.1335V14.7502H20.752ZM20.752 34.1969V38.5784H38.8626V34.1969V29.8153H20.752V34.1969ZM38.8626 34.1969H43.2442V14.7502H38.8626H34.4811V34.1969H38.8626ZM38.8626 14.7502V19.1317H54.0043V14.7502V10.3687H38.8626V14.7502ZM54.0043 14.7502H49.6228V68.1914H54.0043H58.3858V14.7502H54.0043ZM54.0043 68.1914V63.8099H38.8626V68.1914V72.5729H54.0043V68.1914ZM77.3002 69.0821V64.7006C71.4419 64.7006 67.4635 62.8487 64.9417 60.233C62.3884 57.5847 60.899 53.7069 60.899 48.8932H56.5175H52.1359C52.1359 55.51 54.2092 61.7266 58.633 66.3152C63.0883 70.9362 69.5012 73.4636 77.3002 73.4636V69.0821ZM56.5175 48.8932H60.899C60.899 44.0795 62.3884 40.2017 64.9417 37.5534C67.4635 34.9377 71.4419 33.0858 77.3002 33.0858V28.7043V24.3228C69.5012 24.3228 63.0883 26.8501 58.633 31.4712C54.2092 36.0598 52.1359 42.2764 52.1359 48.8932H56.5175ZM77.3002 28.7043V33.0858C83.1584 33.0858 87.1368 34.9377 89.6586 37.5534C92.2119 40.2017 93.7013 44.0795 93.7013 48.8932H98.0828H102.464C102.464 42.2764 100.391 36.0598 95.9673 31.4712C91.512 26.8501 85.0991 24.3228 77.3002 24.3228V28.7043ZM98.0828 48.8932H93.7013C93.7013 53.7069 92.2119 57.5847 89.6586 60.233C87.1368 62.8487 83.1584 64.7006 77.3002 64.7006V69.0821V73.4636C85.0991 73.4636 91.512 70.9362 95.9673 66.3152C100.391 61.7266 102.464 55.51 102.464 48.8932H98.0828ZM70.4716 48.8932H66.09C66.09 52.0713 66.5465 55.4576 68.3739 58.1357C70.4373 61.1596 73.6603 62.4785 77.3002 62.4785V58.097V53.7154C76.5251 53.7154 76.1311 53.5842 75.9619 53.5049C75.8256 53.4411 75.7272 53.3647 75.6124 53.1965C75.2873 52.7201 74.8531 51.5046 74.8531 48.8932H70.4716ZM77.3002 58.097V62.4785C80.94 62.4785 84.163 61.1596 86.2264 58.1357C88.0538 55.4576 88.5103 52.0713 88.5103 48.8932H84.1287H79.7472C79.7472 51.5046 79.313 52.7201 78.9879 53.1965C78.8731 53.3647 78.7747 53.4411 78.6384 53.5049C78.4692 53.5842 78.0752 53.7154 77.3002 53.7154V58.097ZM84.1287 48.8932H88.5103C88.5103 45.7151 88.0538 42.3288 86.2264 39.6507C84.163 36.6268 80.94 35.3079 77.3002 35.3079V39.6894V44.071C78.0752 44.071 78.4692 44.2022 78.6384 44.2814C78.7747 44.3453 78.8731 44.4217 78.9879 44.5899C79.313 45.0662 79.7472 46.2818 79.7472 48.8932H84.1287ZM77.3002 39.6894V35.3079C73.6603 35.3079 70.4373 36.6268 68.3739 39.6507C66.5465 42.3288 66.09 45.7151 66.09 48.8932H70.4716H74.8531C74.8531 46.2818 75.2873 45.0662 75.6124 44.5899C75.7272 44.4217 75.8256 44.3453 75.9619 44.2814C76.1311 44.2022 76.5251 44.071 77.3002 44.071V39.6894ZM136.124 68.1914L131.895 69.3393L132.773 72.5729H136.124V68.1914ZM130.26 46.5923L134.489 45.4443L130.26 29.8685L126.032 45.4443L130.26 46.5923ZM124.396 68.1914V72.5729H127.747L128.625 69.3393L124.396 68.1914ZM109.7 68.1914L105.543 69.5746L106.54 72.5729H109.7V68.1914ZM96.8593 29.595V25.2134H90.7839L92.7018 30.9781L96.8593 29.595ZM111.853 29.595L116.068 28.3986L115.164 25.2134H111.853V29.595ZM118.236 52.0848L114.021 53.2812L118.497 69.0526L122.486 53.1508L118.236 52.0848ZM123.877 29.595V25.2134H120.459L119.627 28.529L123.877 29.595ZM136.643 29.595L140.893 28.529L140.062 25.2134H136.643V29.595ZM142.284 52.0848L138.034 53.1508L142.023 69.0526L146.499 53.2812L142.284 52.0848ZM148.668 29.595V25.2134H145.357L144.453 28.3986L148.668 29.595ZM163.661 29.595L167.818 30.9781L169.736 25.2134H163.661V29.595ZM150.82 68.1914V72.5729H153.98L154.978 69.5746L150.82 68.1914ZM136.124 68.1914L140.352 67.0435L134.489 45.4443L130.26 46.5923L126.032 47.7402L131.895 69.3393L136.124 68.1914ZM130.26 46.5923L126.032 45.4443L120.168 67.0435L124.396 68.1914L128.625 69.3393L134.489 47.7402L130.26 46.5923ZM124.396 68.1914V63.8099H109.7V68.1914V72.5729H124.396V68.1914ZM109.7 68.1914L113.858 66.8082L101.017 28.2118L96.8593 29.595L92.7018 30.9781L105.543 69.5746L109.7 68.1914ZM96.8593 29.595V33.9765H111.853V29.595V25.2134H96.8593V29.595ZM111.853 29.595L107.637 30.7913L114.021 53.2812L118.236 52.0848L122.451 50.8885L116.068 28.3986L111.853 29.595ZM118.236 52.0848L122.486 53.1508L128.127 30.661L123.877 29.595L119.627 28.529L113.986 51.0188L118.236 52.0848ZM123.877 29.595V33.9765H136.643V29.595V25.2134H123.877V29.595ZM136.643 29.595L132.393 30.661L138.034 53.1508L142.284 52.0848L146.534 51.0188L140.893 28.529L136.643 29.595ZM142.284 52.0848L146.499 53.2812L152.883 30.7913L148.668 29.595L144.453 28.3986L138.069 50.8885L142.284 52.0848ZM148.668 29.595V33.9765H163.661V29.595V25.2134H148.668V29.595ZM163.661 29.595L159.503 28.2118L146.663 66.8082L150.82 68.1914L154.978 69.5746L167.818 30.9781L163.661 29.595ZM150.82 68.1914V63.8099H136.124V68.1914V72.5729H150.82V68.1914ZM183.865 17.7192V13.3376H179.483V17.7192H183.865ZM197.819 17.7192H202.2V13.3376H197.819V17.7192ZM197.819 29.595H193.437V33.9765H197.819V29.595ZM206.726 29.595H211.107V25.2134H206.726V29.595ZM206.726 39.3925V43.7741H211.107V39.3925H206.726ZM197.819 39.3925V35.011H193.437V39.3925H197.819ZM206.726 58.3938H211.107V54.0123H206.726V58.3938ZM206.726 68.1914V72.5729H211.107V68.1914H206.726ZM183.865 39.3925H188.246V35.011H183.865V39.3925ZM177.63 39.3925H173.248V43.7741H177.63V39.3925ZM177.63 29.595V25.2134H173.248V29.595H177.63ZM183.865 29.595V33.9765H188.246V29.595H183.865ZM183.865 17.7192V22.1007H197.819V17.7192V13.3376H183.865V17.7192ZM197.819 17.7192H193.437V29.595H197.819H202.2V17.7192H197.819ZM197.819 29.595V33.9765H206.726V29.595V25.2134H197.819V29.595ZM206.726 29.595H202.344V39.3925H206.726H211.107V29.595H206.726ZM206.726 39.3925V35.011H197.819V39.3925V43.7741H206.726V39.3925ZM197.819 39.3925H193.437V55.3507H197.819H202.2V39.3925H197.819ZM197.819 55.3507H193.437C193.437 56.5466 193.554 58.8232 195.266 60.6339C197.016 62.4849 199.385 62.7754 201.085 62.7754V58.3938V54.0123C200.669 54.0123 200.588 53.9681 200.7 54.0016C200.854 54.0476 201.248 54.2056 201.634 54.6136C202.015 55.0174 202.155 55.4187 202.197 55.5815C202.228 55.703 202.2 55.6714 202.2 55.3507H197.819ZM201.085 58.3938V62.7754H206.726V58.3938V54.0123H201.085V58.3938ZM206.726 58.3938H202.344V68.1914H206.726H211.107V58.3938H206.726ZM206.726 68.1914V63.8099H197.002V68.1914V72.5729H206.726V68.1914ZM197.002 68.1914V63.8099C193.887 63.8099 191.756 63.5086 190.41 62.6713C189.537 62.128 188.246 60.9016 188.246 56.6867H183.865H179.483C179.483 63.0116 181.644 67.5375 185.781 70.1116C189.445 72.3918 193.883 72.5729 197.002 72.5729V68.1914ZM183.865 56.6867H188.246V39.3925H183.865H179.483V56.6867H183.865ZM183.865 39.3925V35.011H177.63V39.3925V43.7741H183.865V39.3925ZM177.63 39.3925H182.011V29.595H177.63H173.248V39.3925H177.63ZM177.63 29.595V33.9765H183.865V29.595V25.2134H177.63V29.595ZM183.865 29.595H188.246V17.7192H183.865H179.483V29.595H183.865ZM227.789 69.0821V64.7006C221.931 64.7006 217.952 62.8487 215.431 60.233C212.877 57.5847 211.388 53.7069 211.388 48.8932H207.006H202.625C202.625 55.51 204.698 61.7266 209.122 66.3152C213.577 70.9362 219.99 73.4636 227.789 73.4636V69.0821ZM207.006 48.8932H211.388C211.388 44.0795 212.877 40.2017 215.431 37.5534C217.952 34.9377 221.931 33.0858 227.789 33.0858V28.7043V24.3228C219.99 24.3228 213.577 26.8501 209.122 31.4712C204.698 36.0598 202.625 42.2764 202.625 48.8932H207.006ZM227.789 28.7043V33.0858C233.647 33.0858 237.626 34.9377 240.148 37.5534C242.701 40.2017 244.19 44.0795 244.19 48.8932H248.572H252.953C252.953 42.2764 250.88 36.0598 246.456 31.4712C242.001 26.8501 235.588 24.3228 227.789 24.3228V28.7043ZM248.572 48.8932H244.19C244.19 53.7069 242.701 57.5847 240.148 60.233C237.626 62.8487 233.647 64.7006 227.789 64.7006V69.0821V73.4636C235.588 73.4636 242.001 70.9362 246.456 66.3152C250.88 61.7266 252.953 55.51 252.953 48.8932H248.572ZM220.96 48.8932H216.579C216.579 52.0713 217.035 55.4576 218.863 58.1357C220.926 61.1596 224.149 62.4785 227.789 62.4785V58.097V53.7154C227.014 53.7154 226.62 53.5842 226.451 53.5049C226.315 53.4411 226.216 53.3647 226.101 53.1965C225.776 52.7201 225.342 51.5046 225.342 48.8932H220.96ZM227.789 58.097V62.4785C231.429 62.4785 234.652 61.1596 236.715 58.1357C238.543 55.4576 238.999 52.0713 238.999 48.8932H234.618H230.236C230.236 51.5046 229.802 52.7201 229.477 53.1965C229.362 53.3647 229.264 53.4411 229.127 53.5049C228.958 53.5842 228.564 53.7154 227.789 53.7154V58.097ZM234.618 48.8932H238.999C238.999 45.7151 238.543 42.3288 236.715 39.6507C234.652 36.6268 231.429 35.3079 227.789 35.3079V39.6894V44.071C228.564 44.071 228.958 44.2022 229.127 44.2814C229.264 44.3453 229.362 44.4217 229.477 44.5899C229.802 45.0662 230.236 46.2818 230.236 48.8932H234.618ZM227.789 39.6894V35.3079C224.149 35.3079 220.926 36.6268 218.863 39.6507C217.035 42.3288 216.579 45.7151 216.579 48.8932H220.96H225.342C225.342 46.2818 225.776 45.0662 226.101 44.5899C226.216 44.4217 226.315 44.3453 226.451 44.2814C226.62 44.2022 227.014 44.071 227.789 44.071V39.6894ZM53.5079 103.595V99.2134H49.1264V103.595H53.5079ZM67.0909 103.595H71.4724V99.2134H67.0909V103.595ZM67.0909 107.9H62.7094V121.374L70.6344 110.477L67.0909 107.9ZM67.462 138.406L70.8834 135.669L63.0805 125.915V138.406H67.462ZM67.462 157.036V161.418H71.8435V157.036H67.462ZM53.5079 157.036H49.1264V161.418H53.5079V157.036ZM53.5079 103.595V107.977H67.0909V103.595V99.2134H53.5079V103.595ZM67.0909 103.595H62.7094V107.9H67.0909H71.4724V103.595H67.0909ZM67.0909 107.9L70.6344 110.477C72.126 108.426 74.3271 107.086 78.076 107.086V102.704V98.3227C71.7305 98.3227 66.8061 100.842 63.5474 105.323L67.0909 107.9ZM78.076 102.704V107.086C82.0731 107.086 84.8547 108.653 86.7586 111.161C88.7684 113.809 90.0238 117.835 90.0238 122.893H94.4053H98.7868C98.7868 116.521 97.2217 110.452 93.7389 105.863C90.1502 101.135 84.7672 98.3227 78.076 98.3227V102.704ZM94.4053 122.893H90.0238C90.0238 127.952 88.7684 131.977 86.7586 134.625C84.8547 137.134 82.0731 138.701 78.076 138.701V143.082V147.464C84.7672 147.464 90.1502 144.651 93.7389 139.923C97.2217 135.334 98.7868 129.265 98.7868 122.893H94.4053ZM78.076 143.082V138.701C74.5042 138.701 72.3362 137.485 70.8834 135.669L67.462 138.406L64.0406 141.143C67.3381 145.265 72.1472 147.464 78.076 147.464V143.082ZM67.462 138.406H63.0805V157.036H67.462H71.8435V138.406H67.462ZM67.462 157.036V152.655H53.5079V157.036V161.418H67.462V157.036ZM53.5079 157.036H57.8895V103.595H53.5079H49.1264V157.036H53.5079ZM67.3136 122.893H62.932C62.932 126.079 63.3921 129.425 65.1392 132.077C67.1199 135.083 70.2517 136.478 73.8453 136.478V132.097V127.715C73.1802 127.715 72.8675 127.597 72.7539 127.541C72.6663 127.498 72.5768 127.438 72.4569 127.256C72.1257 126.753 71.6951 125.497 71.6951 122.893H67.3136ZM73.8453 132.097V136.478C77.4388 136.478 80.5706 135.083 82.5513 132.077C84.2984 129.425 84.7585 126.079 84.7585 122.893H80.377H75.9954C75.9954 125.497 75.5648 126.753 75.2336 127.256C75.1138 127.438 75.0243 127.498 74.9367 127.541C74.823 127.597 74.5103 127.715 73.8453 127.715V132.097ZM80.377 122.893H84.7585C84.7585 119.707 84.2984 116.362 82.5513 113.71C80.5706 110.703 77.4388 109.308 73.8453 109.308V113.689V118.071C74.5103 118.071 74.823 118.189 74.9367 118.245C75.0243 118.288 75.1138 118.349 75.2336 118.531C75.5648 119.033 75.9954 120.29 75.9954 122.893H80.377ZM73.8453 113.689V109.308C70.2517 109.308 67.1199 110.703 65.1392 113.71C63.3921 116.362 62.932 119.707 62.932 122.893H67.3136H71.6951C71.6951 120.29 72.1257 119.033 72.4569 118.531C72.5768 118.349 72.6663 118.288 72.7539 118.245C72.8675 118.189 73.1802 118.071 73.8453 118.071V113.689ZM96.2041 88.7502V84.3687H91.8225V88.7502H96.2041ZM110.158 88.7502H114.54V84.3687H110.158V88.7502ZM118.323 132.394H122.704V128.012H118.323V132.394ZM118.323 142.191V146.573H122.704V142.191H118.323ZM96.2041 88.7502V93.1317H110.158V88.7502V84.3687H96.2041V88.7502ZM110.158 88.7502H105.777V129.351H110.158H114.54V88.7502H110.158ZM110.158 129.351H105.777C105.777 130.547 105.893 132.823 107.605 134.634C109.355 136.485 111.725 136.775 113.424 136.775V132.394V128.012C113.008 128.012 112.927 127.968 113.039 128.002C113.193 128.048 113.587 128.206 113.973 128.614C114.355 129.017 114.495 129.419 114.536 129.581C114.568 129.703 114.54 129.671 114.54 129.351H110.158ZM113.424 132.394V136.775H118.323V132.394V128.012H113.424V132.394ZM118.323 132.394H113.941V142.191H118.323H122.704V132.394H118.323ZM118.323 142.191V137.81H109.342V142.191V146.573H118.323V142.191ZM109.342 142.191V137.81C106.227 137.81 104.095 137.509 102.75 136.671C101.876 136.128 100.586 134.902 100.586 130.687H96.2041H91.8225C91.8225 137.012 93.9831 141.538 98.12 144.112C101.785 146.392 106.222 146.573 109.342 146.573V142.191ZM96.2041 130.687H100.586V88.7502H96.2041H91.8225V130.687H96.2041ZM144.695 142.191H140.313V146.573H144.695V142.191ZM144.695 138.406H149.076V127.126L141.462 135.448L144.695 138.406ZM134.526 119.108L133.843 114.78L133.832 114.782L134.526 119.108ZM144.398 117.549L145.081 121.877L148.78 121.293V117.549H144.398ZM134.452 116.51V120.891H138.834V116.51H134.452ZM120.646 116.51H116.265V120.891H120.646V116.51ZM158.055 142.191V146.573H162.437V142.191H158.055ZM144.398 125.417H148.78V120.106L143.565 121.115L144.398 125.417ZM137.495 126.753L138.303 131.059L138.315 131.057L138.328 131.055L137.495 126.753ZM144.695 142.191H149.076V138.406H144.695H140.313V142.191H144.695ZM144.695 138.406L141.462 135.448C139.34 137.768 136.969 138.701 132.596 138.701V143.082V147.464C138.615 147.464 143.666 146.021 147.928 141.364L144.695 138.406ZM132.596 143.082V138.701C129.306 138.701 126.791 137.828 125.196 136.557C123.717 135.378 122.727 133.634 122.727 130.984H118.345H113.964C113.964 136.201 116.091 140.506 119.734 143.409C123.261 146.221 127.87 147.464 132.596 147.464V143.082ZM118.345 130.984H122.727C122.727 128.607 123.337 127.58 124.518 126.714C126.155 125.513 129.287 124.386 135.221 123.434L134.526 119.108L133.832 114.782C127.741 115.759 122.782 117.119 119.335 119.648C115.432 122.511 113.964 126.458 113.964 130.984H118.345ZM134.526 119.108L135.21 123.436L145.081 121.877L144.398 117.549L143.715 113.221L133.843 114.78L134.526 119.108ZM144.398 117.549H148.78V116.51H144.398H140.016V117.549H144.398ZM144.398 116.51H148.78C148.78 115.411 148.691 113.023 146.945 110.986C145.103 108.837 142.365 108.12 139.499 108.12V112.502V116.883C140.269 116.883 140.609 116.982 140.681 117.008C140.709 117.018 140.666 117.006 140.582 116.95C140.495 116.892 140.392 116.806 140.292 116.689C140.081 116.444 140.014 116.218 140.001 116.164C139.995 116.143 140.001 116.157 140.006 116.22C140.012 116.283 140.016 116.375 140.016 116.51H144.398ZM139.499 112.502V108.12C136.739 108.12 134.295 108.972 132.522 110.703C130.796 112.389 130.07 114.562 130.07 116.51H134.452H138.834C138.834 116.676 138.776 116.845 138.645 116.972C138.581 117.035 138.559 117.026 138.649 116.993C138.748 116.957 139.009 116.883 139.499 116.883V112.502ZM134.452 116.51V112.128H120.646V116.51V120.891H134.452V116.51ZM120.646 116.51H125.028C125.028 113.508 126.244 111.377 128.411 109.843C130.743 108.192 134.434 107.086 139.351 107.086V102.704V98.3227C133.282 98.3227 127.621 99.6655 123.348 102.691C118.909 105.833 116.265 110.605 116.265 116.51H120.646ZM139.351 102.704V107.086C145.141 107.086 148.826 108.188 150.934 109.606C152.812 110.869 153.674 112.515 153.674 114.803H158.055H162.437C162.437 109.668 160.181 105.265 155.824 102.334C151.697 99.5583 146.031 98.3227 139.351 98.3227V102.704ZM158.055 114.803H153.674V142.191H158.055H162.437V114.803H158.055ZM158.055 142.191V137.81H144.695V142.191V146.573H158.055V142.191ZM132.522 130.464H128.141C128.141 132.886 129.18 135.105 131.155 136.586C132.976 137.952 135.203 138.408 137.272 138.408V134.027V129.645C136.851 129.645 136.58 129.597 136.435 129.557C136.291 129.518 136.311 129.498 136.413 129.575C136.528 129.661 136.677 129.818 136.786 130.042C136.893 130.262 136.904 130.427 136.904 130.464H132.522ZM137.272 134.027V138.408C139.777 138.408 142.655 137.879 144.999 136.058C147.529 134.092 148.78 131.136 148.78 127.718H144.398H140.016C140.016 128.362 139.906 128.705 139.837 128.857C139.777 128.993 139.712 129.068 139.622 129.138C139.386 129.321 138.702 129.645 137.272 129.645V134.027ZM144.398 127.718H148.78V125.417H144.398H140.016V127.718H144.398ZM144.398 125.417L143.565 121.115L136.663 122.451L137.495 126.753L138.328 131.055L145.231 129.719L144.398 125.417ZM137.495 126.753L136.688 122.446C134.902 122.781 132.793 123.276 131.138 124.45C130.201 125.114 129.38 126.009 128.832 127.176C128.3 128.309 128.141 129.452 128.141 130.464H132.522H136.904C136.904 130.363 136.92 130.569 136.764 130.901C136.592 131.268 136.346 131.499 136.208 131.598C136.118 131.662 136.177 131.596 136.566 131.469C136.947 131.346 137.499 131.21 138.303 131.059L137.495 126.753ZM159.689 157.036H155.307V161.418H159.689V157.036ZM159.689 146.199V141.818H155.307V146.199H159.689ZM172.01 143.305L176.003 145.108L176.739 143.478L176.124 141.798L172.01 143.305ZM157.462 103.595V99.2134H151.19L153.348 105.102L157.462 103.595ZM172.455 103.595L176.683 102.444L175.803 99.2134H172.455V103.595ZM179.729 130.316L175.501 131.466L179.91 147.659L183.98 131.378L179.729 130.316ZM186.409 103.595V99.2134H182.988L182.159 102.532L186.409 103.595ZM201.402 103.595L205.534 105.054L207.597 99.2134H201.402V103.595ZM187.3 143.527L191.43 144.992L191.431 144.987L187.3 143.527ZM159.689 157.036H164.07V146.199H159.689H155.307V157.036H159.689ZM159.689 146.199V150.581H166.369V146.199V141.818H159.689V146.199ZM166.369 146.199V150.581C168.176 150.581 170.263 150.466 172.118 149.508C174.236 148.414 175.309 146.644 176.003 145.108L172.01 143.305L168.017 141.501C167.838 141.897 167.752 142 167.766 141.982C167.815 141.921 167.937 141.805 168.097 141.722C168.221 141.658 168.218 141.694 167.926 141.738C167.621 141.783 167.141 141.818 166.369 141.818V146.199ZM172.01 143.305L176.124 141.798L161.576 102.088L157.462 103.595L153.348 105.102L167.896 144.812L172.01 143.305ZM157.462 103.595V107.977H172.455V103.595V99.2134H157.462V103.595ZM172.455 103.595L168.227 104.746L175.501 131.466L179.729 130.316L183.957 129.165L176.683 102.444L172.455 103.595ZM179.729 130.316L183.98 131.378L190.66 104.658L186.409 103.595L182.159 102.532L175.478 129.253L179.729 130.316ZM186.409 103.595V107.977H201.402V103.595V99.2134H186.409V103.595ZM201.402 103.595L197.271 102.136L183.168 142.068L187.3 143.527L191.431 144.987L205.534 105.054L201.402 103.595ZM187.3 143.527L183.17 142.063C181.835 145.829 180.322 148.39 178.427 150.033C176.647 151.576 174.129 152.655 170.006 152.655V157.036V161.418C175.829 161.418 180.51 159.824 184.167 156.654C187.709 153.584 189.87 149.39 191.43 144.992L187.3 143.527ZM170.006 157.036V152.655H159.689V157.036V161.418H170.006V157.036Z" fill="#806AEA"/>
<path d="M37.4029 66V45.5142H19.2923V66H4.1506V12.5588H19.2923V32.0055H37.4029V12.5588H52.5446V66H37.4029ZM75.8404 66.8907C62.1832 66.8907 55.0577 58.1323 55.0577 46.7018C55.0577 35.2713 62.1832 26.5129 75.8404 26.5129C89.4976 26.5129 96.6231 35.2713 96.6231 46.7018C96.6231 58.1323 89.4976 66.8907 75.8404 66.8907ZM69.0118 46.7018C69.0118 52.4912 70.7932 55.9055 75.8404 55.9055C80.8877 55.9055 82.669 52.4912 82.669 46.7018C82.669 40.9123 80.8877 37.498 75.8404 37.498C70.7932 37.498 69.0118 40.9123 69.0118 46.7018ZM134.664 66L128.8 44.4008L122.937 66H108.24L95.3996 27.4036H110.393L116.776 49.8934L122.417 27.4036H135.184L140.825 49.8934L147.208 27.4036H162.201L149.36 66H134.664ZM182.405 15.5278H196.359V27.4036H205.266V37.2011H196.359V53.1593C196.359 55.1633 196.953 56.2024 199.625 56.2024H205.266V66H195.543C189.308 66 182.405 65.0351 182.405 54.4953V37.2011H176.17V27.4036H182.405V15.5278ZM226.329 66.8907C212.672 66.8907 205.547 58.1323 205.547 46.7018C205.547 35.2713 212.672 26.5129 226.329 26.5129C239.987 26.5129 247.112 35.2713 247.112 46.7018C247.112 58.1323 239.987 66.8907 226.329 66.8907ZM219.501 46.7018C219.501 52.4912 221.282 55.9055 226.329 55.9055C231.377 55.9055 233.158 52.4912 233.158 46.7018C233.158 40.9123 231.377 37.498 226.329 37.498C221.282 37.498 219.501 40.9123 219.501 46.7018ZM52.0482 101.404H65.6312V105.709C68.0063 102.443 71.5691 100.513 76.6163 100.513C87.3045 100.513 92.9456 109.271 92.9456 120.702C92.9456 132.132 87.3045 140.891 76.6163 140.891C71.866 140.891 68.3775 139.184 66.0023 136.215V154.845H52.0482V101.404ZM65.8538 120.702C65.8538 126.491 67.6352 129.906 72.3855 129.906C77.1359 129.906 78.9173 126.491 78.9173 120.702C78.9173 114.912 77.1359 111.498 72.3855 111.498C67.6352 111.498 65.8538 114.912 65.8538 120.702ZM94.7443 86.5588H108.698V127.159C108.698 129.163 109.292 130.202 111.964 130.202H116.863V140H107.882C101.647 140 94.7443 139.035 94.7443 128.495V86.5588ZM143.235 140V136.215C140.044 139.703 136.332 140.891 131.137 140.891C123.12 140.891 116.886 136.66 116.886 128.792C116.886 121.889 121.042 118.846 133.066 116.916L142.938 115.358V114.319C142.938 112.537 142.493 110.31 138.039 110.31C134.328 110.31 132.992 112.537 132.992 114.319H119.187C119.187 105.412 126.906 100.513 137.891 100.513C150.361 100.513 156.595 105.189 156.595 112.611V140H143.235ZM131.062 128.273C131.062 130.499 132.844 131.835 135.813 131.835C139.747 131.835 142.938 130.128 142.938 125.526V123.225L136.035 124.561C132.473 125.229 131.062 126.046 131.062 128.273ZM158.229 154.845V144.008H164.909C168.398 144.008 169.511 143.414 170.55 141.113L156.002 101.404H170.995L178.269 128.124L184.95 101.404H199.943L185.84 141.336C182.946 149.501 178.492 154.845 168.546 154.845H158.229Z" fill="#EEECF8"/>
</svg>
