<svg width="189" height="42" viewBox="0 0 189 42" fill="none" xmlns="http://www.w3.org/2000/svg">
<path d="M16.7213 0H29.2191C36.1203 0 40.9306 5.5965 39.9617 12.4978L38.7908 20.8305C37.8219 27.7318 31.4392 33.3282 24.5354 33.3282H18.2865L19.2383 26.5584C19.3601 25.6967 20.1585 24.9956 21.0203 24.9956H25.7063C28.0068 24.9956 30.1344 23.1309 30.4581 20.8305L31.629 12.4978C31.9528 10.1974 30.3486 8.33267 28.0481 8.33267H15.5504C13.2499 8.33267 11.1223 10.1974 10.7986 12.4978L8.45675 29.1607C8.13299 31.4611 9.73721 33.3258 12.0376 33.3258H18.2865L17.3347 40.0956C17.213 40.9574 16.4145 41.6585 15.5528 41.6585H10.8667C3.96544 41.6585 -0.844773 36.062 0.124086 29.1607L2.4659 12.4978C3.43476 5.5965 9.81754 0 16.7213 0Z" fill="#EEECF8"/>
<path d="M65.6488 10.6528C64.31 9.15079 62.3138 8.39859 59.6604 8.39859H50.2226C49.6821 8.39859 49.2927 8.50327 49.0517 8.71505C48.8107 8.92684 48.6524 9.30172 48.577 9.84214L45.4683 31.9604C45.3929 32.5008 45.4464 32.8757 45.6266 33.0874C45.8091 33.2992 46.1694 33.4039 46.7098 33.4039H49.5629C50.1033 33.4039 50.4928 33.2992 50.7338 33.0874C50.9748 32.8757 51.133 32.5008 51.2085 31.9604L52.1481 25.2684H57.2894C59.9671 25.2684 62.1775 24.5235 63.9253 23.0313C65.6732 21.5415 66.7321 19.4796 67.1021 16.8505C67.4721 14.2215 66.9877 12.1547 65.6488 10.6528ZM61.1502 16.853C61.009 17.8632 60.6098 18.6446 59.9574 19.1948C59.305 19.7474 58.4603 20.0225 57.4281 20.0225H52.8857L53.7864 13.6129H58.3288C59.361 13.6129 60.1254 13.9001 60.6195 14.4746C61.1137 15.0491 61.2914 15.8427 61.1478 16.853H61.1502Z" fill="#EEECF8"/>
<path d="M76.8049 14.5627C74.9256 14.5627 73.3141 14.8791 71.9703 15.5145C70.6242 16.1474 69.5531 17.053 68.7546 18.2263C68.5477 18.5306 68.426 18.8008 68.3943 19.0369C68.331 19.4824 68.5988 19.8354 69.1977 20.0934L71.0258 20.8675C71.335 21.0087 71.5833 21.0793 71.7707 21.0793C71.9825 21.0793 72.1675 21.0209 72.3233 20.9041C72.4816 20.7872 72.6739 20.5876 72.9003 20.3052C73.6792 19.4362 74.7163 19.0028 76.0065 19.0028C76.968 19.0028 77.6301 19.2195 77.9928 19.6552C78.3556 20.091 78.4724 20.7531 78.3483 21.6441L78.229 22.4888C77.1822 22.4182 76.3546 22.3841 75.7435 22.3841C73.7474 22.3841 72.1383 22.5594 70.9139 22.9124C69.6894 23.2653 68.7376 23.8569 68.0584 24.6918C67.3768 25.5244 66.9338 26.671 66.7293 28.1267C66.5443 29.4412 66.627 30.522 66.9776 31.3668C67.3281 32.2115 68.0657 32.8517 69.1904 33.2874C70.315 33.7207 71.9095 33.9398 73.9762 33.9398C77.0045 33.9398 79.2684 33.6234 80.7655 32.988C81.3108 32.7762 81.6906 32.5352 81.9048 32.265C82.119 31.9948 82.2675 31.5542 82.3552 30.9432L83.6113 21.9971C83.9423 19.6504 83.5942 17.8246 82.5669 16.5198C81.5397 15.2175 79.619 14.5651 76.8025 14.5651L76.8049 14.5627ZM77.2504 29.4266C77.2333 29.5434 77.1408 29.6262 76.968 29.6725C76.2475 29.7893 75.3102 29.8477 74.1612 29.8477C73.2459 29.8477 72.6447 29.6944 72.3598 29.3901C72.075 29.0858 71.9704 28.6501 72.0507 28.0877C72.131 27.523 72.3598 27.0897 72.7445 26.7854C73.1266 26.4811 73.7888 26.3277 74.7284 26.3277C75.3638 26.3277 76.3448 26.3618 77.6715 26.4324L77.2504 29.4266Z" fill="#EEECF8"/>
<path d="M102.282 15.0905H99.5335C99.0637 15.0905 98.7156 15.1854 98.4892 15.3729C98.2628 15.5603 98.1168 15.9011 98.0462 16.3953L96.4127 28.0143C95.5193 28.1798 94.6527 28.2601 93.8056 28.2601C92.7953 28.2601 92.0748 28.0483 91.6415 27.6272C91.2082 27.2036 91.0548 26.5342 91.1838 25.6189L92.4813 16.3928C92.5495 15.8987 92.5057 15.5603 92.3426 15.3704C92.1819 15.183 91.8533 15.088 91.3615 15.088H88.6497C88.1555 15.088 87.8026 15.183 87.5883 15.3704C87.3741 15.5579 87.2329 15.8987 87.1623 16.3928L85.8405 25.7942C85.5094 28.1433 85.8843 29.9447 86.9652 31.2008C88.0436 32.4569 89.8644 33.085 92.4229 33.085C93.7618 33.085 94.8645 33.0022 95.7336 32.8391L95.5315 34.2826C95.4 35.2223 95.0568 35.938 94.5067 36.4297C93.9565 36.9239 93.2335 37.1697 92.3426 37.1697C91.639 37.1697 91.0791 37.0578 90.6629 36.8362C90.249 36.6123 89.9082 36.2788 89.6429 35.8333C89.3386 35.3172 89.0002 35.0592 88.6253 35.0592C88.3673 35.0592 88.0484 35.1517 87.6711 35.3416L85.5192 36.3615C84.8887 36.6658 84.543 37.0432 84.4797 37.4886C84.4359 37.7929 84.5089 38.1094 84.6988 38.4405C85.7748 40.6484 88.1312 41.7511 91.7705 41.7511C94.5407 41.7511 96.6708 41.0525 98.1581 39.6552C99.6455 38.2579 100.561 36.3372 100.904 33.8956L103.363 16.3928C103.431 15.8987 103.385 15.5603 103.224 15.3704C103.063 15.183 102.747 15.088 102.277 15.088L102.282 15.0905Z" fill="#EEECF8"/>
<path d="M120.596 28.192H111.509L114.087 9.84214C114.162 9.30172 114.109 8.92684 113.929 8.71505C113.746 8.50327 113.386 8.39859 112.845 8.39859H109.992C109.452 8.39859 109.062 8.50327 108.821 8.71505C108.58 8.92684 108.422 9.30172 108.347 9.84214L105.238 31.9604C105.163 32.5008 105.216 32.8757 105.396 33.0874C105.579 33.2992 105.939 33.4039 106.48 33.4039H119.863C120.404 33.4039 120.793 33.2992 121.034 33.0874C121.275 32.8757 121.434 32.5008 121.509 31.9604L121.84 29.6015C121.916 29.0611 121.862 28.6911 121.679 28.4915C121.497 28.2918 121.134 28.192 120.594 28.192H120.596Z" fill="#EEECF8"/>
<path d="M134.021 14.5627C132.141 14.5627 130.53 14.8791 129.186 15.5145C127.84 16.1474 126.769 17.053 125.97 18.2263C125.764 18.5306 125.642 18.8008 125.61 19.0369C125.547 19.4824 125.815 19.8354 126.413 20.0934L128.242 20.8675C128.551 21.0087 128.799 21.0793 128.987 21.0793C129.198 21.0793 129.383 21.0209 129.539 20.9041C129.697 20.7872 129.89 20.5876 130.116 20.3052C130.895 19.4362 131.932 19.0028 133.222 19.0028C134.184 19.0028 134.846 19.2195 135.209 19.6552C135.571 20.091 135.688 20.7531 135.564 21.6441L135.445 22.4888C134.398 22.4182 133.57 22.3841 132.959 22.3841C130.963 22.3841 129.354 22.5594 128.13 22.9124C126.905 23.2653 125.953 23.8569 125.274 24.6918C124.593 25.5244 124.15 26.671 123.945 28.1267C123.76 29.4412 123.843 30.522 124.193 31.3668C124.544 32.2115 125.282 32.8517 126.406 33.2874C127.531 33.7207 129.125 33.9398 131.192 33.9398C134.22 33.9398 136.484 33.6234 137.981 32.988C138.527 32.7762 138.906 32.5352 139.121 32.265C139.335 31.9948 139.486 31.5542 139.571 30.9432L140.827 21.9971C141.158 19.6504 140.81 17.8246 139.783 16.5198C138.755 15.2175 136.835 14.5651 134.018 14.5651L134.021 14.5627ZM134.466 29.4266C134.449 29.5434 134.357 29.6262 134.184 29.6725C133.463 29.7893 132.526 29.8477 131.377 29.8477C130.462 29.8477 129.86 29.6944 129.576 29.3901C129.291 29.0858 129.186 28.6501 129.267 28.0877C129.347 27.523 129.576 27.0897 129.96 26.7854C130.342 26.4811 131.005 26.3277 131.944 26.3277C132.58 26.3277 133.561 26.3618 134.887 26.4324L134.466 29.4266Z" fill="#EEECF8"/>
<path d="M155.059 15.0909H151.782L152.194 12.1673C152.262 11.6731 152.215 11.3347 152.055 11.1448C151.894 10.9574 151.578 10.8625 151.108 10.8625H148.362C147.892 10.8625 147.544 10.9574 147.318 11.1448C147.091 11.3323 146.943 11.6731 146.875 12.1673L146.463 15.0909H144.596C144.102 15.0909 143.749 15.1858 143.535 15.3732C143.32 15.5607 143.179 15.9015 143.109 16.3957L142.812 18.5087C142.746 18.9785 142.792 19.312 142.953 19.5116C143.114 19.7112 143.44 19.811 143.931 19.811H145.799L145.012 25.4099C144.723 27.4767 144.779 29.0858 145.18 30.2348C145.582 31.3862 146.366 32.2017 147.529 32.6837C148.695 33.1657 150.334 33.4067 152.447 33.4067C152.941 33.4067 153.294 33.3069 153.511 33.1073C153.727 32.9076 153.871 32.5498 153.944 32.0337L154.255 29.8161C154.328 29.3 154.285 28.947 154.122 28.7596C153.961 28.5721 153.632 28.4772 153.14 28.4772C152.296 28.4772 151.66 28.3944 151.237 28.2313C150.813 28.0682 150.531 27.7493 150.385 27.2795C150.239 26.8097 150.231 26.1183 150.361 25.2006L151.118 19.811H154.394C154.864 19.811 155.207 19.7112 155.421 19.5116C155.638 19.312 155.779 18.9785 155.845 18.5087L156.142 16.3957C156.21 15.9015 156.166 15.5631 156.003 15.3732C155.843 15.1858 155.526 15.0909 155.056 15.0909H155.059Z" fill="#EEECF8"/>
<path d="M188.499 15.3734C188.338 15.1859 188.01 15.091 187.518 15.091H186.391C183.713 15.091 181.396 15.4561 179.441 16.184C178.847 16.3958 178.438 16.6416 178.209 16.924C177.98 17.2064 177.827 17.6397 177.744 18.2264L175.794 32.102C175.726 32.5962 175.777 32.9345 175.95 33.1244C176.123 33.3118 176.444 33.4068 176.914 33.4068H179.66C180.13 33.4068 180.471 33.3143 180.685 33.1244C180.899 32.937 181.04 32.5962 181.111 32.102L182.764 20.3394C182.783 20.1982 182.866 20.1154 183.01 20.0935C183.759 19.9304 184.607 19.8476 185.544 19.8476H186.846C187.34 19.8476 187.693 19.7551 187.908 19.5652C188.122 19.3778 188.263 19.0492 188.329 18.5793L188.635 16.3958C188.704 15.9016 188.657 15.5632 188.497 15.3734H188.499Z" fill="#EEECF8"/>
<path d="M172.487 16.0008C171.15 15.0271 169.354 14.5402 167.1 14.5402C164.376 14.5402 162.197 15.1634 160.561 16.4073C158.925 17.6512 157.937 19.4356 157.596 21.7604L156.992 25.6699C156.9 26.4221 156.866 27.0672 156.883 27.6076C156.948 29.5088 157.589 31.0351 158.803 32.1866C160.018 33.338 161.846 33.9125 164.288 33.9125C168.21 33.9125 170.965 32.8438 172.56 30.7065C172.874 30.3073 173.025 29.9324 173.013 29.5794C173 29.2264 172.767 28.91 172.311 28.6276L170.729 27.7123C170.345 27.4786 170.035 27.3593 169.802 27.3593C169.614 27.3593 169.429 27.425 169.244 27.5541C169.062 27.6831 168.845 27.8778 168.597 28.1359C167.759 29.0755 166.532 29.5453 164.914 29.5453C163.105 29.5453 162.177 28.854 162.129 27.4664C162.124 27.3252 162.138 27.0915 162.175 26.7629L162.263 26.2687C163.485 26.315 164.39 26.3393 164.977 26.3393C167.771 26.3393 169.999 25.9523 171.664 25.1782C173.327 24.404 174.278 23.0652 174.517 21.164C174.573 20.7647 174.595 20.3899 174.583 20.0369C174.522 18.3231 173.823 16.9794 172.487 16.0057V16.0008ZM169.322 20.6309C169.208 21.3587 168.743 21.8578 167.93 22.128C167.117 22.3982 165.972 22.5321 164.492 22.5321C163.74 22.5321 163.175 22.5101 162.801 22.4615L162.91 21.5802C163.068 20.7112 163.465 20.0247 164.105 19.5208C164.746 19.0169 165.568 18.7637 166.579 18.7637C167.589 18.7637 168.288 18.922 168.743 19.2384C169.2 19.5549 169.393 20.0198 169.32 20.6309H169.322Z" fill="#EEECF8"/>
</svg>
