<svg width="16" height="16" viewBox="0 0 16 16" fill="none" xmlns="http://www.w3.org/2000/svg">
<path d="M0.534271 1.303e-05C0.23883 1.303e-05 0 0.240726 0 0.5374V3.92253C0 4.2192 0.23883 4.45903 0.534271 4.45903V4.45992C0.829712 4.45903 1.06854 4.2192 1.06854 3.92253L1.06943 1.07404H3.90518C4.20062 1.07404 4.44033 0.833324 4.44033 0.537537C4.44033 0.240864 4.20062 0.000150732 3.90518 0.000150732L0.534271 1.303e-05ZM15.4646 1.303e-05H12.0935C11.7981 1.303e-05 11.5584 0.240726 11.5584 0.5374C11.5584 0.833187 11.7981 1.0739 12.0935 1.0739H14.9302V3.92239C14.9302 4.21907 15.169 4.45889 15.4645 4.45889V4.45978C15.7599 4.45889 15.9996 4.21907 15.9996 3.92239V0.537265C15.9996 0.240591 15.76 1.303e-05 15.4646 1.303e-05ZM3.30911 3.27395L5.99111 3.27484V5.96802H3.30911V3.27395ZM10.0078 3.27395L12.6898 3.27484V5.96802H10.0078V3.27395ZM2.77402 2.20006C2.6325 2.20006 2.49627 2.25691 2.39632 2.35728C2.29636 2.45854 2.23975 2.59533 2.23975 2.73745V6.50528C2.23975 6.64739 2.29636 6.78419 2.39632 6.88456C2.49627 6.98582 2.6325 7.04178 2.77402 7.04178V7.04267L6.52619 7.04178C6.82163 7.04178 7.06046 6.80106 7.06046 6.50439V2.73748C7.06046 2.4408 6.82163 2.20098 6.52619 2.20098L2.77402 2.20006ZM9.47268 2.20006C9.33115 2.20006 9.19492 2.25691 9.09497 2.35728C8.99501 2.45854 8.9384 2.59533 8.9384 2.73745V6.50528C8.9384 6.64739 8.99501 6.78419 9.09497 6.88456C9.19492 6.98582 9.33115 7.04178 9.47268 7.04178V7.04267L13.2248 7.04178C13.5203 7.04178 13.7591 6.80106 13.7591 6.50439V2.73748C13.7591 2.4408 13.5203 2.20098 13.2248 2.20098L9.47268 2.20006ZM4.2964 8.95782H4.29552C4.00096 8.95782 3.76213 9.19853 3.76213 9.49432V9.4952C3.76213 9.79099 4.00096 10.0317 4.2964 10.0317C4.59184 10.0317 4.83156 9.79099 4.83156 9.4952V9.49432C4.83156 9.19764 4.59184 8.95782 4.2964 8.95782ZM5.90184 8.95782L5.90096 8.9587H5.90007C5.60552 8.9587 5.36933 9.19853 5.36933 9.49432C5.36933 9.79099 5.60817 10.0317 5.90361 10.0317H5.99118V11.682C5.99118 11.9787 6.23089 12.2194 6.52633 12.2194C6.82177 12.2194 7.0606 11.9787 7.0606 11.682V9.49432C7.0606 9.19853 6.82177 8.95782 6.52633 8.95782L5.90184 8.95782ZM10.0079 10.0317H12.6899V12.7258H10.0079V10.0317ZM9.47279 8.95782C9.33126 8.95782 9.19503 9.01466 9.09508 9.11503C8.99513 9.2154 8.93852 9.3522 8.93852 9.49432V13.2621C8.93852 13.4051 8.99513 13.5411 9.09508 13.6423C9.19503 13.7427 9.33126 13.7995 9.47279 13.7995L13.225 13.7986C13.5204 13.7986 13.7592 13.5588 13.7592 13.2621V9.49523C13.7592 9.19855 13.5204 8.95784 13.225 8.95784L9.47279 8.95782ZM2.77414 9.13369V9.13457C2.4787 9.13369 2.23987 9.3744 2.23987 9.67019V13.2622C2.23987 13.5589 2.47958 13.7996 2.77414 13.7996H4.67325C4.96337 13.7925 5.1969 13.5554 5.1969 13.2622V11.404C5.1969 11.1074 4.95719 10.8675 4.66175 10.8675C4.36631 10.8675 4.12748 11.1074 4.12748 11.404V12.7257H3.30927V9.6701C3.30927 9.37431 3.06958 9.13369 2.77414 9.13369ZM6.52631 12.7257L6.52542 12.7266H6.52454C6.22998 12.7266 5.99115 12.9665 5.99115 13.2622C5.99115 13.5589 6.23086 13.7996 6.5263 13.7996C6.82174 13.7996 7.06057 13.5589 7.06057 13.2622C7.06057 12.9656 6.82175 12.7257 6.52631 12.7257ZM0.534384 11.5408C0.238943 11.5408 0.00011316 11.7816 0.00011316 12.0773V15.4634C0.00011316 15.7592 0.238943 15.9999 0.534384 15.9999H3.90545C4.20089 15.9999 4.4406 15.7592 4.4406 15.4634C4.4406 15.1667 4.20089 14.926 3.90545 14.926H1.0697L1.06881 12.0775C1.06881 11.7808 0.829825 11.5408 0.534384 11.5408ZM15.4647 11.5408C15.1693 11.5408 14.9304 11.7807 14.9304 12.0773V14.9258H12.0938C11.7983 14.9258 11.5586 15.1665 11.5586 15.4632C11.5586 15.759 11.7983 15.9997 12.0938 15.9997H15.4648C15.7603 15.9997 16 15.759 16 15.4632V12.0772C16 11.7814 15.7602 11.5408 15.4647 11.5408Z" fill="#291F5B"/>
</svg>

