<svg width="490" height="431" viewBox="0 0 490 431" fill="none" xmlns="http://www.w3.org/2000/svg">
<g filter="url(#filter0_d_1333_4467)">
<path d="M81.9728 340.839C56.8201 344.715 41.5867 334.188 38.9743 316.443L62.4502 312.825C64.1206 322.867 71.7867 323.28 80.2907 321.969C87.5969 320.843 91.9449 317.23 91.2618 312.798C90.7265 309.325 88.2657 306.884 72.3442 307.008C48.2132 307.171 37.5691 299.37 35.1877 283.919C32.8986 269.067 43.804 255.492 67.0403 251.911C88.9591 248.532 104.33 255.973 108.389 275.947L85.3927 279.492C83.8149 271.642 78.544 269.266 69.9202 270.596C63.2128 271.629 59.307 274.929 59.9347 279.001C60.507 282.714 63.9629 285.247 77.5532 285.115C103.997 284.84 113.793 291.914 116.138 307.125C119.091 326.289 103.532 337.516 81.9728 340.839ZM109.274 246.873L131.791 243.402L141.889 308.919C142.388 312.153 143.605 313.682 147.916 313.018L155.822 311.799L158.258 327.609L143.766 329.843C133.705 331.394 122.325 331.554 119.704 314.546L109.274 246.873ZM200.815 321.05L199.873 314.942C195.591 321.365 189.897 324.204 181.513 325.497C168.577 327.49 157.464 322.214 155.507 309.518C153.79 298.379 159.741 292.434 178.665 286.329L194.207 281.359L193.948 279.682C193.505 276.807 192.233 273.325 185.046 274.433C179.058 275.356 177.456 279.281 177.899 282.156L155.62 285.589C153.405 271.216 164.643 261.391 182.37 258.659C202.492 255.558 213.716 261.553 215.562 273.53L222.374 317.727L200.815 321.05ZM178.255 305.153C178.809 308.747 182.016 310.46 186.807 309.721C193.155 308.743 197.881 305.194 196.736 297.768L196.164 294.055L185.357 297.928C179.774 299.892 177.701 301.56 178.255 305.153ZM254.217 314.291C235.293 317.208 223.065 313.452 219.44 297.089L240.76 293.803C242.595 300.142 247.027 301.053 253.255 300.093C257.328 299.465 261.04 297.299 260.597 294.424C260.154 291.55 258.394 290.472 246.582 290.208C225.906 289.716 218.257 284.641 216.632 274.101C214.602 260.926 224.771 252.124 243.456 249.244C264.776 245.958 274.517 254.266 277.036 266.631L256.914 269.732C255.641 263.062 250.167 262.556 245.616 263.258C240.585 264.033 237.748 266.31 238.191 269.184C238.634 272.059 241.371 273.109 253.128 273.013C273.693 272.786 280.891 278.912 282.515 289.452C284.546 302.627 272.902 311.411 254.217 314.291ZM287.036 307.761L273.744 221.523L296.262 218.053L301.099 249.434C304.617 243.619 310.273 238.946 318.537 237.672C330.754 235.789 341.766 241.204 344.868 261.326L350.517 297.977L327.999 301.448L322.793 267.671C321.907 261.922 319.574 257.131 312.388 258.239C305.202 259.347 303.535 265.244 304.422 270.993L309.554 304.291L287.036 307.761ZM386.941 293.834C365.142 297.194 351.465 284.833 348.622 266.388C345.779 247.942 355.099 232.037 376.898 228.677C398.697 225.317 412.19 236.481 415.679 259.118L416.232 262.711L371.197 269.652C373.751 275.88 378.359 278.726 384.467 277.785C390.576 276.843 393.21 274.843 394.886 271.397L416.086 268.129C413.916 281.094 403.949 291.213 386.941 293.834ZM369.249 256.219L392.486 252.638C389.969 246.65 385.361 243.804 379.372 244.727C373.383 245.65 369.846 249.751 369.249 256.219ZM422.845 286.829L413.245 224.546L435.284 221.15L437.019 232.408C438.998 223.765 444.276 219.028 452.42 217.773L457.691 216.96L460.81 237.202L454.343 238.199C443.802 239.824 439.455 245.031 441.449 257.966L445.362 283.359L422.845 286.829Z" fill="#EEECF8"/>
<path d="M38.9743 316.443L37.6639 307.941L30.4637 317.696L38.9743 316.443ZM62.4502 312.825L70.9359 311.413L61.1398 304.323L62.4502 312.825ZM72.3442 307.008L72.4024 315.61L72.4113 315.61L72.3442 307.008ZM108.389 275.947L109.7 284.449L116.819 274.234L108.389 275.947ZM85.3927 279.492L76.959 281.187L86.7031 287.994L85.3927 279.492ZM77.5532 285.115L77.6373 293.716L77.6425 293.716L77.5532 285.115ZM81.9728 340.839L80.6624 332.337C69.4127 334.071 61.5071 332.407 56.4453 329.372C51.5837 326.456 48.4521 321.76 47.4849 315.19L38.9743 316.443L30.4637 317.696C32.1089 328.871 37.9002 338.311 47.5966 344.126C57.0927 349.821 69.3802 351.483 83.2832 349.341L81.9728 340.839ZM38.9743 316.443L40.2847 324.945L63.7606 321.327L62.4502 312.825L61.1398 304.323L37.6639 307.941L38.9743 316.443ZM62.4502 312.825L53.9644 314.236C54.5532 317.776 55.7741 321.084 57.8962 323.878C60.0649 326.733 62.8366 328.603 65.7896 329.71C71.2341 331.75 77.2368 331.144 81.6011 330.471L80.2907 321.969L78.9803 313.467C77.0728 313.761 75.4996 313.911 74.2003 313.903C72.8895 313.896 72.1677 313.727 71.8261 313.599C71.5908 313.511 71.6012 313.477 71.597 313.471C71.5462 313.405 71.1824 312.895 70.9359 311.413L62.4502 312.825ZM80.2907 321.969L81.6011 330.471C86.2188 329.759 90.7836 328.149 94.2839 325.228C97.9994 322.127 100.658 317.291 99.7638 311.488L91.2618 312.798L82.7599 314.109C82.6834 313.613 82.7511 313.026 82.9738 312.514C83.1742 312.052 83.3817 311.918 83.2606 312.019C82.9311 312.294 81.6689 313.053 78.9803 313.467L80.2907 321.969ZM91.2618 312.798L99.7638 311.488C99.5009 309.782 98.8796 307.412 97.1169 305.139C95.3574 302.87 93.0423 301.442 90.6638 300.526C86.3418 298.862 80.3009 298.343 72.2772 298.406L72.3442 307.008L72.4113 315.61C76.1987 315.581 78.9853 315.707 81.0247 315.925C83.1091 316.149 84.111 316.439 84.4819 316.582C84.7757 316.695 84.1712 316.521 83.5213 315.682C82.868 314.84 82.7551 314.078 82.7599 314.109L91.2618 312.798ZM72.3442 307.008L72.286 298.406C60.9289 298.483 54.2085 296.633 50.2789 294.094C46.795 291.843 44.5913 288.459 43.6896 282.609L35.1877 283.919L26.6857 285.23C28.1655 294.83 32.4745 303.073 40.9409 308.544C48.9614 313.727 59.6286 315.697 72.4024 315.61L72.3442 307.008ZM35.1877 283.919L43.6896 282.609C42.9507 277.815 44.2675 273.357 47.8161 269.574C51.5028 265.643 58.0709 261.997 68.3507 260.413L67.0403 251.911L65.7299 243.409C52.7734 245.406 42.2706 250.338 35.2679 257.803C28.1269 265.416 25.1355 275.171 26.6857 285.23L35.1877 283.919ZM67.0403 251.911L68.3507 260.413C78.217 258.892 85.4039 260.011 90.2378 262.694C94.7667 265.207 98.3421 269.703 99.9595 277.661L108.389 275.947L116.819 274.234C114.377 262.218 108.237 253.006 98.5863 247.65C89.2403 242.463 77.7825 241.551 65.7299 243.409L67.0403 251.911ZM108.389 275.947L107.079 267.446L84.0823 270.99L85.3927 279.492L86.7031 287.994L109.7 284.449L108.389 275.947ZM85.3927 279.492L93.8263 277.797C92.6895 272.141 89.8458 266.999 84.406 264.043C79.4006 261.323 73.6956 261.31 68.6098 262.094L69.9202 270.596L71.2306 279.098C74.7686 278.552 76.011 279.062 76.1914 279.16C76.2032 279.167 76.225 279.162 76.3146 279.299C76.4394 279.491 76.7265 280.03 76.959 281.187L85.3927 279.492ZM69.9202 270.596L68.6098 262.094C64.2955 262.759 59.9702 264.269 56.6336 267.081C53.0621 270.09 50.5772 274.761 51.4328 280.312L59.9347 279.001L68.4366 277.691C68.5214 278.241 68.4535 278.894 68.2008 279.487C67.968 280.034 67.6973 280.256 67.7199 280.237C67.7523 280.21 68.01 280.01 68.629 279.763C69.2377 279.52 70.0973 279.272 71.2306 279.098L69.9202 270.596ZM59.9347 279.001L51.4328 280.312C51.7608 282.44 52.5829 284.806 54.3472 286.973C56.0769 289.098 58.2909 290.513 60.5971 291.459C64.8987 293.224 70.6079 293.785 77.6373 293.716L77.5532 285.115L77.4692 276.513C70.9082 276.577 68.0943 275.938 67.1273 275.542C66.7992 275.407 67.1925 275.501 67.6885 276.11C68.2193 276.762 68.3947 277.419 68.4366 277.691L59.9347 279.001ZM77.5532 285.115L77.6425 293.716C90.4058 293.584 97.4901 295.304 101.451 297.685C104.743 299.664 106.739 302.62 107.636 308.435L116.138 307.125L124.64 305.815C123.191 296.419 119.118 288.232 110.315 282.94C102.18 278.05 91.1443 276.371 77.464 276.513L77.5532 285.115ZM116.138 307.125L107.636 308.435C108.658 315.068 106.615 319.802 102.48 323.54C97.9573 327.628 90.4967 330.821 80.6624 332.337L81.9728 340.839L83.2832 349.341C95.0083 347.533 106.107 343.452 114.016 336.304C122.311 328.807 126.571 318.346 124.64 305.815L116.138 307.125ZM109.274 246.873L107.963 238.371L100.772 248.183L109.274 246.873ZM131.791 243.402L140.293 242.092L130.481 234.9L131.791 243.402ZM155.822 311.799L164.323 310.489L154.511 303.297L155.822 311.799ZM158.258 327.609L159.569 336.111L166.76 326.299L158.258 327.609ZM109.274 246.873L110.584 255.375L133.102 251.904L131.791 243.402L130.481 234.9L107.963 238.371L109.274 246.873ZM131.791 243.402L123.29 244.713L133.388 310.229L141.889 308.919L150.391 307.609L140.293 242.092L131.791 243.402ZM141.889 308.919L133.388 310.229C133.695 312.223 134.515 316.364 138.195 319.223C141.961 322.149 146.366 321.96 149.227 321.52L147.916 313.018L146.606 304.516C146.018 304.606 146.026 304.539 146.401 304.591C146.861 304.654 147.788 304.89 148.751 305.637C149.704 306.378 150.163 307.21 150.344 307.633C150.491 307.978 150.462 308.067 150.391 307.609L141.889 308.919ZM147.916 313.018L149.227 321.52L157.132 320.301L155.822 311.799L154.511 303.297L146.606 304.516L147.916 313.018ZM155.822 311.799L147.32 313.11L149.756 328.92L158.258 327.609L166.76 326.299L164.323 310.489L155.822 311.799ZM158.258 327.609L156.948 319.107L142.455 321.341L143.766 329.843L145.076 338.345L159.569 336.111L158.258 327.609ZM143.766 329.843L142.455 321.341C137.429 322.116 134.289 322.082 132.324 321.243C131.364 320.833 129.201 319.692 128.206 313.235L119.704 314.546L111.202 315.856C112.828 326.407 117.666 333.69 125.566 337.065C132.462 340.01 140.041 339.121 145.076 338.345L143.766 329.843ZM119.704 314.546L128.206 313.235L117.776 245.562L109.274 246.873L100.772 248.183L111.202 315.856L119.704 314.546ZM200.815 321.05L192.313 322.361L202.125 329.552L200.815 321.05ZM199.873 314.942L208.375 313.631L192.716 310.17L199.873 314.942ZM178.665 286.329L176.044 278.136L176.023 278.143L178.665 286.329ZM194.207 281.359L196.827 289.552L202.709 280.049L194.207 281.359ZM177.899 282.156L179.209 290.658L186.401 280.845L177.899 282.156ZM155.62 285.589L147.119 286.9L156.931 294.091L155.62 285.589ZM222.374 317.727L223.685 326.229L230.876 316.417L222.374 317.727ZM196.164 294.055L204.666 292.745L193.262 285.957L196.164 294.055ZM185.357 297.928L188.212 306.043L188.259 306.026L185.357 297.928ZM200.815 321.05L209.317 319.74L208.375 313.631L199.873 314.942L191.371 316.252L192.313 322.361L200.815 321.05ZM199.873 314.942L192.716 310.17C190.16 314.004 186.991 315.949 180.203 316.995L181.513 325.497L182.824 333.999C192.804 332.46 201.022 328.726 207.031 319.714L199.873 314.942ZM181.513 325.497L180.203 316.995C175.128 317.777 171.203 317.002 168.668 315.551C166.385 314.244 164.604 312.066 164.009 308.207L155.507 309.518L147.005 310.828C148.368 319.666 153.121 326.474 160.118 330.481C166.863 334.343 174.962 335.21 182.824 333.999L181.513 325.497ZM155.507 309.518L164.009 308.207C163.472 304.723 164.135 303.413 165.431 302.116C167.512 300.034 171.993 297.52 181.306 294.516L178.665 286.329L176.023 278.143C166.412 281.243 158.457 284.755 153.26 289.956C147.279 295.942 145.826 303.174 147.005 310.828L155.507 309.518ZM178.665 286.329L181.285 294.523L196.827 289.552L194.207 281.359L191.587 273.165L176.044 278.136L178.665 286.329ZM194.207 281.359L202.709 280.049L202.45 278.372L193.948 279.682L185.446 280.992L185.705 282.669L194.207 281.359ZM193.948 279.682L202.45 278.372C202.167 276.531 201.367 272.245 197.629 269.036C193.669 265.638 188.569 265.186 183.736 265.931L185.046 274.433L186.357 282.935C187.487 282.76 187.887 282.849 187.804 282.833C187.641 282.802 187.061 282.638 186.424 282.092C185.813 281.567 185.528 281.015 185.427 280.77C185.349 280.58 185.383 280.578 185.446 280.992L193.948 279.682ZM185.046 274.433L183.736 265.931C178.986 266.663 174.884 268.8 172.183 272.396C169.559 275.888 168.859 279.978 169.397 283.466L177.899 282.156L186.401 280.845C186.495 281.459 186.375 282.148 185.939 282.729C185.722 283.017 185.525 283.141 185.491 283.16C185.472 283.17 185.708 283.035 186.357 282.935L185.046 274.433ZM177.899 282.156L176.588 273.654L154.31 277.088L155.62 285.589L156.931 294.091L179.209 290.658L177.899 282.156ZM155.62 285.589L164.122 284.279C163.449 279.908 164.714 276.635 167.499 273.941C170.569 270.971 175.935 268.355 183.68 267.161L182.37 258.659L181.06 250.157C171.079 251.696 161.962 255.359 155.535 261.577C148.823 268.071 145.577 276.898 147.119 286.9L155.62 285.589ZM182.37 258.659L183.68 267.161C192.878 265.744 198.773 266.634 202.162 268.226C205.061 269.588 206.563 271.615 207.06 274.841L215.562 273.53L224.064 272.22C222.716 263.469 217.683 256.509 209.478 252.654C201.763 249.03 191.984 248.474 181.06 250.157L182.37 258.659ZM215.562 273.53L207.06 274.841L213.872 319.038L222.374 317.727L230.876 316.417L224.064 272.22L215.562 273.53ZM222.374 317.727L221.064 309.225L199.505 312.548L200.815 321.05L202.125 329.552L223.685 326.229L222.374 317.727ZM178.255 305.153L169.753 306.464C170.421 310.8 172.912 314.525 176.889 316.649C180.534 318.596 184.586 318.767 188.117 318.223L186.807 309.721L185.496 301.219C184.236 301.413 184.29 301.097 184.995 301.474C185.393 301.686 185.852 302.053 186.222 302.588C186.587 303.114 186.718 303.589 186.757 303.843L178.255 305.153ZM186.807 309.721L188.117 318.223C192.334 317.573 197.2 315.914 200.832 312.072C204.784 307.892 206.145 302.34 205.238 296.458L196.736 297.768L188.234 299.078C188.369 299.952 188.273 300.324 188.263 300.359C188.257 300.381 188.261 300.36 188.284 300.319C188.295 300.301 188.305 300.284 188.315 300.271C188.325 300.258 188.331 300.252 188.33 300.253C188.298 300.286 187.628 300.891 185.496 301.219L186.807 309.721ZM196.736 297.768L205.238 296.458L204.666 292.745L196.164 294.055L187.662 295.365L188.234 299.078L196.736 297.768ZM196.164 294.055L193.262 285.957L182.455 289.83L185.357 297.928L188.259 306.026L199.066 302.153L196.164 294.055ZM185.357 297.928L182.502 289.813C179.702 290.798 176.146 292.204 173.517 294.753C172.015 296.21 170.766 298.068 170.093 300.357C169.441 302.573 169.479 304.682 169.753 306.464L178.255 305.153L186.757 303.843C186.755 303.828 186.843 304.381 186.599 305.212C186.333 306.116 185.848 306.761 185.492 307.106C185.221 307.369 185.161 307.326 185.682 307.064C186.188 306.809 186.98 306.476 188.212 306.043L185.357 297.928ZM219.44 297.089L218.129 288.587L211.041 298.95L219.44 297.089ZM240.76 293.803L249.022 291.411L239.449 285.301L240.76 293.803ZM246.582 290.208L246.377 298.808L246.39 298.808L246.582 290.208ZM277.036 266.631L278.347 275.133L285.465 264.914L277.036 266.631ZM256.914 269.732L248.464 271.345L258.224 278.234L256.914 269.732ZM253.128 273.013L253.198 281.615L253.223 281.615L253.128 273.013ZM254.217 314.291L252.907 305.789C243.973 307.166 238.19 306.666 234.594 305.063C231.682 303.764 229.183 301.299 227.838 295.228L219.44 297.089L211.041 298.95C213.322 309.242 218.749 316.836 227.588 320.777C235.744 324.413 245.537 324.333 255.528 322.793L254.217 314.291ZM219.44 297.089L220.75 305.591L242.07 302.305L240.76 293.803L239.449 285.301L218.129 288.587L219.44 297.089ZM240.76 293.803L232.497 296.196C233.949 301.213 236.95 305.455 241.993 307.601C246.392 309.472 251.052 309.136 254.566 308.595L253.255 300.093L251.945 291.591C250.706 291.782 249.843 291.832 249.255 291.81C248.679 291.788 248.575 291.704 248.727 291.769C248.949 291.863 249.187 292.045 249.323 292.215C249.416 292.331 249.244 292.175 249.022 291.411L240.76 293.803ZM253.255 300.093L254.566 308.595C257.522 308.139 260.834 307.075 263.594 305.119C266.261 303.229 270.03 299.153 269.099 293.114L260.597 294.424L252.095 295.735C251.882 294.353 252.219 293.087 252.724 292.196C253.163 291.42 253.621 291.1 253.645 291.083C253.694 291.048 253.568 291.142 253.212 291.273C252.871 291.399 252.435 291.515 251.945 291.591L253.255 300.093ZM260.597 294.424L269.099 293.114C268.877 291.675 268.336 289.365 266.571 287.181C264.799 284.991 262.541 283.837 260.589 283.182C257.184 282.039 252.488 281.736 246.774 281.608L246.582 290.208L246.39 298.808C249.248 298.872 251.323 298.982 252.838 299.134C253.586 299.208 254.137 299.287 254.533 299.36C254.729 299.396 254.872 299.428 254.972 299.453C255.072 299.478 255.116 299.493 255.116 299.493C255.116 299.492 255.058 299.473 254.958 299.427C254.856 299.381 254.704 299.304 254.517 299.187C254.124 298.942 253.643 298.556 253.192 297.999C252.25 296.834 252.095 295.736 252.095 295.735L260.597 294.424ZM246.582 290.208L246.786 281.608C236.818 281.371 231.491 280.009 228.685 278.428C226.631 277.271 225.609 275.872 225.134 272.791L216.632 274.101L208.13 275.412C209.28 282.871 212.895 289.279 220.24 293.418C226.834 297.132 235.67 298.553 246.377 298.808L246.582 290.208ZM216.632 274.101L225.134 272.791C224.556 269.042 225.583 266.433 228.065 264.175C230.953 261.547 236.298 259.051 244.767 257.746L243.456 249.244L242.146 240.742C231.929 242.317 222.847 245.662 216.487 251.449C209.72 257.606 206.677 265.985 208.13 275.412L216.632 274.101ZM243.456 249.244L244.767 257.746C254.279 256.28 259.808 257.628 262.908 259.467C265.798 261.181 267.721 263.997 268.607 268.348L277.036 266.631L285.465 264.914C283.833 256.9 279.626 249.379 271.685 244.67C263.955 240.085 253.953 238.922 242.146 240.742L243.456 249.244ZM277.036 266.631L275.726 258.129L255.604 261.23L256.914 269.732L258.224 278.234L278.347 275.133L277.036 266.631ZM256.914 269.732L265.364 268.119C264.23 262.178 260.779 257.861 255.799 255.788C251.526 254.01 247.133 254.32 244.306 254.756L245.616 263.258L246.926 271.76C247.68 271.644 248.284 271.609 248.735 271.629C249.191 271.65 249.3 271.719 249.189 271.672C249.122 271.645 249.002 271.585 248.858 271.479C248.711 271.37 248.581 271.242 248.479 271.112C248.26 270.832 248.358 270.786 248.464 271.345L256.914 269.732ZM245.616 263.258L244.306 254.756C240.951 255.273 237.36 256.412 234.48 258.715C231.327 261.235 228.903 265.392 229.689 270.495L238.191 269.184L246.693 267.874C246.831 268.768 246.714 269.766 246.307 270.673C245.926 271.523 245.434 271.984 245.222 272.153C245.021 272.314 245.004 272.271 245.328 272.148C245.639 272.03 246.16 271.878 246.926 271.76L245.616 263.258ZM238.191 269.184L229.689 270.495C230.007 272.555 230.884 275.005 232.985 277.1C234.925 279.035 237.233 279.982 239.128 280.505C242.649 281.477 247.415 281.662 253.198 281.615L253.128 273.013L253.058 264.411C250.224 264.434 248.089 264.386 246.478 264.277C244.818 264.164 244.011 264.004 243.706 263.92C243.392 263.834 244.198 263.985 245.133 264.917C246.229 266.01 246.597 267.251 246.693 267.874L238.191 269.184ZM253.128 273.013L253.223 281.615C262.911 281.508 267.894 282.966 270.409 284.517C272.351 285.714 273.489 287.357 274.014 290.762L282.515 289.452L291.017 288.141C289.918 281.006 286.645 274.317 279.44 269.873C272.808 265.783 263.91 264.291 253.033 264.411L253.128 273.013ZM282.515 289.452L274.014 290.762C274.524 294.072 273.542 296.67 270.595 299.151C267.263 301.955 261.406 304.479 252.907 305.789L254.217 314.291L255.528 322.793C265.714 321.223 275.021 317.915 281.675 312.313C288.713 306.388 292.538 298.007 291.017 288.141L282.515 289.452ZM287.036 307.761L278.534 309.072L288.346 316.263L287.036 307.761ZM273.744 221.523L272.434 213.021L265.242 222.834L273.744 221.523ZM296.262 218.053L304.764 216.742L294.952 209.551L296.262 218.053ZM301.099 249.434L292.597 250.744L308.459 253.887L301.099 249.434ZM350.517 297.977L351.827 306.479L359.019 296.667L350.517 297.977ZM327.999 301.448L319.497 302.758L329.309 309.95L327.999 301.448ZM309.554 304.291L310.864 312.793L318.056 302.98L309.554 304.291ZM287.036 307.761L295.538 306.451L282.246 220.213L273.744 221.523L265.242 222.834L278.534 309.072L287.036 307.761ZM273.744 221.523L275.055 230.025L297.572 226.555L296.262 218.053L294.952 209.551L272.434 213.021L273.744 221.523ZM296.262 218.053L287.76 219.363L292.597 250.744L301.099 249.434L309.601 248.123L304.764 216.742L296.262 218.053ZM301.099 249.434L308.459 253.887C310.852 249.93 314.447 247.006 319.848 246.174L318.537 237.672L317.227 229.17C306.098 230.885 298.381 237.307 293.739 244.981L301.099 249.434ZM318.537 237.672L319.848 246.174C324.376 245.476 327.568 246.269 329.837 248.035C332.182 249.861 335.015 253.871 336.366 262.636L344.868 261.326L353.37 260.016C351.619 248.659 347.395 239.901 340.405 234.459C333.338 228.958 324.916 227.985 317.227 229.17L318.537 237.672ZM344.868 261.326L336.366 262.636L342.015 299.287L350.517 297.977L359.019 296.667L353.37 260.016L344.868 261.326ZM350.517 297.977L349.206 289.475L326.689 292.946L327.999 301.448L329.309 309.95L351.827 306.479L350.517 297.977ZM327.999 301.448L336.501 300.137L331.295 266.361L322.793 267.671L314.291 268.982L319.497 302.758L327.999 301.448ZM322.793 267.671L331.295 266.361C330.786 263.057 329.673 258.342 326.361 254.645C322.456 250.284 316.945 248.833 311.078 249.737L312.388 258.239L313.698 266.741C314.515 266.615 314.653 266.74 314.387 266.658C314.255 266.617 314.086 266.544 313.91 266.429C313.737 266.317 313.616 266.202 313.545 266.123C313.421 265.984 313.533 266.049 313.729 266.582C313.925 267.114 314.123 267.893 314.291 268.982L322.793 267.671ZM312.388 258.239L311.078 249.737C304.997 250.674 300.303 253.954 297.734 258.928C295.403 263.442 295.315 268.381 295.92 272.304L304.422 270.993L312.923 269.683C312.794 268.845 312.783 268.149 312.838 267.624C312.893 267.098 313 266.863 313.021 266.823C313.029 266.808 313.018 266.831 312.983 266.872C312.945 266.915 312.907 266.947 312.884 266.963C312.82 267.008 313.003 266.848 313.698 266.741L312.388 258.239ZM304.422 270.993L295.92 272.304L301.052 305.601L309.554 304.291L318.056 302.98L312.923 269.683L304.422 270.993ZM309.554 304.291L308.243 295.789L285.726 299.259L287.036 307.761L288.346 316.263L310.864 312.793L309.554 304.291ZM416.232 262.711L417.543 271.213L424.734 261.401L416.232 262.711ZM371.197 269.652L369.887 261.151L363.238 272.916L371.197 269.652ZM394.886 271.397L393.576 262.895L387.15 267.635L394.886 271.397ZM416.086 268.129L424.571 269.55L414.776 259.627L416.086 268.129ZM369.249 256.219L360.683 255.428L370.56 264.721L369.249 256.219ZM392.486 252.638L393.796 261.14L400.416 249.305L392.486 252.638ZM386.941 293.834L385.631 285.333C376.64 286.718 370.237 284.776 365.902 281.458C361.493 278.082 358.276 272.552 357.124 265.077L348.622 266.388L340.12 267.698C341.811 278.669 346.855 288.543 355.444 295.118C364.108 301.752 375.443 304.311 388.251 302.336L386.941 293.834ZM348.622 266.388L357.124 265.077C355.972 257.603 357.374 251.361 360.563 246.814C363.697 242.345 369.218 238.565 378.209 237.179L376.898 228.677L375.588 220.175C362.779 222.149 352.741 228.002 346.476 236.937C340.266 245.794 338.429 256.727 340.12 267.698L348.622 266.388ZM376.898 228.677L378.209 237.179C387.406 235.761 393.613 237.549 397.798 240.879C402.1 244.304 405.639 250.452 407.177 260.428L415.679 259.118L424.181 257.808C422.229 245.146 417.277 234.394 408.512 227.418C399.628 220.347 388.19 218.233 375.588 220.175L376.898 228.677ZM415.679 259.118L407.177 260.428L407.73 264.022L416.232 262.711L424.734 261.401L424.181 257.808L415.679 259.118ZM416.232 262.711L414.922 254.209L369.887 261.151L371.197 269.652L372.507 278.154L417.543 271.213L416.232 262.711ZM371.197 269.652L363.238 272.916C365.021 277.264 367.836 281.182 371.998 283.738C376.236 286.34 381.04 287.017 385.778 286.287L384.467 277.785L383.157 269.283C381.786 269.494 381.232 269.219 381.001 269.076C380.693 268.887 379.927 268.269 379.156 266.389L371.197 269.652ZM384.467 277.785L385.778 286.287C389.47 285.717 392.963 284.712 395.989 282.767C399.202 280.703 401.239 278.004 402.622 275.159L394.886 271.397L387.15 267.635C386.977 267.991 386.864 268.135 386.829 268.177C386.806 268.204 386.78 268.234 386.689 268.293C386.452 268.445 385.573 268.91 383.157 269.283L384.467 277.785ZM394.886 271.397L396.197 279.899L417.397 276.631L416.086 268.129L414.776 259.627L393.576 262.895L394.886 271.397ZM416.086 268.129L407.602 266.708C406.129 275.504 399.506 283.194 385.631 285.333L386.941 293.834L388.251 302.336C408.392 299.232 421.702 286.683 424.571 269.55L416.086 268.129ZM369.249 256.219L370.56 264.721L393.796 261.14L392.486 252.638L391.175 244.136L367.939 247.717L369.249 256.219ZM392.486 252.638L400.416 249.305C398.625 245.044 395.798 241.228 391.694 238.737C387.522 236.204 382.775 235.498 378.062 236.225L379.372 244.727L380.683 253.229C381.957 253.032 382.51 253.288 382.767 253.444C383.094 253.642 383.829 254.243 384.555 255.971L392.486 252.638ZM379.372 244.727L378.062 236.225C373.348 236.951 369.035 239.053 365.818 242.725C362.655 246.336 361.108 250.826 360.683 255.428L369.249 256.219L377.815 257.01C377.987 255.144 378.508 254.349 378.76 254.062C378.958 253.835 379.408 253.425 380.683 253.229L379.372 244.727ZM422.845 286.829L414.343 288.14L424.155 295.331L422.845 286.829ZM413.245 224.546L411.935 216.044L404.743 225.857L413.245 224.546ZM435.284 221.15L443.786 219.839L433.973 212.648L435.284 221.15ZM437.019 232.408L428.517 233.719L445.404 234.328L437.019 232.408ZM457.691 216.96L466.193 215.65L456.38 208.458L457.691 216.96ZM460.81 237.202L462.121 245.704L469.312 235.892L460.81 237.202ZM445.362 283.359L446.673 291.861L453.864 282.048L445.362 283.359ZM422.845 286.829L431.347 285.519L421.747 223.236L413.245 224.546L404.743 225.857L414.343 288.14L422.845 286.829ZM413.245 224.546L414.556 233.048L436.594 229.652L435.284 221.15L433.973 212.648L411.935 216.044L413.245 224.546ZM435.284 221.15L426.782 222.46L428.517 233.719L437.019 232.408L445.521 231.098L443.786 219.839L435.284 221.15ZM437.019 232.408L445.404 234.328C446.094 231.316 447.198 229.619 448.289 228.598C449.373 227.582 451.022 226.692 453.731 226.275L452.42 217.773L451.11 209.271C445.674 210.109 440.611 212.215 436.526 216.042C432.447 219.864 429.923 224.857 428.634 230.489L437.019 232.408ZM452.42 217.773L453.731 226.275L459.001 225.462L457.691 216.96L456.38 208.458L451.11 209.271L452.42 217.773ZM457.691 216.96L449.189 218.271L452.309 238.513L460.81 237.202L469.312 235.892L466.193 215.65L457.691 216.96ZM460.81 237.202L459.5 228.7L453.032 229.697L454.343 238.199L455.653 246.701L462.121 245.704L460.81 237.202ZM454.343 238.199L453.032 229.697C446.809 230.656 440.245 232.973 436.116 238.954C432.095 244.779 431.829 252.026 432.947 259.277L441.449 257.966L449.951 256.656C449.074 250.971 449.986 249.146 450.275 248.728C450.456 248.466 451.336 247.367 455.653 246.701L454.343 238.199ZM441.449 257.966L432.947 259.277L436.86 284.669L445.362 283.359L453.864 282.048L449.951 256.656L441.449 257.966ZM445.362 283.359L444.052 274.857L421.534 278.327L422.845 286.829L424.155 295.331L446.673 291.861L445.362 283.359Z" fill="#806AEA"/>
<mask id="path-3-outside-1_1333_4467" maskUnits="userSpaceOnUse" x="25.0228" y="185.157" width="442.266" height="158.862" fill="black">
<rect fill="white" x="25.0228" y="185.157" width="442.266" height="158.862"/>
<path d="M79.5902 336.252C54.4375 340.128 39.2041 329.601 36.5917 311.856L60.0676 308.238C61.7381 318.28 69.4041 318.693 77.9081 317.382C85.2144 316.256 89.5623 312.643 88.8793 308.211C88.3439 304.738 85.8831 302.297 69.9617 302.421C45.8307 302.584 35.1865 294.783 32.8051 279.332C30.516 264.48 41.4214 250.905 64.6578 247.324C86.5765 243.945 101.947 251.386 106.007 271.36L83.0101 274.905C81.4324 267.055 76.1614 264.679 67.5376 266.009C60.8302 267.042 56.9245 270.342 57.5521 274.414C58.1244 278.127 61.5803 280.66 75.1707 280.527C101.614 280.253 111.411 287.326 113.755 302.538C116.709 321.702 101.15 332.929 79.5902 336.252ZM106.891 242.286L129.409 238.815L139.507 304.332C140.005 307.566 141.222 309.095 145.534 308.43L153.439 307.212L155.876 323.022L141.383 325.256C131.322 326.807 119.943 326.967 117.321 309.959L106.891 242.286ZM198.432 316.463L197.491 310.355C193.208 316.778 187.515 319.617 179.131 320.91C166.195 322.903 155.082 317.627 153.125 304.931C151.408 293.792 157.358 287.847 176.282 281.742L191.824 276.772L191.566 275.095C191.123 272.22 189.85 268.738 182.664 269.846C176.675 270.769 175.073 274.694 175.516 277.569L153.238 281.002C151.023 266.629 162.261 256.804 179.987 254.072C200.11 250.971 211.334 256.966 213.18 268.943L219.992 313.14L198.432 316.463ZM175.872 300.566C176.426 304.16 179.633 305.872 184.424 305.134C190.772 304.156 195.498 300.607 194.353 293.181L193.781 289.468L182.974 293.341C177.391 295.305 175.319 296.973 175.872 300.566ZM251.835 309.704C232.91 312.621 220.683 308.865 217.057 292.502L238.377 289.216C240.212 295.555 244.644 296.466 250.873 295.506C254.945 294.878 258.658 292.712 258.215 289.837C257.771 286.962 256.011 285.885 244.199 285.621C223.523 285.129 215.874 280.054 214.25 269.514C212.219 256.339 222.389 247.537 241.074 244.657C262.393 241.371 272.135 249.679 274.654 262.044L254.531 265.145C253.258 258.474 247.785 257.969 243.233 258.671C238.203 259.446 235.366 261.723 235.809 264.597C236.252 267.472 238.989 268.521 250.745 268.426C271.311 268.199 278.508 274.325 280.133 284.865C282.164 298.04 270.52 306.824 251.835 309.704ZM284.653 303.174L271.362 216.936L293.879 213.466L298.716 244.847C302.234 239.032 307.89 234.359 316.155 233.085C328.372 231.202 339.384 236.617 342.485 256.739L348.134 293.39L325.616 296.861L320.41 263.084C319.524 257.335 317.192 252.544 310.005 253.652C302.819 254.76 301.153 260.657 302.039 266.406L307.171 299.704L284.653 303.174ZM384.558 289.247C362.759 292.607 349.083 280.246 346.24 261.801C343.397 243.355 352.717 227.45 374.516 224.09C396.315 220.73 409.807 231.894 413.296 254.531L413.85 258.124L368.815 265.065C371.368 271.293 375.976 274.139 382.085 273.198C388.193 272.256 390.828 270.256 392.504 266.81L413.704 263.542C411.533 276.506 401.566 286.626 384.558 289.247ZM366.867 251.632L390.103 248.051C387.586 242.062 382.978 239.217 376.99 240.14C371.001 241.063 367.464 245.164 366.867 251.632ZM420.462 282.242L410.863 219.959L432.901 216.563L434.636 227.821C436.615 219.178 441.893 214.441 450.038 213.186L455.308 212.373L458.428 232.615L451.96 233.612C441.42 235.237 437.072 240.444 439.066 253.379L442.98 278.772L420.462 282.242Z"/>
</mask>
<path d="M79.5902 336.252C54.4375 340.128 39.2041 329.601 36.5917 311.856L60.0676 308.238C61.7381 318.28 69.4041 318.693 77.9081 317.382C85.2144 316.256 89.5623 312.643 88.8793 308.211C88.3439 304.738 85.8831 302.297 69.9617 302.421C45.8307 302.584 35.1865 294.783 32.8051 279.332C30.516 264.48 41.4214 250.905 64.6578 247.324C86.5765 243.945 101.947 251.386 106.007 271.36L83.0101 274.905C81.4324 267.055 76.1614 264.679 67.5376 266.009C60.8302 267.042 56.9245 270.342 57.5521 274.414C58.1244 278.127 61.5803 280.66 75.1707 280.527C101.614 280.253 111.411 287.326 113.755 302.538C116.709 321.702 101.15 332.929 79.5902 336.252ZM106.891 242.286L129.409 238.815L139.507 304.332C140.005 307.566 141.222 309.095 145.534 308.43L153.439 307.212L155.876 323.022L141.383 325.256C131.322 326.807 119.943 326.967 117.321 309.959L106.891 242.286ZM198.432 316.463L197.491 310.355C193.208 316.778 187.515 319.617 179.131 320.91C166.195 322.903 155.082 317.627 153.125 304.931C151.408 293.792 157.358 287.847 176.282 281.742L191.824 276.772L191.566 275.095C191.123 272.22 189.85 268.738 182.664 269.846C176.675 270.769 175.073 274.694 175.516 277.569L153.238 281.002C151.023 266.629 162.261 256.804 179.987 254.072C200.11 250.971 211.334 256.966 213.18 268.943L219.992 313.14L198.432 316.463ZM175.872 300.566C176.426 304.16 179.633 305.872 184.424 305.134C190.772 304.156 195.498 300.607 194.353 293.181L193.781 289.468L182.974 293.341C177.391 295.305 175.319 296.973 175.872 300.566ZM251.835 309.704C232.91 312.621 220.683 308.865 217.057 292.502L238.377 289.216C240.212 295.555 244.644 296.466 250.873 295.506C254.945 294.878 258.658 292.712 258.215 289.837C257.771 286.962 256.011 285.885 244.199 285.621C223.523 285.129 215.874 280.054 214.25 269.514C212.219 256.339 222.389 247.537 241.074 244.657C262.393 241.371 272.135 249.679 274.654 262.044L254.531 265.145C253.258 258.474 247.785 257.969 243.233 258.671C238.203 259.446 235.366 261.723 235.809 264.597C236.252 267.472 238.989 268.521 250.745 268.426C271.311 268.199 278.508 274.325 280.133 284.865C282.164 298.04 270.52 306.824 251.835 309.704ZM284.653 303.174L271.362 216.936L293.879 213.466L298.716 244.847C302.234 239.032 307.89 234.359 316.155 233.085C328.372 231.202 339.384 236.617 342.485 256.739L348.134 293.39L325.616 296.861L320.41 263.084C319.524 257.335 317.192 252.544 310.005 253.652C302.819 254.76 301.153 260.657 302.039 266.406L307.171 299.704L284.653 303.174ZM384.558 289.247C362.759 292.607 349.083 280.246 346.24 261.801C343.397 243.355 352.717 227.45 374.516 224.09C396.315 220.73 409.807 231.894 413.296 254.531L413.85 258.124L368.815 265.065C371.368 271.293 375.976 274.139 382.085 273.198C388.193 272.256 390.828 270.256 392.504 266.81L413.704 263.542C411.533 276.506 401.566 286.626 384.558 289.247ZM366.867 251.632L390.103 248.051C387.586 242.062 382.978 239.217 376.99 240.14C371.001 241.063 367.464 245.164 366.867 251.632ZM420.462 282.242L410.863 219.959L432.901 216.563L434.636 227.821C436.615 219.178 441.893 214.441 450.038 213.186L455.308 212.373L458.428 232.615L451.96 233.612C441.42 235.237 437.072 240.444 439.066 253.379L442.98 278.772L420.462 282.242Z" fill="#EEECF8"/>
<path d="M36.5917 311.856L36.3733 310.439L35.1733 312.065L36.5917 311.856ZM60.0676 308.238L61.4819 308.002L59.8492 306.821L60.0676 308.238ZM69.9617 302.421L69.9714 303.855L69.9728 303.855L69.9617 302.421ZM106.007 271.36L106.225 272.777L107.412 271.075L106.007 271.36ZM83.0101 274.905L81.6045 275.187L83.2285 276.322L83.0101 274.905ZM75.1707 280.527L75.1847 281.961L75.1856 281.961L75.1707 280.527ZM79.5902 336.252L79.3718 334.835C67.0166 336.739 57.2852 335.076 50.3758 330.932C43.4997 326.809 39.2599 320.136 38.0102 311.647L36.5917 311.856L35.1733 312.065C36.536 321.321 41.2191 328.784 48.901 333.391C56.5495 337.978 67.0112 339.641 79.8086 337.669L79.5902 336.252ZM36.5917 311.856L36.8101 313.273L60.286 309.655L60.0676 308.238L59.8492 306.821L36.3733 310.439L36.5917 311.856ZM60.0676 308.238L58.6533 308.473C59.0995 311.155 59.9632 313.297 61.2223 314.955C62.4892 316.623 64.1016 317.728 65.9222 318.41C69.4866 319.745 73.8558 319.457 78.1265 318.799L77.9081 317.382L77.6897 315.965C73.4564 316.618 69.7406 316.778 66.9283 315.725C65.5606 315.212 64.4119 314.413 63.5058 313.22C62.5919 312.017 61.871 310.342 61.4819 308.002L60.0676 308.238ZM77.9081 317.382L78.1265 318.799C81.9404 318.211 85.1292 316.955 87.3083 315.137C89.5233 313.289 90.7299 310.807 90.2963 307.993L88.8793 308.211L87.4623 308.43C87.7116 310.048 87.0859 311.588 85.4711 312.935C83.8204 314.313 81.1821 315.427 77.6897 315.965L77.9081 317.382ZM88.8793 308.211L90.2963 307.993C90.1409 306.985 89.8256 305.92 89.0695 304.945C88.3139 303.971 87.2153 303.21 85.7054 302.629C82.7582 301.494 77.9217 300.925 69.9505 300.987L69.9617 302.421L69.9728 303.855C77.9231 303.793 82.2777 304.382 84.6751 305.305C85.8375 305.753 86.4496 306.246 86.8035 306.702C87.157 307.158 87.3499 307.701 87.4623 308.43L88.8793 308.211ZM69.9617 302.421L69.952 300.987C58.0045 301.068 49.6396 299.169 44.0055 295.528C38.4456 291.935 35.3646 286.527 34.2221 279.114L32.8051 279.332L31.3881 279.551C32.627 287.589 36.0588 293.806 42.4491 297.936C48.7651 302.018 57.7878 303.937 69.9714 303.855L69.9617 302.421ZM32.8051 279.332L34.2221 279.114C33.1452 272.126 35.1597 265.461 40.2051 260.082C45.2735 254.679 53.481 250.497 64.8761 248.741L64.6578 247.324L64.4394 245.907C52.5981 247.732 43.7348 252.128 38.1137 258.12C32.4696 264.138 30.1759 271.686 31.3881 279.551L32.8051 279.332ZM64.6578 247.324L64.8761 248.741C75.6534 247.08 84.6198 248.112 91.3338 251.838C97.9969 255.536 102.641 261.997 104.602 271.646L106.007 271.36L107.412 271.075C105.313 260.749 100.242 253.503 92.7252 249.331C85.2592 245.188 75.5809 244.189 64.4394 245.907L64.6578 247.324ZM106.007 271.36L105.788 269.943L82.7917 273.488L83.0101 274.905L83.2285 276.322L106.225 272.777L106.007 271.36ZM83.0101 274.905L84.4157 274.622C83.5689 270.409 81.6681 267.422 78.6007 265.755C75.6057 264.127 71.7601 263.907 67.3192 264.592L67.5376 266.009L67.756 267.426C71.9389 266.781 75.0407 267.084 77.2316 268.274C79.35 269.426 80.8736 271.551 81.6045 275.187L83.0101 274.905ZM67.5376 266.009L67.3192 264.592C63.8054 265.133 60.8735 266.288 58.8704 267.976C56.8281 269.697 55.731 272.011 56.1351 274.633L57.5521 274.414L58.9691 274.196C58.7456 272.746 59.2875 271.374 60.7181 270.168C62.1878 268.93 64.5624 267.918 67.756 267.426L67.5376 266.009ZM57.5521 274.414L56.1351 274.633C56.309 275.761 56.7155 276.867 57.5235 277.86C58.3258 278.845 59.4534 279.631 60.9354 280.239C63.8476 281.434 68.3505 282.028 75.1847 281.961L75.1707 280.527L75.1567 279.094C68.4005 279.16 64.3802 278.553 62.0238 277.587C60.8715 277.114 60.1784 276.579 59.7471 276.049C59.3215 275.527 59.0814 274.924 58.9691 274.196L57.5521 274.414ZM75.1707 280.527L75.1856 281.961C88.3309 281.825 97.0616 283.528 102.761 286.954C108.35 290.314 111.212 295.449 112.338 302.756L113.755 302.538L115.172 302.32C113.954 294.415 110.746 288.408 104.239 284.497C97.8433 280.652 88.454 278.956 75.1558 279.094L75.1707 280.527ZM113.755 302.538L112.338 302.756C113.739 311.847 110.773 318.967 104.904 324.271C98.9704 329.634 89.994 333.197 79.3718 334.835L79.5902 336.252L79.8086 337.669C90.7459 335.983 100.329 332.271 106.826 326.399C113.389 320.468 116.725 312.393 115.172 302.32L113.755 302.538ZM106.891 242.286L106.673 240.869L105.474 242.504L106.891 242.286ZM129.409 238.815L130.826 238.597L129.19 237.398L129.409 238.815ZM153.439 307.212L154.856 306.994L153.221 305.795L153.439 307.212ZM155.876 323.022L156.094 324.439L157.293 322.804L155.876 323.022ZM106.891 242.286L107.11 243.703L129.627 240.232L129.409 238.815L129.19 237.398L106.673 240.869L106.891 242.286ZM129.409 238.815L127.992 239.034L138.09 304.55L139.507 304.332L140.924 304.114L130.826 238.597L129.409 238.815ZM139.507 304.332L138.09 304.55C138.349 306.23 138.843 307.913 140.211 308.975C141.593 310.049 143.479 310.198 145.752 309.847L145.534 308.43L145.315 307.013C143.277 307.328 142.399 307.044 141.97 306.711C141.527 306.367 141.163 305.668 140.924 304.114L139.507 304.332ZM145.534 308.43L145.752 309.847L153.657 308.629L153.439 307.212L153.221 305.795L145.315 307.013L145.534 308.43ZM153.439 307.212L152.022 307.43L154.459 323.241L155.876 323.022L157.293 322.804L154.856 306.994L153.439 307.212ZM155.876 323.022L155.657 321.605L141.165 323.839L141.383 325.256L141.601 326.673L156.094 324.439L155.876 323.022ZM141.383 325.256L141.165 323.839C136.135 324.614 131.145 324.965 127.126 323.248C123.274 321.603 119.997 317.903 118.738 309.74L117.321 309.959L115.905 310.177C117.268 319.022 120.991 323.746 125.999 325.885C130.84 327.953 136.57 327.449 141.601 326.673L141.383 325.256ZM117.321 309.959L118.738 309.74L108.308 242.067L106.891 242.286L105.474 242.504L115.905 310.177L117.321 309.959ZM198.432 316.463L197.015 316.682L198.651 317.88L198.432 316.463ZM197.491 310.355L198.908 310.136L196.298 309.559L197.491 310.355ZM176.282 281.742L175.845 280.377L175.842 280.378L176.282 281.742ZM191.824 276.772L192.261 278.137L193.241 276.553L191.824 276.772ZM175.516 277.569L175.734 278.986L176.933 277.35L175.516 277.569ZM153.238 281.002L151.821 281.221L153.456 282.419L153.238 281.002ZM219.992 313.14L220.21 314.557L221.409 312.922L219.992 313.14ZM193.781 289.468L195.198 289.25L193.297 288.118L193.781 289.468ZM182.974 293.341L183.45 294.693L183.458 294.69L182.974 293.341ZM198.432 316.463L199.849 316.245L198.908 310.136L197.491 310.355L196.074 310.573L197.015 316.682L198.432 316.463ZM197.491 310.355L196.298 309.559C192.303 315.551 187.03 318.241 178.912 319.493L179.131 320.91L179.349 322.327C187.999 320.993 194.113 318.005 198.684 311.15L197.491 310.355ZM179.131 320.91L178.912 319.493C172.677 320.454 167.012 319.641 162.723 317.185C158.476 314.753 155.456 310.645 154.542 304.712L153.125 304.931L151.708 305.149C152.75 311.912 156.265 316.791 161.298 319.673C166.289 322.531 172.649 323.359 179.349 322.327L179.131 320.91ZM153.125 304.931L154.542 304.712C153.737 299.49 154.729 295.713 157.977 292.462C161.356 289.08 167.285 286.151 176.722 283.107L176.282 281.742L175.842 280.378C166.355 283.438 159.847 286.534 155.949 290.435C151.92 294.468 150.796 299.232 151.708 305.149L153.125 304.931ZM176.282 281.742L176.719 283.108L192.261 278.137L191.824 276.772L191.388 275.406L175.845 280.377L176.282 281.742ZM191.824 276.772L193.241 276.553L192.983 274.877L191.566 275.095L190.149 275.313L190.407 276.99L191.824 276.772ZM191.566 275.095L192.983 274.877C192.751 273.372 192.26 271.333 190.577 269.889C188.858 268.413 186.245 267.843 182.445 268.429L182.664 269.846L182.882 271.262C186.269 270.741 187.886 271.358 188.71 272.065C189.571 272.804 189.938 273.943 190.149 275.313L191.566 275.095ZM182.664 269.846L182.445 268.429C179.158 268.935 176.893 270.301 175.532 272.114C174.183 273.91 173.825 276.008 174.099 277.787L175.516 277.569L176.933 277.35C176.764 276.255 176.986 274.953 177.824 273.836C178.65 272.737 180.181 271.679 182.882 271.262L182.664 269.846ZM175.516 277.569L175.298 276.152L153.02 279.585L153.238 281.002L153.456 282.419L175.734 278.986L175.516 277.569ZM153.238 281.002L154.655 280.784C153.62 274.067 155.71 268.48 160.131 264.202C164.6 259.879 171.529 256.827 180.206 255.489L179.987 254.072L179.769 252.655C170.72 254.05 163.166 257.277 158.138 262.142C153.062 267.053 150.641 273.565 151.821 281.221L153.238 281.002ZM179.987 254.072L180.206 255.489C190.123 253.961 197.636 254.712 202.828 257.151C207.937 259.551 210.911 263.633 211.763 269.162L213.18 268.943L214.597 268.725C213.603 262.276 210.041 257.372 204.047 254.556C198.134 251.778 189.974 251.082 179.769 252.655L179.987 254.072ZM213.18 268.943L211.763 269.162L218.575 313.359L219.992 313.14L221.409 312.922L214.597 268.725L213.18 268.943ZM219.992 313.14L219.773 311.723L198.214 315.046L198.432 316.463L198.651 317.88L220.21 314.557L219.992 313.14ZM175.872 300.566L174.455 300.785C174.798 303.005 175.996 304.731 177.884 305.739C179.716 306.718 182.058 306.949 184.643 306.551L184.424 305.134L184.206 303.717C182 304.057 180.342 303.801 179.235 303.21C178.183 302.648 177.501 301.721 177.289 300.348L175.872 300.566ZM184.424 305.134L184.643 306.551C187.99 306.035 191.108 304.815 193.24 302.56C195.426 300.249 196.398 297.037 195.77 292.963L194.353 293.181L192.936 293.399C193.453 296.751 192.635 299.026 191.157 300.59C189.625 302.211 187.206 303.255 184.206 303.717L184.424 305.134ZM194.353 293.181L195.77 292.963L195.198 289.25L193.781 289.468L192.364 289.686L192.936 293.399L194.353 293.181ZM193.781 289.468L193.297 288.118L182.491 291.991L182.974 293.341L183.458 294.69L194.265 290.818L193.781 289.468ZM182.974 293.341L182.499 291.988C179.706 292.971 177.518 293.962 176.124 295.313C175.396 296.019 174.87 296.835 174.588 297.793C174.31 298.739 174.294 299.739 174.455 300.785L175.872 300.566L177.289 300.348C177.174 299.597 177.21 299.041 177.339 298.602C177.464 298.176 177.701 297.778 178.12 297.372C179.02 296.5 180.66 295.675 183.45 294.693L182.974 293.341ZM217.057 292.502L216.839 291.085L215.657 292.812L217.057 292.502ZM238.377 289.216L239.754 288.817L238.159 287.799L238.377 289.216ZM244.199 285.621L244.165 287.054L244.167 287.054L244.199 285.621ZM274.654 262.044L274.872 263.461L276.058 261.757L274.654 262.044ZM254.531 265.145L253.123 265.414L254.75 266.562L254.531 265.145ZM250.745 268.426L250.757 269.86L250.761 269.86L250.745 268.426ZM251.835 309.704L251.616 308.287C242.242 309.732 234.788 309.474 229.293 307.023C223.911 304.624 220.192 300.021 218.457 292.192L217.057 292.502L215.657 292.812C217.548 301.345 221.755 306.802 228.125 309.642C234.381 312.431 242.503 312.593 252.053 311.121L251.835 309.704ZM217.057 292.502L217.275 293.919L238.595 290.633L238.377 289.216L238.159 287.799L216.839 291.085L217.057 292.502ZM238.377 289.216L237 289.615C238.007 293.092 239.812 295.309 242.416 296.417C244.913 297.479 247.91 297.413 251.091 296.923L250.873 295.506L250.654 294.089C247.607 294.558 245.274 294.517 243.539 293.778C241.911 293.086 240.583 291.679 239.754 288.817L238.377 289.216ZM250.873 295.506L251.091 296.923C253.281 296.585 255.455 295.826 257.066 294.684C258.662 293.552 259.971 291.823 259.632 289.619L258.215 289.837L256.798 290.055C256.901 290.726 256.575 291.517 255.408 292.344C254.256 293.161 252.537 293.798 250.654 294.089L250.873 295.506ZM258.215 289.837L259.632 289.619C259.502 288.78 259.251 287.89 258.614 287.101C257.975 286.312 257.073 285.776 255.926 285.391C253.716 284.649 250.105 284.319 244.231 284.188L244.199 285.621L244.167 287.054C250.105 287.187 253.281 287.528 255.014 288.109C255.839 288.386 256.199 288.675 256.384 288.904C256.57 289.134 256.705 289.457 256.798 290.055L258.215 289.837ZM244.199 285.621L244.233 284.188C233.957 283.943 227.168 282.556 222.784 280.087C218.525 277.687 216.423 274.201 215.667 269.296L214.25 269.514L212.833 269.733C213.701 275.368 216.236 279.689 221.376 282.585C226.392 285.41 233.765 286.807 244.165 287.054L244.199 285.621ZM214.25 269.514L215.667 269.296C214.724 263.181 216.591 258.168 220.858 254.285C225.193 250.341 232.095 247.492 241.292 246.074L241.074 244.657L240.855 243.24C231.367 244.702 223.842 247.694 218.928 252.164C213.947 256.697 211.744 262.672 212.833 269.733L214.25 269.514ZM241.074 244.657L241.292 246.074C251.761 244.461 259.153 245.732 264.183 248.715C269.177 251.677 272.052 256.453 273.249 262.33L274.654 262.044L276.058 261.757C274.737 255.27 271.481 249.71 265.645 246.248C259.844 242.808 251.706 241.568 240.855 243.24L241.074 244.657ZM274.654 262.044L274.435 260.627L254.313 263.728L254.531 265.145L254.75 266.562L274.872 263.461L274.654 262.044ZM254.531 265.145L255.94 264.876C255.22 261.107 253.239 258.892 250.663 257.82C248.203 256.796 245.383 256.889 243.015 257.254L243.233 258.671L243.452 260.088C245.636 259.751 247.827 259.746 249.561 260.467C251.177 261.139 252.569 262.513 253.123 265.414L254.531 265.145ZM243.233 258.671L243.015 257.254C240.36 257.663 238.122 258.489 236.573 259.727C234.979 261.001 234.076 262.767 234.392 264.816L235.809 264.597L237.226 264.379C237.098 263.553 237.393 262.743 238.364 261.967C239.38 261.154 241.076 260.454 243.452 260.088L243.233 258.671ZM235.809 264.597L234.392 264.816C234.537 265.758 234.895 266.67 235.664 267.437C236.406 268.177 237.417 268.666 238.653 269.007C241.081 269.678 244.895 269.907 250.757 269.86L250.745 268.426L250.734 266.992C244.839 267.04 241.406 266.793 239.416 266.243C238.443 265.975 237.952 265.669 237.689 265.406C237.452 265.171 237.302 264.874 237.226 264.379L235.809 264.597ZM250.745 268.426L250.761 269.86C260.945 269.747 267.559 271.219 271.789 273.828C275.924 276.378 277.952 280.124 278.716 285.083L280.133 284.865L281.55 284.646C280.69 279.065 278.306 274.478 273.295 271.388C268.378 268.355 261.111 266.878 250.73 266.992L250.745 268.426ZM280.133 284.865L278.716 285.083C279.647 291.124 277.481 296.132 272.829 300.048C268.113 304.018 260.818 306.869 251.616 308.287L251.835 309.704L252.053 311.121C261.536 309.659 269.406 306.678 274.676 302.242C280.009 297.752 282.649 291.78 281.55 284.646L280.133 284.865ZM284.653 303.174L283.236 303.393L284.872 304.591L284.653 303.174ZM271.362 216.936L271.143 215.519L269.945 217.155L271.362 216.936ZM293.879 213.466L295.296 213.247L293.661 212.049L293.879 213.466ZM298.716 244.847L297.299 245.065L299.943 245.589L298.716 244.847ZM348.134 293.39L348.352 294.807L349.551 293.172L348.134 293.39ZM325.616 296.861L324.199 297.079L325.835 298.278L325.616 296.861ZM307.171 299.704L307.389 301.12L308.588 299.485L307.171 299.704ZM284.653 303.174L286.07 302.956L272.779 216.718L271.362 216.936L269.945 217.155L283.236 303.393L284.653 303.174ZM271.362 216.936L271.58 218.353L294.098 214.883L293.879 213.466L293.661 212.049L271.143 215.519L271.362 216.936ZM293.879 213.466L292.462 213.684L297.299 245.065L298.716 244.847L300.133 244.628L295.296 213.247L293.879 213.466ZM298.716 244.847L299.943 245.589C303.273 240.084 308.586 235.702 316.373 234.502L316.155 233.085L315.936 231.668C307.194 233.015 301.195 237.98 297.489 244.104L298.716 244.847ZM316.155 233.085L316.373 234.502C322.218 233.601 327.59 234.469 331.858 237.791C336.138 241.124 339.551 247.112 341.068 256.957L342.485 256.739L343.902 256.52C342.318 246.243 338.674 239.464 333.619 235.529C328.551 231.584 322.308 230.686 315.936 231.668L316.155 233.085ZM342.485 256.739L341.068 256.957L346.717 293.608L348.134 293.39L349.551 293.172L343.902 256.52L342.485 256.739ZM348.134 293.39L347.916 291.973L325.398 295.444L325.616 296.861L325.835 298.278L348.352 294.807L348.134 293.39ZM325.616 296.861L327.033 296.642L321.827 262.866L320.41 263.084L318.993 263.302L324.199 297.079L325.616 296.861ZM320.41 263.084L321.827 262.866C321.373 259.919 320.517 256.938 318.639 254.84C316.661 252.632 313.759 251.623 309.787 252.235L310.005 253.652L310.224 255.069C313.438 254.574 315.296 255.406 316.503 256.753C317.808 258.211 318.561 260.499 318.993 263.302L320.41 263.084ZM310.005 253.652L309.787 252.235C305.779 252.853 303.153 254.859 301.721 257.631C300.329 260.326 300.152 263.575 300.622 266.625L302.039 266.406L303.456 266.188C303.04 263.488 303.253 260.914 304.269 258.946C305.245 257.055 307.045 255.559 310.224 255.069L310.005 253.652ZM302.039 266.406L300.622 266.625L305.754 299.922L307.171 299.704L308.588 299.485L303.456 266.188L302.039 266.406ZM307.171 299.704L306.953 298.287L284.435 301.757L284.653 303.174L284.872 304.591L307.389 301.12L307.171 299.704ZM413.85 258.124L414.068 259.541L415.267 257.906L413.85 258.124ZM368.815 265.065L368.596 263.648L367.488 265.609L368.815 265.065ZM392.504 266.81L392.285 265.393L391.214 266.183L392.504 266.81ZM413.704 263.542L415.118 263.779L413.486 262.125L413.704 263.542ZM366.867 251.632L365.439 251.5L367.085 253.049L366.867 251.632ZM390.103 248.051L390.321 249.468L391.425 247.495L390.103 248.051ZM384.558 289.247L384.34 287.83C373.759 289.461 365.301 287.262 359.162 282.563C353.011 277.853 349.033 270.514 347.657 261.582L346.24 261.801L344.823 262.019C346.289 271.533 350.571 279.597 357.419 284.839C364.279 290.092 373.559 292.393 384.777 290.664L384.558 289.247ZM346.24 261.801L347.657 261.582C346.28 252.651 347.863 244.454 352.311 238.111C356.75 231.781 364.153 227.138 374.734 225.507L374.516 224.09L374.297 222.673C363.08 224.402 354.924 229.391 349.963 236.465C345.012 243.526 343.356 252.505 344.823 262.019L346.24 261.801ZM374.516 224.09L374.734 225.507C385.35 223.871 393.737 225.794 399.879 230.683C406.041 235.588 410.169 243.654 411.879 254.749L413.296 254.531L414.713 254.313C412.934 242.77 408.571 233.936 401.665 228.44C394.739 222.927 385.481 220.949 374.297 222.673L374.516 224.09ZM413.296 254.531L411.879 254.749L412.433 258.343L413.85 258.124L415.267 257.906L414.713 254.313L413.296 254.531ZM413.85 258.124L413.631 256.707L368.596 263.648L368.815 265.065L369.033 266.482L414.068 259.541L413.85 258.124ZM368.815 265.065L367.488 265.609C368.849 268.929 370.811 271.472 373.366 273.042C375.935 274.619 378.968 275.129 382.303 274.615L382.085 273.198L381.866 271.781C379.093 272.208 376.768 271.765 374.867 270.598C372.953 269.423 371.334 267.43 370.141 264.521L368.815 265.065ZM382.085 273.198L382.303 274.615C385.464 274.127 387.867 273.347 389.732 272.149C391.627 270.931 392.864 269.347 393.793 267.437L392.504 266.81L391.214 266.183C390.467 267.719 389.55 268.858 388.181 269.737C386.782 270.636 384.814 271.326 381.866 271.781L382.085 273.198ZM392.504 266.81L392.722 268.226L413.922 264.959L413.704 263.542L413.486 262.125L392.285 265.393L392.504 266.81ZM413.704 263.542L412.29 263.305C410.235 275.575 400.826 285.289 384.34 287.83L384.558 289.247L384.777 290.664C402.307 287.962 412.831 277.438 415.118 263.779L413.704 263.542ZM366.867 251.632L367.085 253.049L390.321 249.468L390.103 248.051L389.885 246.634L366.648 250.215L366.867 251.632ZM390.103 248.051L391.425 247.495C390.077 244.29 388.122 241.814 385.592 240.278C383.051 238.735 380.052 238.217 376.771 238.723L376.99 240.14L377.208 241.557C379.916 241.139 382.215 241.583 384.104 242.729C386.005 243.883 387.612 245.823 388.781 248.606L390.103 248.051ZM376.99 240.14L376.771 238.723C373.49 239.228 370.787 240.625 368.828 242.862C366.878 245.088 365.759 248.038 365.439 251.5L366.867 251.632L368.294 251.764C368.572 248.758 369.52 246.423 370.985 244.751C372.441 243.089 374.5 241.974 377.208 241.557L376.99 240.14ZM420.462 282.242L419.045 282.461L420.68 283.659L420.462 282.242ZM410.863 219.959L410.644 218.542L409.446 220.178L410.863 219.959ZM432.901 216.563L434.318 216.344L432.683 215.146L432.901 216.563ZM434.636 227.821L433.219 228.04L436.034 228.141L434.636 227.821ZM455.308 212.373L456.725 212.155L455.09 210.956L455.308 212.373ZM458.428 232.615L458.646 234.032L459.845 232.397L458.428 232.615ZM442.98 278.772L443.198 280.189L444.397 278.553L442.98 278.772ZM420.462 282.242L421.879 282.024L412.28 219.741L410.863 219.959L409.446 220.178L419.045 282.461L420.462 282.242ZM410.863 219.959L411.081 221.376L433.12 217.98L432.901 216.563L432.683 215.146L410.644 218.542L410.863 219.959ZM432.901 216.563L431.484 216.781L433.219 228.04L434.636 227.821L436.053 227.603L434.318 216.344L432.901 216.563ZM434.636 227.821L436.034 228.141C436.973 224.038 438.669 220.968 441.005 218.779C443.34 216.592 446.411 215.195 450.256 214.603L450.038 213.186L449.82 211.769C445.52 212.431 441.88 214.031 439.045 216.687C436.211 219.342 434.278 222.962 433.239 227.501L434.636 227.821ZM450.038 213.186L450.256 214.603L455.526 213.79L455.308 212.373L455.09 210.956L449.82 211.769L450.038 213.186ZM455.308 212.373L453.891 212.592L457.011 232.834L458.428 232.615L459.845 232.397L456.725 212.155L455.308 212.373ZM458.428 232.615L458.209 231.198L451.742 232.195L451.96 233.612L452.178 235.029L458.646 234.032L458.428 232.615ZM451.96 233.612L451.742 232.195C446.313 233.032 442.117 234.841 439.633 238.439C437.167 242.012 436.632 246.999 437.649 253.598L439.066 253.379L440.483 253.161C439.506 246.824 440.149 242.74 441.993 240.069C443.819 237.423 447.067 235.817 452.178 235.029L451.96 233.612ZM439.066 253.379L437.649 253.598L441.563 278.99L442.98 278.772L444.397 278.553L440.483 253.161L439.066 253.379ZM442.98 278.772L442.761 277.355L420.244 280.825L420.462 282.242L420.68 283.659L443.198 280.189L442.98 278.772Z" fill="#806AEA" mask="url(#path-3-outside-1_1333_4467)"/>
<path d="M97.6233 221.565C72.4706 225.442 57.2372 214.915 54.6248 197.17L78.1007 193.551C79.7712 203.594 87.4372 204.007 95.9412 202.696C103.247 201.57 107.595 197.957 106.912 193.525C106.377 190.052 103.916 187.611 87.9947 187.735C63.8637 187.898 53.2196 180.097 50.8382 164.646C48.5491 149.794 59.4545 136.219 82.6908 132.637C104.61 129.259 119.98 136.7 124.04 156.674L101.043 160.219C99.4655 152.369 94.1945 149.993 85.5707 151.322C78.8633 152.356 74.9575 155.656 75.5852 159.728C76.1575 163.441 79.6134 165.974 93.2038 165.841C119.647 165.567 129.444 172.64 131.788 187.852C134.742 207.016 119.183 218.242 97.6233 221.565ZM211.103 168.025C210.217 162.275 207.885 157.485 201.776 158.426C194.59 159.534 193.762 165.302 194.648 171.051L199.78 204.349L177.263 207.819L172.057 174.043C171.171 168.294 168.838 163.503 162.73 164.445C155.543 165.552 154.715 171.32 155.602 177.069L160.734 210.367L138.216 213.837L128.616 151.555L150.655 148.158L152.021 157.021C155.189 150.524 160.495 145.17 168.879 143.878C176.305 142.733 183.732 144.776 188.7 152.349C192.632 145.244 199.062 139.225 207.925 137.859C219.064 136.143 230.076 141.557 233.178 161.679L238.827 198.33L216.309 201.801L211.103 168.025ZM283.722 191.411L282.78 185.302C278.498 191.726 272.804 194.565 264.42 195.857C251.484 197.851 240.371 192.575 238.414 179.878C236.697 168.739 242.648 162.795 261.571 156.69L277.114 151.72L276.855 150.043C276.412 147.168 275.14 143.686 267.953 144.793C261.965 145.716 260.362 149.642 260.805 152.516L238.527 155.95C236.312 141.577 247.55 131.752 265.277 129.02C285.399 125.918 296.623 131.914 298.469 143.891L305.281 188.088L283.722 191.411ZM261.162 175.514C261.716 179.107 264.923 180.82 269.714 180.082C276.062 179.103 280.787 175.555 279.643 168.129L279.071 164.416L268.264 168.288C262.681 170.253 260.608 171.921 261.162 175.514ZM309.115 187.497L299.515 125.214L321.554 121.817L323.289 133.076C325.268 124.433 330.546 119.696 338.691 118.44L343.961 117.628L347.081 137.87L340.613 138.867C330.073 140.492 325.725 145.699 327.719 158.634L331.633 184.027L309.115 187.497ZM350.406 97.7513L372.924 94.2807L375.877 113.445L390.25 111.229L392.687 127.04L378.314 129.255L382.283 155.007C382.782 158.24 383.998 159.77 388.31 159.105L397.413 157.702L399.85 173.512L384.16 175.931C374.098 177.481 362.719 177.641 360.098 160.633L355.797 132.726L345.736 134.276L343.299 118.466L353.36 116.915L350.406 97.7513Z" fill="#EEECF8"/>
<path d="M54.6248 197.17L53.3144 188.668L46.1142 198.423L54.6248 197.17ZM78.1007 193.551L86.5864 192.14L76.7903 185.049L78.1007 193.551ZM87.9947 187.735L88.053 196.337L88.0618 196.337L87.9947 187.735ZM124.04 156.674L125.35 165.176L132.47 154.961L124.04 156.674ZM101.043 160.219L92.6095 161.914L102.354 168.721L101.043 160.219ZM93.2038 165.841L93.2878 174.443L93.293 174.443L93.2038 165.841ZM97.6233 221.565L96.3129 213.063C85.0632 214.797 77.1576 213.134 72.0958 210.098C67.2342 207.183 64.1026 202.487 63.1354 195.917L54.6248 197.17L46.1142 198.423C47.7594 209.598 53.5508 219.038 63.2471 224.853C72.7432 230.548 85.0307 232.21 98.9337 230.067L97.6233 221.565ZM54.6248 197.17L55.9352 205.672L79.4111 202.053L78.1007 193.551L76.7903 185.049L53.3144 188.668L54.6248 197.17ZM78.1007 193.551L69.6149 194.963C70.2037 198.502 71.4246 201.81 73.5468 204.604C75.7155 207.46 78.4871 209.33 81.4401 210.437C86.8846 212.477 92.8874 211.87 97.2516 211.198L95.9412 202.696L94.6308 194.194C92.7233 194.488 91.1501 194.638 89.8509 194.63C88.5401 194.622 87.8182 194.454 87.4766 194.326C87.2413 194.238 87.2517 194.204 87.2475 194.198C87.1967 194.131 86.8329 193.622 86.5864 192.14L78.1007 193.551ZM95.9412 202.696L97.2516 211.198C101.869 210.486 106.434 208.876 109.934 205.955C113.65 202.854 116.309 198.018 115.414 192.215L106.912 193.525L98.4104 194.835C98.3339 194.339 98.4016 193.753 98.6243 193.24C98.8247 192.779 99.0322 192.644 98.9111 192.745C98.5816 193.02 97.3194 193.78 94.6308 194.194L95.9412 202.696ZM106.912 193.525L115.414 192.215C115.151 190.509 114.53 188.139 112.767 185.866C111.008 183.597 108.693 182.169 106.314 181.253C101.992 179.589 95.9514 179.07 87.9277 179.133L87.9947 187.735L88.0618 196.337C91.8492 196.307 94.6358 196.433 96.6753 196.652C98.7596 196.875 99.7615 197.166 100.132 197.309C100.426 197.422 99.8217 197.247 99.1718 196.409C98.5185 195.567 98.4056 194.804 98.4104 194.835L106.912 193.525ZM87.9947 187.735L87.9365 179.133C76.5794 179.209 69.859 177.36 65.9294 174.821C62.4455 172.569 60.2418 169.186 59.3401 163.336L50.8382 164.646L42.3363 165.956C43.816 175.557 48.125 183.8 56.5914 189.271C64.6119 194.454 75.2791 196.423 88.053 196.337L87.9947 187.735ZM50.8382 164.646L59.3401 163.336C58.6012 158.542 59.918 154.083 63.4666 150.3C67.1533 146.37 73.7214 142.724 84.0012 141.139L82.6908 132.637L81.3804 124.136C68.4239 126.133 57.9211 131.064 50.9184 138.53C43.7775 146.143 40.786 155.898 42.3363 165.956L50.8382 164.646ZM82.6908 132.637L84.0012 141.139C93.8675 139.619 101.054 140.738 105.888 143.42C110.417 145.934 113.993 150.429 115.61 158.388L124.04 156.674L132.47 154.961C130.028 142.945 123.888 133.733 114.237 128.377C104.891 123.19 93.433 122.278 81.3804 124.136L82.6908 132.637ZM124.04 156.674L122.73 148.172L99.7328 151.717L101.043 160.219L102.354 168.721L125.35 165.176L124.04 156.674ZM101.043 160.219L109.477 158.524C108.34 152.867 105.496 147.726 100.056 144.77C95.0511 142.05 89.3461 142.037 84.2603 142.82L85.5707 151.322L86.8811 159.824C90.4191 159.279 91.6615 159.789 91.8419 159.887C91.8537 159.893 91.8755 159.888 91.9652 160.026C92.0899 160.217 92.377 160.757 92.6095 161.914L101.043 160.219ZM85.5707 151.322L84.2603 142.82C79.946 143.485 75.6207 144.996 72.2842 147.808C68.7126 150.817 66.2277 155.488 67.0833 161.039L75.5852 159.728L84.0871 158.418C84.1719 158.968 84.104 159.621 83.8513 160.214C83.6185 160.76 83.3478 160.983 83.3705 160.964C83.4028 160.937 83.6605 160.736 84.2795 160.489C84.8883 160.247 85.7479 159.999 86.8811 159.824L85.5707 151.322ZM75.5852 159.728L67.0833 161.039C67.4113 163.167 68.2334 165.533 69.9977 167.7C71.7274 169.824 73.9414 171.239 76.2476 172.185C80.5492 173.95 86.2584 174.512 93.2878 174.443L93.2038 165.841L93.1197 157.239C86.5587 157.303 83.7448 156.665 82.7778 156.268C82.4497 156.134 82.843 156.228 83.3391 156.837C83.8698 157.489 84.0452 158.146 84.0871 158.418L75.5852 159.728ZM93.2038 165.841L93.293 174.443C106.056 174.311 113.141 176.031 117.101 178.412C120.393 180.391 122.39 183.347 123.286 189.162L131.788 187.852L140.29 186.541C138.842 177.145 134.768 168.958 125.965 163.667C117.83 158.776 106.795 157.097 93.1145 157.239L93.2038 165.841ZM131.788 187.852L123.286 189.162C124.308 195.794 122.266 200.529 118.13 204.267C113.608 208.354 106.147 211.548 96.3129 213.063L97.6233 221.565L98.9337 230.067C110.659 228.26 121.758 224.179 129.666 217.031C137.961 209.534 142.222 199.073 140.29 186.541L131.788 187.852ZM199.78 204.349L201.091 212.851L208.282 203.038L199.78 204.349ZM177.263 207.819L168.761 209.13L178.573 216.321L177.263 207.819ZM160.734 210.367L162.044 218.869L169.236 209.056L160.734 210.367ZM138.216 213.837L129.714 215.148L139.526 222.339L138.216 213.837ZM128.616 151.555L127.306 143.053L120.114 152.865L128.616 151.555ZM150.655 148.158L159.157 146.847L149.345 139.656L150.655 148.158ZM152.021 157.021L143.519 158.331L159.753 160.791L152.021 157.021ZM188.7 152.349L181.508 157.068L196.227 156.514L188.7 152.349ZM238.827 198.33L240.137 206.832L247.329 197.02L238.827 198.33ZM216.309 201.801L207.807 203.111L217.62 210.303L216.309 201.801ZM211.103 168.025L219.605 166.714C219.091 163.376 217.995 158.896 215.082 155.301C211.6 151.004 206.387 149.012 200.466 149.924L201.776 158.426L203.087 166.928C203.428 166.876 203.2 166.974 202.683 166.782C202.146 166.582 201.82 166.263 201.715 166.132C201.656 166.059 201.804 166.22 202.019 166.83C202.23 167.427 202.435 168.253 202.601 169.335L211.103 168.025ZM201.776 158.426L200.466 149.924C194.292 150.876 189.59 154.265 187.29 159.583C185.326 164.122 185.622 168.959 186.146 172.362L194.648 171.051L203.15 169.741C202.988 168.688 202.94 167.85 202.97 167.219C203.001 166.581 203.101 166.365 203.08 166.413C203.029 166.533 202.862 166.798 202.587 166.999C202.345 167.176 202.382 167.037 203.087 166.928L201.776 158.426ZM194.648 171.051L186.146 172.362L191.278 205.659L199.78 204.349L208.282 203.038L203.15 169.741L194.648 171.051ZM199.78 204.349L198.47 195.847L175.952 199.317L177.263 207.819L178.573 216.321L201.091 212.851L199.78 204.349ZM177.263 207.819L185.765 206.509L180.559 172.732L172.057 174.043L163.555 175.353L168.761 209.13L177.263 207.819ZM172.057 174.043L180.559 172.732C180.044 169.394 178.948 164.914 176.035 161.319C172.553 157.022 167.34 155.03 161.419 155.943L162.73 164.445L164.04 172.946C164.382 172.894 164.154 172.992 163.637 172.8C163.1 172.6 162.774 172.281 162.668 172.15C162.609 172.078 162.757 172.239 162.973 172.849C163.183 173.445 163.388 174.272 163.555 175.353L172.057 174.043ZM162.73 164.445L161.419 155.943C155.246 156.894 150.543 160.283 148.243 165.601C146.28 170.14 146.575 174.977 147.1 178.38L155.602 177.069L164.104 175.759C163.941 174.706 163.893 173.868 163.923 173.238C163.954 172.599 164.055 172.383 164.034 172.431C163.982 172.551 163.815 172.816 163.54 173.018C163.299 173.194 163.335 173.055 164.04 172.946L162.73 164.445ZM155.602 177.069L147.1 178.38L152.232 211.677L160.734 210.367L169.236 209.056L164.104 175.759L155.602 177.069ZM160.734 210.367L159.423 201.865L136.906 205.335L138.216 213.837L139.526 222.339L162.044 218.869L160.734 210.367ZM138.216 213.837L146.718 212.527L137.118 150.244L128.616 151.555L120.114 152.865L129.714 215.148L138.216 213.837ZM128.616 151.555L129.927 160.056L151.965 156.66L150.655 148.158L149.345 139.656L127.306 143.053L128.616 151.555ZM150.655 148.158L142.153 149.468L143.519 158.331L152.021 157.021L160.523 155.711L159.157 146.847L150.655 148.158ZM152.021 157.021L159.753 160.791C162.048 156.085 165.32 153.13 170.189 152.379L168.879 143.878L167.568 135.376C155.669 137.21 148.33 144.964 144.289 153.251L152.021 157.021ZM168.879 143.878L170.189 152.379C174.989 151.64 178.75 152.864 181.508 157.068L188.7 152.349L195.893 147.63C188.714 136.689 177.62 133.826 167.568 135.376L168.879 143.878ZM188.7 152.349L196.227 156.514C199.3 150.962 203.772 147.203 209.236 146.361L207.925 137.859L206.615 129.357C194.352 131.248 185.965 139.526 181.174 148.183L188.7 152.349ZM207.925 137.859L209.236 146.361C213.026 145.777 215.95 146.49 218.167 148.277C220.484 150.145 223.326 154.234 224.676 162.99L233.178 161.679L241.68 160.369C239.928 149.002 235.714 140.323 228.965 134.883C222.115 129.361 213.964 128.225 206.615 129.357L207.925 137.859ZM233.178 161.679L224.676 162.99L230.325 199.641L238.827 198.33L247.329 197.02L241.68 160.369L233.178 161.679ZM238.827 198.33L237.516 189.829L214.999 193.299L216.309 201.801L217.62 210.303L240.137 206.832L238.827 198.33ZM216.309 201.801L224.811 200.491L219.605 166.714L211.103 168.025L202.601 169.335L207.807 203.111L216.309 201.801ZM283.722 191.411L275.22 192.721L285.032 199.913L283.722 191.411ZM282.78 185.302L291.282 183.992L275.623 180.53L282.78 185.302ZM261.571 156.69L258.951 148.497L258.93 148.503L261.571 156.69ZM277.114 151.72L279.734 159.913L285.616 150.409L277.114 151.72ZM260.805 152.516L262.116 161.018L269.307 151.206L260.805 152.516ZM238.527 155.95L230.025 157.26L239.838 164.452L238.527 155.95ZM305.281 188.088L306.592 196.59L313.783 186.778L305.281 188.088ZM279.071 164.416L287.573 163.105L276.169 156.318L279.071 164.416ZM268.264 168.288L271.119 176.403L271.166 176.386L268.264 168.288ZM283.722 191.411L292.224 190.101L291.282 183.992L282.78 185.302L274.278 186.613L275.22 192.721L283.722 191.411ZM282.78 185.302L275.623 180.53C273.067 184.364 269.898 186.309 263.11 187.355L264.42 195.857L265.73 204.359C275.711 202.821 283.929 199.087 289.938 190.075L282.78 185.302ZM264.42 195.857L263.11 187.355C258.035 188.137 254.11 187.363 251.575 185.912C249.292 184.604 247.511 182.426 246.916 178.568L238.414 179.878L229.912 181.189C231.274 190.027 236.028 196.835 243.025 200.842C249.77 204.704 257.869 205.571 265.73 204.359L264.42 195.857ZM238.414 179.878L246.916 178.568C246.379 175.083 247.042 173.773 248.338 172.477C250.419 170.394 254.9 167.881 264.212 164.877L261.571 156.69L258.93 148.503C249.319 151.604 241.364 155.115 236.167 160.316C230.186 166.303 228.732 173.535 229.912 181.189L238.414 179.878ZM261.571 156.69L264.192 164.884L279.734 159.913L277.114 151.72L274.493 143.526L258.951 148.497L261.571 156.69ZM277.114 151.72L285.616 150.409L285.357 148.732L276.855 150.043L268.353 151.353L268.612 153.03L277.114 151.72ZM276.855 150.043L285.357 148.732C285.074 146.891 284.274 142.605 280.535 139.397C276.576 135.998 271.476 135.546 266.643 136.291L267.953 144.793L269.264 153.295C270.394 153.121 270.794 153.209 270.711 153.194C270.548 153.163 269.967 152.999 269.331 152.453C268.72 151.928 268.435 151.376 268.334 151.131C268.256 150.941 268.29 150.939 268.353 151.353L276.855 150.043ZM267.953 144.793L266.643 136.291C261.893 137.023 257.79 139.161 255.089 142.757C252.466 146.249 251.766 150.338 252.304 153.827L260.805 152.516L269.307 151.206C269.402 151.82 269.281 152.509 268.846 153.089C268.629 153.378 268.431 153.502 268.398 153.52C268.379 153.531 268.615 153.395 269.264 153.295L267.953 144.793ZM260.805 152.516L259.495 144.014L237.217 147.448L238.527 155.95L239.838 164.452L262.116 161.018L260.805 152.516ZM238.527 155.95L247.029 154.64C246.356 150.269 247.621 146.996 250.406 144.302C253.476 141.331 258.841 138.716 266.587 137.522L265.277 129.02L263.967 120.518C253.986 122.056 244.869 125.719 238.442 131.937C231.73 138.432 228.484 147.258 230.025 157.26L238.527 155.95ZM265.277 129.02L266.587 137.522C275.785 136.104 281.68 136.995 285.069 138.587C287.968 139.949 289.47 141.975 289.967 145.201L298.469 143.891L306.971 142.581C305.622 133.829 300.59 126.87 292.384 123.015C284.669 119.391 274.891 118.834 263.967 120.518L265.277 129.02ZM298.469 143.891L289.967 145.201L296.779 189.398L305.281 188.088L313.783 186.778L306.971 142.581L298.469 143.891ZM305.281 188.088L303.971 179.586L282.411 182.909L283.722 191.411L285.032 199.913L306.592 196.59L305.281 188.088ZM261.162 175.514L252.66 176.824C253.328 181.161 255.819 184.886 259.796 187.01C263.441 188.957 267.493 189.128 271.024 188.584L269.714 180.082L268.403 171.58C267.143 171.774 267.196 171.458 267.902 171.834C268.3 172.047 268.759 172.414 269.129 172.948C269.494 173.475 269.625 173.95 269.664 174.204L261.162 175.514ZM269.714 180.082L271.024 188.584C275.241 187.934 280.107 186.275 283.739 182.433C287.691 178.253 289.051 172.7 288.145 166.818L279.643 168.129L271.141 169.439C271.276 170.312 271.18 170.684 271.17 170.719C271.164 170.741 271.168 170.721 271.191 170.679C271.202 170.661 271.212 170.645 271.222 170.632C271.232 170.619 271.238 170.613 271.237 170.613C271.205 170.647 270.535 171.251 268.403 171.58L269.714 180.082ZM279.643 168.129L288.145 166.818L287.573 163.105L279.071 164.416L270.569 165.726L271.141 169.439L279.643 168.129ZM279.071 164.416L276.169 156.318L265.362 160.19L268.264 168.288L271.166 176.386L281.973 172.514L279.071 164.416ZM268.264 168.288L265.409 160.174C262.609 161.159 259.053 162.565 256.424 165.114C254.921 166.57 253.673 168.429 253 170.718C252.348 172.934 252.385 175.043 252.66 176.824L261.162 175.514L269.664 174.204C269.662 174.189 269.75 174.742 269.506 175.573C269.24 176.477 268.755 177.122 268.399 177.467C268.128 177.73 268.068 177.687 268.589 177.424C269.095 177.17 269.887 176.837 271.119 176.403L268.264 168.288ZM309.115 187.497L300.613 188.807L310.425 195.999L309.115 187.497ZM299.515 125.214L298.205 116.712L291.013 126.525L299.515 125.214ZM321.554 121.817L330.056 120.507L320.244 113.315L321.554 121.817ZM323.289 133.076L314.787 134.387L331.675 134.996L323.289 133.076ZM343.961 117.628L352.463 116.318L342.651 109.126L343.961 117.628ZM347.081 137.87L348.391 146.372L355.583 136.56L347.081 137.87ZM331.633 184.027L332.943 192.528L340.135 182.716L331.633 184.027ZM309.115 187.497L317.617 186.187L308.017 123.904L299.515 125.214L291.013 126.525L300.613 188.807L309.115 187.497ZM299.515 125.214L300.826 133.716L322.864 130.319L321.554 121.817L320.244 113.315L298.205 116.712L299.515 125.214ZM321.554 121.817L313.052 123.128L314.787 134.387L323.289 133.076L331.791 131.766L330.056 120.507L321.554 121.817ZM323.289 133.076L331.675 134.996C332.364 131.984 333.469 130.287 334.559 129.266C335.644 128.25 337.292 127.36 340.001 126.942L338.691 118.44L337.38 109.939C331.944 110.776 326.882 112.883 322.797 116.71C318.717 120.532 316.193 125.525 314.904 131.157L323.289 133.076ZM338.691 118.44L340.001 126.942L345.271 126.13L343.961 117.628L342.651 109.126L337.38 109.939L338.691 118.44ZM343.961 117.628L335.459 118.939L338.579 139.181L347.081 137.87L355.583 136.56L352.463 116.318L343.961 117.628ZM347.081 137.87L345.77 129.368L339.303 130.365L340.613 138.867L341.923 147.369L348.391 146.372L347.081 137.87ZM340.613 138.867L339.303 130.365C333.08 131.324 326.515 133.641 322.387 139.622C318.365 145.447 318.1 152.694 319.217 159.945L327.719 158.634L336.221 157.324C335.345 151.639 336.256 149.814 336.545 149.396C336.726 149.133 337.606 148.034 341.923 147.369L340.613 138.867ZM327.719 158.634L319.217 159.945L323.131 185.337L331.633 184.027L340.135 182.716L336.221 157.324L327.719 158.634ZM331.633 184.027L330.322 175.525L307.805 178.995L309.115 187.497L310.425 195.999L332.943 192.528L331.633 184.027ZM350.406 97.7513L349.096 89.2494L341.904 99.0617L350.406 97.7513ZM372.924 94.2807L381.426 92.9703L371.613 85.7788L372.924 94.2807ZM375.878 113.445L367.376 114.755L377.188 121.947L375.878 113.445ZM390.25 111.229L398.752 109.919L388.94 102.727L390.25 111.229ZM392.687 127.04L393.998 135.542L401.189 125.729L392.687 127.04ZM378.314 129.255L377.004 120.753L369.812 130.565L378.314 129.255ZM397.413 157.702L405.915 156.392L396.103 149.2L397.413 157.702ZM399.85 173.512L401.16 182.014L408.352 172.202L399.85 173.512ZM355.797 132.726L364.299 131.415L354.486 124.224L355.797 132.726ZM345.736 134.276L337.234 135.587L347.046 142.778L345.736 134.276ZM343.299 118.466L341.988 109.964L334.797 119.776L343.299 118.466ZM353.36 116.915L354.67 125.417L361.862 115.605L353.36 116.915ZM350.406 97.7513L351.717 106.253L374.234 102.783L372.924 94.2807L371.613 85.7788L349.096 89.2494L350.406 97.7513ZM372.924 94.2807L364.422 95.5911L367.376 114.755L375.878 113.445L384.379 112.134L381.426 92.9703L372.924 94.2807ZM375.878 113.445L377.188 121.947L391.561 119.731L390.25 111.229L388.94 102.727L374.567 104.943L375.878 113.445ZM390.25 111.229L381.749 112.54L384.185 128.35L392.687 127.04L401.189 125.729L398.752 109.919L390.25 111.229ZM392.687 127.04L391.377 118.538L377.004 120.753L378.314 129.255L379.625 137.757L393.998 135.542L392.687 127.04ZM378.314 129.255L369.812 130.565L373.781 156.317L382.283 155.007L390.785 153.696L386.816 127.945L378.314 129.255ZM382.283 155.007L373.781 156.317C374.089 158.31 374.909 162.452 378.589 165.311C382.355 168.237 386.76 168.048 389.621 167.607L388.31 159.105L387 150.603C386.412 150.694 386.42 150.626 386.795 150.678C387.255 150.742 388.182 150.977 389.144 151.725C390.098 152.465 390.557 153.298 390.738 153.72C390.885 154.066 390.856 154.155 390.785 153.696L382.283 155.007ZM388.31 159.105L389.621 167.607L398.724 166.204L397.413 157.702L396.103 149.2L387 150.603L388.31 159.105ZM397.413 157.702L388.911 159.012L391.348 174.823L399.85 173.512L408.352 172.202L405.915 156.392L397.413 157.702ZM399.85 173.512L398.54 165.01L382.849 167.429L384.16 175.931L385.47 184.433L401.16 182.014L399.85 173.512ZM384.16 175.931L382.849 167.429C377.823 168.203 374.682 168.17 372.718 167.33C371.758 166.92 369.595 165.78 368.6 159.323L360.098 160.633L351.596 161.943C353.222 172.495 358.06 179.778 365.96 183.152C372.855 186.098 380.435 185.209 385.47 184.433L384.16 175.931ZM360.098 160.633L368.6 159.323L364.299 131.415L355.797 132.726L347.295 134.036L351.596 161.943L360.098 160.633ZM355.797 132.726L354.486 124.224L344.425 125.774L345.736 134.276L347.046 142.778L357.107 141.227L355.797 132.726ZM345.736 134.276L354.238 132.966L351.801 117.156L343.299 118.466L334.797 119.776L337.234 135.587L345.736 134.276ZM343.299 118.466L344.609 126.968L354.67 125.417L353.36 116.915L352.049 108.413L341.988 109.964L343.299 118.466ZM353.36 116.915L361.862 115.605L358.908 96.4409L350.406 97.7513L341.904 99.0617L344.858 118.226L353.36 116.915Z" fill="#806AEA"/>
<mask id="path-7-outside-2_1333_4467" maskUnits="userSpaceOnUse" x="40.673" y="78.6794" width="359.246" height="146.066" fill="black">
<rect fill="white" x="40.673" y="78.6794" width="359.246" height="146.066"/>
<path d="M95.2404 216.978C70.0877 220.855 54.8543 210.327 52.2419 192.582L75.7178 188.964C77.3882 199.007 85.0542 199.419 93.5583 198.108C100.865 196.982 105.212 193.369 104.529 188.938C103.994 185.464 101.533 183.023 85.6118 183.147C61.4808 183.311 50.8367 175.509 48.4553 160.059C46.1661 145.206 57.0716 131.631 80.3079 128.05C102.227 124.672 117.597 132.112 121.657 152.087L98.6602 155.631C97.0825 147.782 91.8115 145.406 83.1878 146.735C76.4804 147.769 72.5746 151.068 73.2023 155.141C73.7746 158.854 77.2304 161.387 90.8208 161.254C117.264 160.979 127.061 168.053 129.405 183.264C132.359 202.428 116.8 213.655 95.2404 216.978ZM208.72 163.437C207.834 157.688 205.502 152.897 199.393 153.839C192.207 154.947 191.379 160.715 192.265 166.464L197.397 199.761L174.88 203.232L169.674 169.455C168.788 163.706 166.455 158.916 160.347 159.857C153.16 160.965 152.333 166.733 153.219 172.482L158.351 205.779L135.833 209.25L126.234 146.967L148.272 143.57L149.638 152.434C152.806 145.937 158.112 140.582 166.496 139.29C173.922 138.146 181.349 140.189 186.317 147.761C190.25 140.656 196.679 134.638 205.542 133.272C216.682 131.555 227.694 136.97 230.795 157.092L236.444 193.743L213.926 197.214L208.72 163.437ZM281.339 186.824L280.397 180.715C276.115 187.138 270.421 189.978 262.037 191.27C249.101 193.264 237.988 187.987 236.031 175.291C234.314 164.152 240.265 158.207 259.188 152.103L274.731 147.132L274.472 145.455C274.029 142.581 272.757 139.098 265.57 140.206C259.582 141.129 257.979 145.054 258.423 147.929L236.144 151.363C233.929 136.99 245.167 127.165 262.894 124.432C283.016 121.331 294.24 127.326 296.086 139.304L302.898 183.501L281.339 186.824ZM258.779 170.927C259.333 174.52 262.54 176.233 267.331 175.494C273.679 174.516 278.404 170.967 277.26 163.541L276.688 159.828L265.881 163.701C260.298 165.665 258.225 167.333 258.779 170.927ZM306.732 182.91L297.133 120.627L319.171 117.23L320.906 128.489C322.885 119.846 328.163 115.108 336.308 113.853L341.578 113.041L344.698 133.283L338.23 134.28C327.69 135.904 323.342 141.111 325.336 154.047L329.25 179.439L306.732 182.91ZM348.023 93.1639L370.541 89.6933L373.495 108.857L387.868 106.642L390.304 122.452L375.931 124.668L379.9 150.419C380.399 153.653 381.615 155.182 385.927 154.518L395.03 153.115L397.467 168.925L381.777 171.343C371.715 172.894 360.336 173.054 357.715 156.046L353.414 128.138L343.353 129.689L340.916 113.879L350.977 112.328L348.023 93.1639Z"/>
</mask>
<path d="M95.2404 216.978C70.0877 220.855 54.8543 210.327 52.2419 192.582L75.7178 188.964C77.3882 199.007 85.0542 199.419 93.5583 198.108C100.865 196.982 105.212 193.369 104.529 188.938C103.994 185.464 101.533 183.023 85.6118 183.147C61.4808 183.311 50.8367 175.509 48.4553 160.059C46.1661 145.206 57.0716 131.631 80.3079 128.05C102.227 124.672 117.597 132.112 121.657 152.087L98.6602 155.631C97.0825 147.782 91.8115 145.406 83.1878 146.735C76.4804 147.769 72.5746 151.068 73.2023 155.141C73.7746 158.854 77.2304 161.387 90.8208 161.254C117.264 160.979 127.061 168.053 129.405 183.264C132.359 202.428 116.8 213.655 95.2404 216.978ZM208.72 163.437C207.834 157.688 205.502 152.897 199.393 153.839C192.207 154.947 191.379 160.715 192.265 166.464L197.397 199.761L174.88 203.232L169.674 169.455C168.788 163.706 166.455 158.916 160.347 159.857C153.16 160.965 152.333 166.733 153.219 172.482L158.351 205.779L135.833 209.25L126.234 146.967L148.272 143.57L149.638 152.434C152.806 145.937 158.112 140.582 166.496 139.29C173.922 138.146 181.349 140.189 186.317 147.761C190.25 140.656 196.679 134.638 205.542 133.272C216.682 131.555 227.694 136.97 230.795 157.092L236.444 193.743L213.926 197.214L208.72 163.437ZM281.339 186.824L280.397 180.715C276.115 187.138 270.421 189.978 262.037 191.27C249.101 193.264 237.988 187.987 236.031 175.291C234.314 164.152 240.265 158.207 259.188 152.103L274.731 147.132L274.472 145.455C274.029 142.581 272.757 139.098 265.57 140.206C259.582 141.129 257.979 145.054 258.423 147.929L236.144 151.363C233.929 136.99 245.167 127.165 262.894 124.432C283.016 121.331 294.24 127.326 296.086 139.304L302.898 183.501L281.339 186.824ZM258.779 170.927C259.333 174.52 262.54 176.233 267.331 175.494C273.679 174.516 278.404 170.967 277.26 163.541L276.688 159.828L265.881 163.701C260.298 165.665 258.225 167.333 258.779 170.927ZM306.732 182.91L297.133 120.627L319.171 117.23L320.906 128.489C322.885 119.846 328.163 115.108 336.308 113.853L341.578 113.041L344.698 133.283L338.23 134.28C327.69 135.904 323.342 141.111 325.336 154.047L329.25 179.439L306.732 182.91ZM348.023 93.1639L370.541 89.6933L373.495 108.857L387.868 106.642L390.304 122.452L375.931 124.668L379.9 150.419C380.399 153.653 381.615 155.182 385.927 154.518L395.03 153.115L397.467 168.925L381.777 171.343C371.715 172.894 360.336 173.054 357.715 156.046L353.414 128.138L343.353 129.689L340.916 113.879L350.977 112.328L348.023 93.1639Z" fill="#EEECF8"/>
<path d="M52.2419 192.582L52.0235 191.165L50.8235 192.791L52.2419 192.582ZM75.7178 188.964L77.132 188.729L75.4994 187.547L75.7178 188.964ZM85.6118 183.147L85.6215 184.581L85.623 184.581L85.6118 183.147ZM121.657 152.087L121.875 153.504L123.062 151.801L121.657 152.087ZM98.6602 155.631L97.2546 155.914L98.8786 157.048L98.6602 155.631ZM90.8208 161.254L90.8348 162.688L90.8357 162.688L90.8208 161.254ZM95.2404 216.978L95.022 215.561C82.6667 217.465 72.9354 215.803 66.0259 211.659C59.1498 207.535 54.91 200.862 53.6603 192.374L52.2419 192.582L50.8235 192.791C52.1862 202.047 56.8692 209.511 64.5511 214.118C72.1996 218.705 82.6613 220.367 95.4588 218.395L95.2404 216.978ZM52.2419 192.582L52.4603 193.999L75.9362 190.381L75.7178 188.964L75.4994 187.547L52.0235 191.165L52.2419 192.582ZM75.7178 188.964L74.3035 189.199C74.7496 191.881 75.6134 194.023 76.8725 195.681C78.1393 197.349 79.7518 198.454 81.5724 199.136C85.1367 200.472 89.5059 200.184 93.7767 199.525L93.5583 198.108L93.3399 196.691C89.1066 197.344 85.3908 197.505 82.5785 196.451C81.2108 195.939 80.062 195.14 79.1559 193.947C78.2421 192.744 77.5211 191.068 77.132 188.729L75.7178 188.964ZM93.5583 198.108L93.7767 199.525C97.5906 198.938 100.779 197.682 102.958 195.863C105.173 194.015 106.38 191.533 105.946 188.719L104.529 188.938L103.112 189.156C103.362 190.774 102.736 192.314 101.121 193.662C99.4706 195.039 96.8322 196.153 93.3399 196.691L93.5583 198.108ZM104.529 188.938L105.946 188.719C105.791 187.711 105.476 186.646 104.72 185.671C103.964 184.697 102.865 183.937 101.356 183.355C98.4083 182.221 93.5719 181.652 85.6006 181.714L85.6118 183.147L85.623 184.581C93.5732 184.519 97.9279 185.108 100.325 186.031C101.488 186.479 102.1 186.972 102.454 187.429C102.807 187.884 103 188.427 103.112 189.156L104.529 188.938ZM85.6118 183.147L85.6021 181.714C73.6547 181.795 65.2898 179.895 59.6556 176.254C54.0957 172.661 51.0148 167.253 49.8722 159.84L48.4553 160.059L47.0383 160.277C48.2772 168.315 51.709 174.533 58.0993 178.662C64.4153 182.744 73.438 184.664 85.6215 184.581L85.6118 183.147ZM48.4553 160.059L49.8722 159.84C48.7953 152.853 50.8098 146.187 55.8552 140.809C60.9236 135.405 69.1312 131.223 80.5263 129.467L80.3079 128.05L80.0895 126.633C68.2483 128.458 59.385 132.854 53.7639 138.847C48.1197 144.864 45.8261 152.412 47.0383 160.277L48.4553 160.059ZM80.3079 128.05L80.5263 129.467C91.3035 127.806 100.27 128.839 106.984 132.565C113.647 136.263 118.291 142.723 120.252 152.372L121.657 152.087L123.062 151.801C120.963 141.476 115.892 134.229 108.375 130.058C100.909 125.914 91.2311 124.916 80.0895 126.633L80.3079 128.05ZM121.657 152.087L121.439 150.67L98.4418 154.214L98.6602 155.631L98.8786 157.048L121.875 153.504L121.657 152.087ZM98.6602 155.631L100.066 155.349C99.219 151.135 97.3182 148.148 94.2508 146.481C91.2558 144.854 87.4102 144.633 82.9694 145.318L83.1878 146.735L83.4062 148.152C87.5891 147.507 90.6909 147.81 92.8817 149.001C95.0002 150.152 96.5238 152.277 97.2546 155.914L98.6602 155.631ZM83.1878 146.735L82.9694 145.318C79.4556 145.86 76.5236 147.014 74.5205 148.702C72.4782 150.423 71.3812 152.737 71.7853 155.359L73.2023 155.141L74.6193 154.922C74.3957 153.472 74.9377 152.1 76.3682 150.895C77.8379 149.656 80.2126 148.644 83.4062 148.152L83.1878 146.735ZM73.2023 155.141L71.7853 155.359C71.9592 156.487 72.3656 157.594 73.1737 158.586C73.976 159.572 75.1036 160.358 76.5856 160.966C79.4978 162.161 84.0006 162.754 90.8348 162.688L90.8208 161.254L90.8068 159.82C84.0507 159.886 80.0304 159.28 77.6739 158.313C76.5216 157.84 75.8286 157.305 75.3972 156.776C74.9717 156.253 74.7315 155.651 74.6193 154.922L73.2023 155.141ZM90.8208 161.254L90.8357 162.688C103.981 162.551 112.712 164.254 118.412 167.681C124 171.04 126.862 176.175 127.988 183.483L129.405 183.264L130.822 183.046C129.604 175.142 126.396 169.135 119.889 165.223C113.493 161.378 104.104 159.682 90.8059 159.82L90.8208 161.254ZM129.405 183.264L127.988 183.483C129.389 192.573 126.423 199.694 120.554 204.998C114.621 210.36 105.644 213.924 95.022 215.561L95.2404 216.978L95.4588 218.395C106.396 216.709 115.979 212.998 122.477 207.125C129.039 201.194 132.375 193.12 130.822 183.046L129.405 183.264ZM197.397 199.761L197.616 201.178L198.814 199.543L197.397 199.761ZM174.88 203.232L173.463 203.45L175.098 204.649L174.88 203.232ZM158.351 205.779L158.569 207.196L159.768 205.561L158.351 205.779ZM135.833 209.25L134.416 209.468L136.051 210.667L135.833 209.25ZM126.234 146.967L126.015 145.55L124.817 147.186L126.234 146.967ZM148.272 143.57L149.689 143.352L148.054 142.153L148.272 143.57ZM149.638 152.434L148.221 152.652L150.927 153.062L149.638 152.434ZM186.317 147.761L185.118 148.548L187.572 148.456L186.317 147.761ZM236.444 193.743L236.662 195.16L237.861 193.525L236.444 193.743ZM213.926 197.214L212.509 197.432L214.145 198.631L213.926 197.214ZM208.72 163.437L210.137 163.219C209.682 160.267 208.829 157.324 207.129 155.226C205.334 153.011 202.707 151.878 199.175 152.422L199.393 153.839L199.612 155.256C202.188 154.859 203.781 155.649 204.901 157.032C206.116 158.531 206.872 160.858 207.303 163.656L208.72 163.437ZM199.393 153.839L199.175 152.422C195.152 153.042 192.698 155.039 191.486 157.842C190.33 160.514 190.392 163.72 190.848 166.682L192.265 166.464L193.682 166.245C193.253 163.459 193.285 160.906 194.118 158.98C194.895 157.184 196.448 155.743 199.612 155.256L199.393 153.839ZM192.265 166.464L190.848 166.682L195.98 199.98L197.397 199.761L198.814 199.543L193.682 166.245L192.265 166.464ZM197.397 199.761L197.179 198.344L174.661 201.815L174.88 203.232L175.098 204.649L197.616 201.178L197.397 199.761ZM174.88 203.232L176.297 203.013L171.091 169.237L169.674 169.455L168.257 169.674L173.463 203.45L174.88 203.232ZM169.674 169.455L171.091 169.237C170.636 166.285 169.783 163.343 168.083 161.245C166.288 159.03 163.66 157.896 160.128 158.44L160.347 159.857L160.565 161.274C163.142 160.877 164.735 161.668 165.855 163.05C167.07 164.549 167.826 166.876 168.257 169.674L169.674 169.455ZM160.347 159.857L160.128 158.44C156.105 159.06 153.652 161.057 152.44 163.86C151.284 166.532 151.345 169.738 151.802 172.7L153.219 172.482L154.636 172.264C154.206 169.477 154.238 166.924 155.071 164.998C155.848 163.202 157.402 161.762 160.565 161.274L160.347 159.857ZM153.219 172.482L151.802 172.7L156.934 205.998L158.351 205.779L159.768 205.561L154.636 172.264L153.219 172.482ZM158.351 205.779L158.132 204.362L135.615 207.833L135.833 209.25L136.051 210.667L158.569 207.196L158.351 205.779ZM135.833 209.25L137.25 209.032L127.65 146.749L126.234 146.967L124.817 147.186L134.416 209.468L135.833 209.25ZM126.234 146.967L126.452 148.384L148.49 144.987L148.272 143.57L148.054 142.153L126.015 145.55L126.234 146.967ZM148.272 143.57L146.855 143.789L148.221 152.652L149.638 152.434L151.055 152.215L149.689 143.352L148.272 143.57ZM149.638 152.434L150.927 153.062C153.949 146.864 158.916 141.909 166.714 140.707L166.496 139.29L166.277 137.873C157.307 139.256 151.663 145.01 148.349 151.805L149.638 152.434ZM166.496 139.29L166.714 140.707C173.703 139.63 180.518 141.537 185.118 148.548L186.317 147.761L187.516 146.975C182.179 138.841 174.141 136.661 166.277 137.873L166.496 139.29ZM186.317 147.761L187.572 148.456C191.361 141.609 197.464 135.968 205.761 134.689L205.542 133.272L205.324 131.855C195.894 133.308 189.138 139.703 185.063 147.067L186.317 147.761ZM205.542 133.272L205.761 134.689C211.034 133.876 216.136 134.765 220.283 138.109C224.447 141.465 227.861 147.467 229.378 157.31L230.795 157.092L232.212 156.874C230.628 146.595 226.985 139.828 222.083 135.876C217.164 131.911 211.19 130.951 205.324 131.855L205.542 133.272ZM230.795 157.092L229.378 157.31L235.027 193.961L236.444 193.743L237.861 193.525L232.212 156.874L230.795 157.092ZM236.444 193.743L236.225 192.326L213.708 195.797L213.926 197.214L214.145 198.631L236.662 195.16L236.444 193.743ZM213.926 197.214L215.343 196.995L210.137 163.219L208.72 163.437L207.303 163.656L212.509 197.432L213.926 197.214ZM281.339 186.824L279.922 187.042L281.557 188.24L281.339 186.824ZM280.397 180.715L281.814 180.497L279.204 179.92L280.397 180.715ZM259.188 152.103L258.752 150.737L258.748 150.738L259.188 152.103ZM274.731 147.132L275.168 148.498L276.148 146.914L274.731 147.132ZM258.423 147.929L258.641 149.346L259.84 147.711L258.423 147.929ZM236.144 151.363L234.727 151.581L236.363 152.78L236.144 151.363ZM302.898 183.501L303.117 184.918L304.315 183.282L302.898 183.501ZM276.688 159.828L278.105 159.61L276.204 158.479L276.688 159.828ZM265.881 163.701L266.357 165.054L266.365 165.051L265.881 163.701ZM281.339 186.824L282.756 186.605L281.814 180.497L280.397 180.715L278.98 180.933L279.922 187.042L281.339 186.824ZM280.397 180.715L279.204 179.92C275.21 185.911 269.937 188.602 261.819 189.853L262.037 191.27L262.255 192.687C270.906 191.354 277.02 188.365 281.59 181.51L280.397 180.715ZM262.037 191.27L261.819 189.853C255.583 190.814 249.919 190.001 245.63 187.545C241.383 185.113 238.363 181.006 237.448 175.073L236.031 175.291L234.614 175.509C235.657 182.272 239.172 187.151 244.205 190.033C249.195 192.891 255.555 193.72 262.255 192.687L262.037 191.27ZM236.031 175.291L237.448 175.073C236.643 169.851 237.636 166.073 240.884 162.822C244.263 159.441 250.192 156.511 259.629 153.467L259.188 152.103L258.748 150.738C249.262 153.799 242.754 156.894 238.855 160.796C234.827 164.828 233.702 169.592 234.614 175.509L236.031 175.291ZM259.188 152.103L259.625 153.468L275.168 148.498L274.731 147.132L274.294 145.767L258.752 150.737L259.188 152.103ZM274.731 147.132L276.148 146.914L275.889 145.237L274.472 145.455L273.055 145.674L273.314 147.351L274.731 147.132ZM274.472 145.455L275.889 145.237C275.657 143.732 275.167 141.694 273.484 140.249C271.764 138.773 269.152 138.203 265.352 138.789L265.57 140.206L265.789 141.623C269.175 141.101 270.793 141.718 271.616 142.425C272.477 143.164 272.844 144.304 273.055 145.674L274.472 145.455ZM265.57 140.206L265.352 138.789C262.065 139.295 259.8 140.662 258.438 142.474C257.089 144.27 256.731 146.368 257.006 148.147L258.423 147.929L259.84 147.711C259.671 146.615 259.892 145.313 260.731 144.197C261.557 143.097 263.087 142.039 265.789 141.623L265.57 140.206ZM258.423 147.929L258.204 146.512L235.926 149.946L236.144 151.363L236.363 152.78L258.641 149.346L258.423 147.929ZM236.144 151.363L237.561 151.144C236.526 144.427 238.617 138.84 243.038 134.563C247.507 130.239 254.435 127.187 263.112 125.849L262.894 124.432L262.676 123.015C253.626 124.41 246.072 127.637 241.044 132.502C235.968 137.413 233.547 143.925 234.727 151.581L236.144 151.363ZM262.894 124.432L263.112 125.849C273.03 124.321 280.543 125.072 285.734 127.511C290.844 129.912 293.817 133.994 294.669 139.522L296.086 139.304L297.503 139.085C296.509 132.636 292.948 127.732 286.953 124.916C281.041 122.138 272.881 121.443 262.676 123.015L262.894 124.432ZM296.086 139.304L294.669 139.522L301.481 183.719L302.898 183.501L304.315 183.282L297.503 139.085L296.086 139.304ZM302.898 183.501L302.68 182.084L281.12 185.407L281.339 186.824L281.557 188.24L303.117 184.918L302.898 183.501ZM258.779 170.927L257.362 171.145C257.704 173.365 258.903 175.091 260.79 176.099C262.623 177.078 264.964 177.31 267.549 176.911L267.331 175.494L267.112 174.077C264.906 174.417 263.249 174.162 262.141 173.57C261.089 173.008 260.408 172.082 260.196 170.708L258.779 170.927ZM267.331 175.494L267.549 176.911C270.897 176.395 274.015 175.176 276.147 172.921C278.332 170.609 279.305 167.397 278.677 163.323L277.26 163.541L275.843 163.76C276.359 167.111 275.542 169.387 274.063 170.951C272.531 172.571 270.113 173.615 267.112 174.077L267.331 175.494ZM277.26 163.541L278.677 163.323L278.105 159.61L276.688 159.828L275.271 160.047L275.843 163.76L277.26 163.541ZM276.688 159.828L276.204 158.479L265.397 162.351L265.881 163.701L266.365 165.051L277.171 161.178L276.688 159.828ZM265.881 163.701L265.405 162.349C262.612 163.331 260.425 164.322 259.031 165.673C258.302 166.379 257.776 167.195 257.494 168.153C257.216 169.1 257.201 170.099 257.362 171.145L258.779 170.927L260.196 170.708C260.08 169.957 260.116 169.401 260.245 168.963C260.371 168.536 260.608 168.138 261.027 167.732C261.926 166.86 263.567 166.035 266.357 165.054L265.881 163.701ZM306.732 182.91L305.315 183.128L306.95 184.327L306.732 182.91ZM297.133 120.627L296.914 119.21L295.716 120.845L297.133 120.627ZM319.171 117.23L320.588 117.012L318.953 115.813L319.171 117.23ZM320.906 128.489L319.489 128.707L322.304 128.809L320.906 128.489ZM341.578 113.041L342.995 112.822L341.36 111.624L341.578 113.041ZM344.698 133.283L344.916 134.7L346.115 133.064L344.698 133.283ZM329.25 179.439L329.468 180.856L330.667 179.221L329.25 179.439ZM306.732 182.91L308.149 182.691L298.549 120.408L297.133 120.627L295.716 120.845L305.315 183.128L306.732 182.91ZM297.133 120.627L297.351 122.044L319.389 118.647L319.171 117.23L318.953 115.813L296.914 119.21L297.133 120.627ZM319.171 117.23L317.754 117.448L319.489 128.707L320.906 128.489L322.323 128.27L320.588 117.012L319.171 117.23ZM320.906 128.489L322.304 128.809C323.243 124.706 324.939 121.635 327.275 119.447C329.61 117.259 332.681 115.863 336.526 115.27L336.308 113.853L336.089 112.436C331.79 113.099 328.15 114.698 325.315 117.354C322.481 120.009 320.548 123.629 319.509 128.169L320.906 128.489ZM336.308 113.853L336.526 115.27L341.796 114.458L341.578 113.041L341.36 111.624L336.089 112.436L336.308 113.853ZM341.578 113.041L340.161 113.259L343.281 133.501L344.698 133.283L346.115 133.064L342.995 112.822L341.578 113.041ZM344.698 133.283L344.479 131.866L338.012 132.863L338.23 134.28L338.448 135.697L344.916 134.7L344.698 133.283ZM338.23 134.28L338.012 132.863C332.583 133.699 328.387 135.509 325.903 139.107C323.437 142.679 322.902 147.667 323.919 154.265L325.336 154.047L326.753 153.828C325.776 147.491 326.419 143.407 328.263 140.736C330.089 138.091 333.337 136.484 338.448 135.697L338.23 134.28ZM325.336 154.047L323.919 154.265L327.833 179.657L329.25 179.439L330.667 179.221L326.753 153.828L325.336 154.047ZM329.25 179.439L329.031 178.022L306.514 181.493L306.732 182.91L306.95 184.327L329.468 180.856L329.25 179.439ZM348.023 93.1639L347.805 91.7469L346.606 93.3823L348.023 93.1639ZM370.541 89.6933L371.958 89.4749L370.322 88.2763L370.541 89.6933ZM373.495 108.857L372.078 109.076L373.713 110.274L373.495 108.857ZM387.868 106.642L389.285 106.424L387.649 105.225L387.868 106.642ZM390.304 122.452L390.523 123.869L391.721 122.234L390.304 122.452ZM375.931 124.668L375.713 123.251L374.514 124.886L375.931 124.668ZM395.03 153.115L396.447 152.896L394.812 151.698L395.03 153.115ZM397.467 168.925L397.685 170.342L398.884 168.706L397.467 168.925ZM353.414 128.138L354.831 127.92L353.195 126.721L353.414 128.138ZM343.353 129.689L341.936 129.907L343.571 131.106L343.353 129.689ZM340.916 113.879L340.697 112.462L339.499 114.097L340.916 113.879ZM350.977 112.328L351.195 113.745L352.394 112.109L350.977 112.328ZM348.023 93.1639L348.242 94.5809L370.759 91.1103L370.541 89.6933L370.322 88.2763L347.805 91.7469L348.023 93.1639ZM370.541 89.6933L369.124 89.9117L372.078 109.076L373.495 108.857L374.912 108.639L371.958 89.4749L370.541 89.6933ZM373.495 108.857L373.713 110.274L388.086 108.059L387.868 106.642L387.649 105.225L373.276 107.44L373.495 108.857ZM387.868 106.642L386.451 106.86L388.887 122.671L390.304 122.452L391.721 122.234L389.285 106.424L387.868 106.642ZM390.304 122.452L390.086 121.035L375.713 123.251L375.931 124.668L376.15 126.085L390.523 123.869L390.304 122.452ZM375.931 124.668L374.514 124.886L378.483 150.638L379.9 150.419L381.317 150.201L377.348 124.449L375.931 124.668ZM379.9 150.419L378.483 150.638C378.742 152.317 379.236 154 380.604 155.063C381.986 156.136 383.872 156.285 386.146 155.935L385.927 154.518L385.709 153.101C383.671 153.415 382.792 153.131 382.363 152.798C381.92 152.454 381.557 151.755 381.317 150.201L379.9 150.419ZM385.927 154.518L386.146 155.935L395.249 154.532L395.03 153.115L394.812 151.698L385.709 153.101L385.927 154.518ZM395.03 153.115L393.613 153.333L396.05 169.143L397.467 168.925L398.884 168.706L396.447 152.896L395.03 153.115ZM397.467 168.925L397.249 167.508L381.558 169.926L381.777 171.343L381.995 172.76L397.685 170.342L397.467 168.925ZM381.777 171.343L381.558 169.926C376.528 170.701 371.538 171.052 367.519 169.335C363.667 167.69 360.39 163.99 359.132 155.827L357.715 156.046L356.298 156.264C357.661 165.109 361.384 169.833 366.393 171.972C371.234 174.04 376.964 173.536 381.995 172.76L381.777 171.343ZM357.715 156.046L359.132 155.827L354.831 127.92L353.414 128.138L351.997 128.357L356.298 156.264L357.715 156.046ZM353.414 128.138L353.195 126.721L343.134 128.272L343.353 129.689L343.571 131.106L353.632 129.555L353.414 128.138ZM343.353 129.689L344.77 129.47L342.333 113.66L340.916 113.879L339.499 114.097L341.936 129.907L343.353 129.689ZM340.916 113.879L341.134 115.296L351.195 113.745L350.977 112.328L350.758 110.911L340.697 112.462L340.916 113.879ZM350.977 112.328L352.394 112.109L349.44 92.9455L348.023 93.1639L346.606 93.3823L349.56 112.546L350.977 112.328Z" fill="#806AEA" mask="url(#path-7-outside-2_1333_4467)"/>
</g>
<defs>
<filter id="filter0_d_1333_4467" x="21.4393" y="83.355" width="452.721" height="274.157" filterUnits="userSpaceOnUse" color-interpolation-filters="sRGB">
<feFlood flood-opacity="0" result="BackgroundImageFix"/>
<feColorMatrix in="SourceAlpha" type="matrix" values="0 0 0 0 0 0 0 0 0 0 0 0 0 0 0 0 0 0 127 0" result="hardAlpha"/>
<feOffset dy="2.42378"/>
<feGaussianBlur stdDeviation="2.42378"/>
<feComposite in2="hardAlpha" operator="out"/>
<feColorMatrix type="matrix" values="0 0 0 0 0 0 0 0 0 0 0 0 0 0 0 0 0 0 0.71 0"/>
<feBlend mode="normal" in2="BackgroundImageFix" result="effect1_dropShadow_1333_4467"/>
<feBlend mode="normal" in="SourceGraphic" in2="effect1_dropShadow_1333_4467" result="shape"/>
</filter>
</defs>
</svg>
