<svg width="473" height="339" viewBox="0 0 473 339" fill="none" xmlns="http://www.w3.org/2000/svg">
<mask id="path-1-outside-1_214_3364" maskUnits="userSpaceOnUse" x="-0.366699" y="198.267" width="473" height="127" fill="black">
<rect fill="white" x="-0.366699" y="198.267" width="473" height="127"/>
<path d="M83.4539 302.267L78.8346 288.634H46.2739L41.6546 302.267H20.9239L50.3299 221.147H74.6659L104.973 302.267H83.4539ZM51.9073 271.621H73.2013L62.4979 239.962L51.9073 271.621ZM147.449 303.619C120.409 303.619 105.762 284.803 105.762 261.707C105.762 238.61 120.409 219.795 147.449 219.795C168.968 219.795 182.939 233.089 185.643 251.003H165.025C162.884 243.229 156.8 237.709 147.449 237.709C132.689 237.709 126.943 248.75 126.943 261.707C126.943 274.663 132.689 285.705 147.449 285.705C157.476 285.705 163.222 279.395 165.137 270.72H185.755C183.615 289.535 169.644 303.619 147.449 303.619ZM212.093 302.267V239.399H187.644V221.147H257.047V239.399H232.598V302.267H212.093ZM262.303 302.267V221.147H282.695V302.267H262.303ZM331.144 303.619C304.104 303.619 289.457 284.803 289.457 261.707C289.457 238.61 304.104 219.795 331.144 219.795C358.071 219.795 372.718 238.61 372.718 261.707C372.718 284.803 358.071 303.619 331.144 303.619ZM310.638 261.707C310.638 274.663 316.384 285.705 331.144 285.705C345.79 285.705 351.536 274.663 351.536 261.707C351.536 248.75 345.79 237.709 331.144 237.709C316.384 237.709 310.638 248.75 310.638 261.707ZM429.509 302.267L398.976 249.764V302.267H379.485V221.147H401.342L431.875 273.537V221.147H451.366V302.267H429.509Z"/>
</mask>
<path d="M83.4539 302.267L78.8346 288.634H46.2739L41.6546 302.267H20.9239L50.3299 221.147H74.6659L104.973 302.267H83.4539ZM51.9073 271.621H73.2013L62.4979 239.962L51.9073 271.621ZM147.449 303.619C120.409 303.619 105.762 284.803 105.762 261.707C105.762 238.61 120.409 219.795 147.449 219.795C168.968 219.795 182.939 233.089 185.643 251.003H165.025C162.884 243.229 156.8 237.709 147.449 237.709C132.689 237.709 126.943 248.75 126.943 261.707C126.943 274.663 132.689 285.705 147.449 285.705C157.476 285.705 163.222 279.395 165.137 270.72H185.755C183.615 289.535 169.644 303.619 147.449 303.619ZM212.093 302.267V239.399H187.644V221.147H257.047V239.399H232.598V302.267H212.093ZM262.303 302.267V221.147H282.695V302.267H262.303ZM331.144 303.619C304.104 303.619 289.457 284.803 289.457 261.707C289.457 238.61 304.104 219.795 331.144 219.795C358.071 219.795 372.718 238.61 372.718 261.707C372.718 284.803 358.071 303.619 331.144 303.619ZM310.638 261.707C310.638 274.663 316.384 285.705 331.144 285.705C345.79 285.705 351.536 274.663 351.536 261.707C351.536 248.75 345.79 237.709 331.144 237.709C316.384 237.709 310.638 248.75 310.638 261.707ZM429.509 302.267L398.976 249.764V302.267H379.485V221.147H401.342L431.875 273.537V221.147H451.366V302.267H429.509Z" fill="#EDEDF7"/>
<path d="M83.4539 302.267L63.6369 308.982C66.5149 317.475 74.4858 323.19 83.4539 323.19V302.267ZM78.8346 288.634L98.6517 281.919C95.7736 273.425 87.8027 267.71 78.8346 267.71V288.634ZM46.2739 288.634V267.71C37.3058 267.71 29.3349 273.425 26.4569 281.919L46.2739 288.634ZM41.6546 302.267V323.19C50.6227 323.19 58.5936 317.475 61.4717 308.982L41.6546 302.267ZM20.9239 302.267L1.25271 295.136C-1.07218 301.549 -0.12455 308.694 3.79196 314.279C7.70847 319.865 14.102 323.19 20.9239 323.19V302.267ZM50.3299 221.147V200.223C41.5236 200.223 33.6599 205.737 30.6587 214.016L50.3299 221.147ZM74.6659 221.147L94.2664 213.824C91.2106 205.645 83.3972 200.223 74.6659 200.223V221.147ZM104.973 302.267V323.19C111.831 323.19 118.254 319.83 122.164 314.195C126.074 308.561 126.974 301.368 124.574 294.944L104.973 302.267ZM51.9073 271.621L32.0643 264.983C29.9293 271.366 30.9944 278.385 34.9265 283.847C38.8585 289.308 45.1775 292.545 51.9073 292.545V271.621ZM73.2013 271.621V292.545C79.9428 292.545 86.2714 289.297 90.2016 283.819C94.1318 278.342 95.1821 271.307 93.0229 264.92L73.2013 271.621ZM62.4979 239.962L82.3196 233.261C79.4418 224.748 71.4502 219.024 62.4645 219.038C53.4788 219.053 45.5056 224.803 42.6549 233.324L62.4979 239.962ZM83.4539 302.267L103.271 295.552L98.6517 281.919L78.8346 288.634L59.0175 295.349L63.6369 308.982L83.4539 302.267ZM78.8346 288.634V267.71H46.2739V288.634V309.558H78.8346V288.634ZM46.2739 288.634L26.4569 281.919L21.8375 295.552L41.6546 302.267L61.4717 308.982L66.091 295.349L46.2739 288.634ZM41.6546 302.267V281.343H20.9239V302.267V323.19H41.6546V302.267ZM20.9239 302.267L40.5952 309.397L70.0012 228.277L50.3299 221.147L30.6587 214.016L1.25271 295.136L20.9239 302.267ZM50.3299 221.147V242.07H74.6659V221.147V200.223H50.3299V221.147ZM74.6659 221.147L55.0654 228.47L85.3728 309.59L104.973 302.267L124.574 294.944L94.2664 213.824L74.6659 221.147ZM104.973 302.267V281.343H83.4539V302.267V323.19H104.973V302.267ZM51.9073 271.621V292.545H73.2013V271.621V250.698H51.9073V271.621ZM73.2013 271.621L93.0229 264.92L82.3196 233.261L62.4979 239.962L42.6763 246.663L53.3796 278.323L73.2013 271.621ZM62.4979 239.962L42.6549 233.324L32.0643 264.983L51.9073 271.621L71.7503 278.259L82.3409 246.6L62.4979 239.962ZM185.643 251.003V271.927C191.737 271.927 197.529 269.27 201.504 264.65C205.479 260.03 207.242 253.907 206.332 247.88L185.643 251.003ZM165.025 251.003L144.852 256.558C147.352 265.637 155.608 271.927 165.025 271.927V251.003ZM165.137 270.72V249.796C155.32 249.796 146.822 256.622 144.706 266.209L165.137 270.72ZM185.755 270.72L206.545 273.085C207.219 267.162 205.334 261.233 201.365 256.786C197.395 252.339 191.716 249.796 185.755 249.796V270.72ZM147.449 303.619V282.695C139.067 282.695 134.446 279.94 131.805 277.094C128.939 274.004 126.686 268.908 126.686 261.707H105.762H84.8381C84.8381 277.602 89.9079 293.462 101.125 305.554C112.568 317.889 128.79 324.542 147.449 324.542V303.619ZM105.762 261.707H126.686C126.686 254.506 128.939 249.409 131.805 246.319C134.446 243.473 139.067 240.718 147.449 240.718V219.795V198.871C128.79 198.871 112.568 205.524 101.125 217.859C89.9079 229.952 84.8381 245.811 84.8381 261.707H105.762ZM147.449 219.795V240.718C158.772 240.718 163.817 246.598 164.953 254.126L185.643 251.003L206.332 247.88C202.06 219.581 179.164 198.871 147.449 198.871V219.795ZM185.643 251.003V230.08H165.025V251.003V271.927H185.643V251.003ZM165.025 251.003L185.198 245.448C180.753 229.308 166.935 216.785 147.449 216.785V237.709V258.632C147.714 258.632 147.6 258.669 147.228 258.545C146.845 258.417 146.375 258.181 145.917 257.817C144.951 257.049 144.794 256.348 144.852 256.558L165.025 251.003ZM147.449 237.709V216.785C134.173 216.785 122.546 222.118 114.916 232.303C107.982 241.558 106.019 252.574 106.019 261.707H126.943H147.867C147.867 259.967 148.065 258.715 148.276 257.931C148.486 257.153 148.637 257.087 148.407 257.395C148.286 257.556 148.09 257.777 147.812 258.008C147.53 258.241 147.236 258.423 146.971 258.548C146.399 258.819 146.395 258.632 147.449 258.632V237.709ZM126.943 261.707H106.019C106.019 270.839 107.982 281.855 114.916 291.11C122.546 301.295 134.173 306.628 147.449 306.628V285.705V264.781C146.395 264.781 146.399 264.594 146.971 264.865C147.236 264.991 147.53 265.172 147.812 265.406C148.09 265.636 148.286 265.858 148.407 266.019C148.637 266.326 148.486 266.261 148.276 265.482C148.065 264.698 147.867 263.446 147.867 261.707H126.943ZM147.449 285.705V306.628C157.157 306.628 166.265 303.44 173.406 296.951C180.274 290.711 183.917 282.713 185.569 275.231L165.137 270.72L144.706 266.209C144.442 267.403 144.254 266.897 145.264 265.98C145.777 265.514 146.382 265.155 146.957 264.943C147.512 264.74 147.741 264.781 147.449 264.781V285.705ZM165.137 270.72V291.644H185.755V270.72V249.796H165.137V270.72ZM185.755 270.72L164.966 268.355C164.413 273.21 162.487 276.55 160.136 278.663C157.856 280.712 153.967 282.695 147.449 282.695V303.619V324.542C163.126 324.542 177.32 319.484 188.109 309.788C198.828 300.154 204.957 287.045 206.545 273.085L185.755 270.72ZM212.093 302.267H191.169C191.169 313.823 200.537 323.19 212.093 323.19V302.267ZM212.093 239.399H233.017C233.017 227.843 223.649 218.475 212.093 218.475V239.399ZM187.644 239.399H166.72C166.72 250.955 176.088 260.322 187.644 260.322V239.399ZM187.644 221.147V200.223C176.088 200.223 166.72 209.591 166.72 221.147H187.644ZM257.047 221.147H277.971C277.971 209.591 268.603 200.223 257.047 200.223V221.147ZM257.047 239.399V260.322C268.603 260.322 277.971 250.955 277.971 239.399H257.047ZM232.598 239.399V218.475C221.042 218.475 211.674 227.843 211.674 239.399H232.598ZM232.598 302.267V323.19C244.154 323.19 253.522 313.823 253.522 302.267H232.598ZM212.093 302.267H233.017V239.399H212.093H191.169V302.267H212.093ZM212.093 239.399V218.475H187.644V239.399V260.322H212.093V239.399ZM187.644 239.399H208.568V221.147H187.644H166.72V239.399H187.644ZM187.644 221.147V242.07H257.047V221.147V200.223H187.644V221.147ZM257.047 221.147H236.123V239.399H257.047H277.971V221.147H257.047ZM257.047 239.399V218.475H232.598V239.399V260.322H257.047V239.399ZM232.598 239.399H211.674V302.267H232.598H253.522V239.399H232.598ZM232.598 302.267V281.343H212.093V302.267V323.19H232.598V302.267ZM262.303 302.267H241.379C241.379 313.823 250.747 323.19 262.303 323.19V302.267ZM262.303 221.147V200.223C250.747 200.223 241.379 209.591 241.379 221.147H262.303ZM282.695 221.147H303.619C303.619 209.591 294.251 200.223 282.695 200.223V221.147ZM282.695 302.267V323.19C294.251 323.19 303.619 313.823 303.619 302.267H282.695ZM262.303 302.267H283.226V221.147H262.303H241.379V302.267H262.303ZM262.303 221.147V242.07H282.695V221.147V200.223H262.303V221.147ZM282.695 221.147H261.771V302.267H282.695H303.619V221.147H282.695ZM282.695 302.267V281.343H262.303V302.267V323.19H282.695V302.267ZM331.144 303.619V282.695C322.762 282.695 318.141 279.94 315.5 277.094C312.634 274.004 310.381 268.908 310.381 261.707H289.457H268.533C268.533 277.602 273.603 293.462 284.82 305.554C296.263 317.889 312.485 324.542 331.144 324.542V303.619ZM289.457 261.707H310.381C310.381 254.506 312.634 249.409 315.5 246.319C318.141 243.473 322.762 240.718 331.144 240.718V219.795V198.871C312.485 198.871 296.263 205.524 284.82 217.859C273.603 229.952 268.533 245.811 268.533 261.707H289.457ZM331.144 219.795V240.718C339.443 240.718 344.037 243.455 346.674 246.304C349.539 249.399 351.794 254.505 351.794 261.707H372.718H393.642C393.642 245.812 388.573 229.962 377.383 217.875C365.965 205.542 349.772 198.871 331.144 198.871V219.795ZM372.718 261.707H351.794C351.794 268.909 349.539 274.015 346.674 277.109C344.037 279.958 339.443 282.695 331.144 282.695V303.619V324.542C349.772 324.542 365.965 317.872 377.383 305.539C388.573 293.451 393.642 277.601 393.642 261.707H372.718ZM310.638 261.707H289.715C289.715 270.839 291.677 281.855 298.611 291.11C306.241 301.295 317.868 306.628 331.144 306.628V285.705V264.781C330.09 264.781 330.094 264.594 330.666 264.865C330.931 264.991 331.225 265.172 331.507 265.406C331.785 265.636 331.981 265.858 332.102 266.019C332.332 266.326 332.181 266.261 331.971 265.482C331.76 264.698 331.562 263.446 331.562 261.707H310.638ZM331.144 285.705V306.628C344.421 306.628 356.014 301.25 363.604 291.076C370.497 281.835 372.46 270.84 372.46 261.707H351.536H330.613C330.613 263.446 330.415 264.702 330.202 265.494C329.991 266.281 329.836 266.355 330.061 266.053C330.348 265.669 330.872 265.191 331.512 264.886C332.107 264.603 332.146 264.781 331.144 264.781V285.705ZM351.536 261.707H372.46C372.46 252.573 370.497 241.579 363.604 232.338C356.014 222.163 344.421 216.785 331.144 216.785V237.709V258.632C332.146 258.632 332.107 258.81 331.512 258.527C330.872 258.222 330.348 257.745 330.061 257.36C329.836 257.058 329.991 257.133 330.202 257.919C330.415 258.711 330.613 259.968 330.613 261.707H351.536ZM331.144 237.709V216.785C317.868 216.785 306.241 222.118 298.611 232.303C291.677 241.558 289.715 252.574 289.715 261.707H310.638H331.562C331.562 259.967 331.76 258.715 331.971 257.931C332.181 257.153 332.332 257.087 332.102 257.395C331.981 257.556 331.785 257.777 331.507 258.008C331.225 258.241 330.931 258.423 330.666 258.548C330.094 258.819 330.09 258.632 331.144 258.632V237.709ZM429.509 302.267L411.421 312.785C415.167 319.227 422.057 323.19 429.509 323.19V302.267ZM398.976 249.764L417.064 239.245C412.309 231.069 402.661 227.099 393.529 229.562C384.397 232.024 378.052 240.306 378.052 249.764H398.976ZM398.976 302.267V323.19C410.532 323.19 419.9 313.823 419.9 302.267H398.976ZM379.485 302.267H358.561C358.561 313.823 367.929 323.19 379.485 323.19V302.267ZM379.485 221.147V200.223C367.929 200.223 358.561 209.591 358.561 221.147H379.485ZM401.342 221.147L419.42 210.611C415.671 204.179 408.787 200.223 401.342 200.223V221.147ZM431.875 273.537L413.797 284.072C418.557 292.241 428.204 296.202 437.331 293.736C446.459 291.271 452.799 282.991 452.799 273.537H431.875ZM431.875 221.147V200.223C420.319 200.223 410.951 209.591 410.951 221.147H431.875ZM451.366 221.147H472.29C472.29 209.591 462.922 200.223 451.366 200.223V221.147ZM451.366 302.267V323.19C462.922 323.19 472.29 313.823 472.29 302.267H451.366ZM429.509 302.267L447.596 291.748L417.064 239.245L398.976 249.764L380.888 260.283L411.421 312.785L429.509 302.267ZM398.976 249.764H378.052V302.267H398.976H419.9V249.764H398.976ZM398.976 302.267V281.343H379.485V302.267V323.19H398.976V302.267ZM379.485 302.267H400.409V221.147H379.485H358.561V302.267H379.485ZM379.485 221.147V242.07H401.342V221.147V200.223H379.485V221.147ZM401.342 221.147L383.264 231.682L413.797 284.072L431.875 273.537L449.952 263.001L419.42 210.611L401.342 221.147ZM431.875 273.537H452.799V221.147H431.875H410.951V273.537H431.875ZM431.875 221.147V242.07H451.366V221.147V200.223H431.875V221.147ZM451.366 221.147H430.442V302.267H451.366H472.29V221.147H451.366ZM451.366 302.267V281.343H429.509V302.267V323.19H451.366V302.267Z" fill="#291F5B" mask="url(#path-1-outside-1_214_3364)"/>
<mask id="path-3-outside-2_214_3364" maskUnits="userSpaceOnUse" x="75.6714" y="18" width="326" height="127" fill="black">
<rect fill="white" x="75.6714" y="18" width="326" height="127"/>
<path d="M132.807 123.352C110.274 123.352 97.3175 112.198 97.3175 94.8473H117.034C117.259 105.325 124.921 107.466 133.709 107.466C141.595 107.466 146.891 104.311 146.891 99.016C146.891 94.96 144.525 92.1433 128.977 89.6647C107.683 86.2847 98.7821 78.2853 98.7821 63.6387C98.7821 49.8933 110.725 39.528 131.343 39.528C152.299 39.528 164.579 49.2173 165.368 67.244H145.989C145.651 58.9067 140.694 55.414 131.343 55.414C124.132 55.414 119.513 58.3433 119.513 62.85C119.513 67.1313 122.329 70.1733 136.075 72.4267C160.298 76.1447 167.847 83.9187 167.847 97.664C167.847 115.015 152.749 123.352 132.807 123.352ZM193.647 122V59.132H169.198V40.88H238.601V59.132H214.152V122H193.647ZM243.856 122V40.88H306.386V59.132H264.249V72.4267H303.232V89.552H264.249V103.748H306.274V122H243.856ZM313.45 122V40.88H349.391C369.783 40.88 380.599 52.372 380.599 68.3707C380.599 84.482 369.783 95.8613 349.391 95.8613H333.843V122H313.45ZM333.843 78.6233H347.926C355.925 78.6233 360.319 75.5813 360.319 68.3707C360.319 61.16 355.925 58.2307 347.926 58.2307H333.843V78.6233Z"/>
</mask>
<path d="M132.807 123.352C110.274 123.352 97.3175 112.198 97.3175 94.8473H117.034C117.259 105.325 124.921 107.466 133.709 107.466C141.595 107.466 146.891 104.311 146.891 99.016C146.891 94.96 144.525 92.1433 128.977 89.6647C107.683 86.2847 98.7821 78.2853 98.7821 63.6387C98.7821 49.8933 110.725 39.528 131.343 39.528C152.299 39.528 164.579 49.2173 165.368 67.244H145.989C145.651 58.9067 140.694 55.414 131.343 55.414C124.132 55.414 119.513 58.3433 119.513 62.85C119.513 67.1313 122.329 70.1733 136.075 72.4267C160.298 76.1447 167.847 83.9187 167.847 97.664C167.847 115.015 152.749 123.352 132.807 123.352ZM193.647 122V59.132H169.198V40.88H238.601V59.132H214.152V122H193.647ZM243.856 122V40.88H306.386V59.132H264.249V72.4267H303.232V89.552H264.249V103.748H306.274V122H243.856ZM313.45 122V40.88H349.391C369.783 40.88 380.599 52.372 380.599 68.3707C380.599 84.482 369.783 95.8613 349.391 95.8613H333.843V122H313.45ZM333.843 78.6233H347.926C355.925 78.6233 360.319 75.5813 360.319 68.3707C360.319 61.16 355.925 58.2307 347.926 58.2307H333.843V78.6233Z" fill="#EDEDF7"/>
<path d="M97.3175 94.8473V73.9235C85.7616 73.9235 76.3937 83.2914 76.3937 94.8473H97.3175ZM117.034 94.8473L137.953 94.3975C137.708 83.0195 128.415 73.9235 117.034 73.9235V94.8473ZM128.977 89.6647L132.271 69.0018L132.257 68.9996L128.977 89.6647ZM165.368 67.244V88.1678C171.076 88.1678 176.536 85.8359 180.483 81.7124C184.43 77.589 186.521 72.032 186.272 66.3295L165.368 67.244ZM145.989 67.244L125.083 68.0916C125.538 79.3085 134.763 88.1678 145.989 88.1678V67.244ZM136.075 72.4267L132.69 93.0749C132.76 93.0864 132.83 93.0975 132.9 93.1083L136.075 72.4267ZM132.807 123.352V102.428C124.749 102.428 121.095 100.421 119.866 99.4154C119.132 98.8144 118.241 97.8783 118.241 94.8473H97.3175H76.3937C76.3937 109.167 81.9811 122.483 93.3586 131.797C104.242 140.706 118.333 144.276 132.807 144.276V123.352ZM97.3175 94.8473V115.771H117.034V94.8473V73.9235H97.3175V94.8473ZM117.034 94.8473L96.1152 95.2972C96.356 106.498 101.198 116.844 111.31 122.977C119.467 127.923 128.456 128.39 133.709 128.39V107.466V86.5422C132.276 86.5422 131.527 86.4476 131.257 86.3974C130.974 86.3447 131.766 86.4404 133.011 87.1953C134.447 88.0661 135.962 89.5071 136.987 91.4414C137.942 93.2434 137.955 94.4978 137.953 94.3975L117.034 94.8473ZM133.709 107.466V128.39C140.05 128.39 147.643 127.181 154.386 122.946C161.897 118.228 167.815 109.857 167.815 99.016H146.891H125.967C125.967 96.7094 126.584 94.1785 127.963 91.8633C129.293 89.6306 130.931 88.2601 132.129 87.5077C134.253 86.174 135.254 86.5422 133.709 86.5422V107.466ZM146.891 99.016H167.815C167.815 95.9838 167.377 91.2999 164.749 86.3613C162.088 81.3624 158.211 78.0157 154.53 75.8068C148.22 72.0213 140.153 70.2583 132.271 69.0018L128.977 89.6647L125.683 110.328C129.116 110.875 131.323 111.365 132.68 111.746C134.14 112.156 133.939 112.255 132.999 111.691C131.853 111.003 129.539 109.276 127.808 106.023C126.109 102.831 125.967 100.02 125.967 99.016H146.891ZM128.977 89.6647L132.257 68.9996C123.097 67.5456 120.151 65.5465 119.631 65.0933C119.582 65.051 119.774 65.2468 119.881 65.5088C119.942 65.659 119.706 65.1954 119.706 63.6387H98.7821H77.8583C77.8583 75.7306 81.8177 87.6609 92.1577 96.66C101.411 104.713 113.563 108.404 125.697 110.33L128.977 89.6647ZM98.7821 63.6387H119.706C119.706 63.2898 119.767 63.2659 119.712 63.3754C119.662 63.4776 119.699 63.3155 120.145 62.9699C121.112 62.2207 124.343 60.4518 131.343 60.4518V39.528V18.6042C117.725 18.6042 104.675 22.0179 94.5167 29.8878C83.9589 38.0667 77.8583 50.1437 77.8583 63.6387H98.7821ZM131.343 39.528V60.4518C138.889 60.4518 141.928 62.2223 142.77 62.9027C143.088 63.1598 144.284 64.0292 144.464 68.1585L165.368 67.244L186.272 66.3295C185.664 52.4322 180.325 39.4436 169.066 30.3492C158.332 21.6784 144.752 18.6042 131.343 18.6042V39.528ZM165.368 67.244V46.3202H145.989V67.244V88.1678H165.368V67.244ZM145.989 67.244L166.896 66.3964C166.558 58.0622 163.586 48.4814 154.931 41.7169C147.147 35.6324 138.031 34.4902 131.343 34.4902V55.414V76.3378C134.006 76.3378 132.044 76.9419 129.161 74.6881C127.569 73.4438 126.4 71.8514 125.714 70.2885C125.091 68.8681 125.078 67.9659 125.083 68.0916L145.989 67.244ZM131.343 55.414V34.4902C125.267 34.4902 118.027 35.6703 111.569 39.7396C104.455 44.2221 98.589 52.2785 98.589 62.85H119.513H140.437C140.437 65.445 139.731 68.153 138.283 70.5623C136.888 72.8853 135.171 74.3298 133.879 75.1444C131.533 76.6224 130.208 76.3378 131.343 76.3378V55.414ZM119.513 62.85H98.589C98.589 66.2476 99.1592 70.7796 101.597 75.4755C104.054 80.2102 107.616 83.5848 111.222 85.9329C117.536 90.0448 125.409 91.8813 132.69 93.0749L136.075 72.4267L139.46 51.7785C136.582 51.3067 134.802 50.8755 133.783 50.5653C132.694 50.2336 133.056 50.2131 134.057 50.8647C135.241 51.6355 137.239 53.3061 138.739 56.1958C140.218 59.0468 140.437 61.593 140.437 62.85H119.513ZM136.075 72.4267L132.9 93.1083C138.119 93.9093 141.752 94.8303 144.233 95.7148C146.708 96.5969 147.54 97.2673 147.591 97.3102C147.595 97.3139 147.454 97.1929 147.267 96.9364C147.078 96.6764 146.94 96.4122 146.857 96.2048C146.7 95.8122 146.923 96.0908 146.923 97.664H167.847H188.771C188.771 86.4434 185.394 74.4076 174.498 65.26C165.082 57.3546 152.425 53.7674 139.249 51.7451L136.075 72.4267ZM167.847 97.664H146.923C146.923 98.3093 146.854 98.6964 146.81 98.8812C146.787 98.9768 146.766 99.0357 146.755 99.0656C146.744 99.0953 146.737 99.1087 146.735 99.1119C146.733 99.1151 146.73 99.1205 146.722 99.1314C146.714 99.1426 146.695 99.1691 146.656 99.2109C146.581 99.2918 146.403 99.4655 146.056 99.7012C144.437 100.8 140.29 102.428 132.807 102.428V123.352V144.276C145.267 144.276 158.64 141.736 169.555 134.328C181.434 126.266 188.771 113.425 188.771 97.664H167.847ZM193.647 122H172.723C172.723 133.556 182.091 142.924 193.647 142.924V122ZM193.647 59.132H214.57C214.57 47.5761 205.202 38.2082 193.647 38.2082V59.132ZM169.198 59.132H148.274C148.274 70.6879 157.642 80.0558 169.198 80.0558V59.132ZM169.198 40.88V19.9562C157.642 19.9562 148.274 29.3241 148.274 40.88H169.198ZM238.601 40.88H259.524C259.524 29.3241 250.156 19.9562 238.601 19.9562V40.88ZM238.601 59.132V80.0558C250.156 80.0558 259.524 70.6879 259.524 59.132H238.601ZM214.152 59.132V38.2082C202.596 38.2082 193.228 47.5761 193.228 59.132H214.152ZM214.152 122V142.924C225.708 142.924 235.076 133.556 235.076 122H214.152ZM193.647 122H214.57V59.132H193.647H172.723V122H193.647ZM193.647 59.132V38.2082H169.198V59.132V80.0558H193.647V59.132ZM169.198 59.132H190.122V40.88H169.198H148.274V59.132H169.198ZM169.198 40.88V61.8038H238.601V40.88V19.9562H169.198V40.88ZM238.601 40.88H217.677V59.132H238.601H259.524V40.88H238.601ZM238.601 59.132V38.2082H214.152V59.132V80.0558H238.601V59.132ZM214.152 59.132H193.228V122H214.152H235.076V59.132H214.152ZM214.152 122V101.076H193.647V122V142.924H214.152V122ZM243.856 122H222.933C222.933 133.556 232.3 142.924 243.856 142.924V122ZM243.856 40.88V19.9562C232.3 19.9562 222.933 29.3241 222.933 40.88H243.856ZM306.386 40.88H327.31C327.31 29.3241 317.942 19.9562 306.386 19.9562V40.88ZM306.386 59.132V80.0558C317.942 80.0558 327.31 70.6879 327.31 59.132H306.386ZM264.249 59.132V38.2082C252.693 38.2082 243.325 47.5761 243.325 59.132H264.249ZM264.249 72.4267H243.325C243.325 83.9826 252.693 93.3505 264.249 93.3505V72.4267ZM303.232 72.4267H324.155C324.155 60.8708 314.788 51.5029 303.232 51.5029V72.4267ZM303.232 89.552V110.476C314.788 110.476 324.155 101.108 324.155 89.552H303.232ZM264.249 89.552V68.6282C252.693 68.6282 243.325 77.9961 243.325 89.552H264.249ZM264.249 103.748H243.325C243.325 115.304 252.693 124.672 264.249 124.672V103.748ZM306.274 103.748H327.197C327.197 92.1921 317.83 82.8242 306.274 82.8242V103.748ZM306.274 122V142.924C317.83 142.924 327.197 133.556 327.197 122H306.274ZM243.856 122H264.78V40.88H243.856H222.933V122H243.856ZM243.856 40.88V61.8038H306.386V40.88V19.9562H243.856V40.88ZM306.386 40.88H285.463V59.132H306.386H327.31V40.88H306.386ZM306.386 59.132V38.2082H264.249V59.132V80.0558H306.386V59.132ZM264.249 59.132H243.325V72.4267H264.249H285.173V59.132H264.249ZM264.249 72.4267V93.3505H303.232V72.4267V51.5029H264.249V72.4267ZM303.232 72.4267H282.308V89.552H303.232H324.155V72.4267H303.232ZM303.232 89.552V68.6282H264.249V89.552V110.476H303.232V89.552ZM264.249 89.552H243.325V103.748H264.249H285.173V89.552H264.249ZM264.249 103.748V124.672H306.274V103.748V82.8242H264.249V103.748ZM306.274 103.748H285.35V122H306.274H327.197V103.748H306.274ZM306.274 122V101.076H243.856V122V142.924H306.274V122ZM313.45 122H292.526C292.526 133.556 301.894 142.924 313.45 142.924V122ZM313.45 40.88V19.9562C301.894 19.9562 292.526 29.3241 292.526 40.88H313.45ZM333.843 95.8613V74.9375C322.287 74.9375 312.919 84.3054 312.919 95.8613H333.843ZM333.843 122V142.924C345.399 142.924 354.766 133.556 354.766 122H333.843ZM333.843 78.6233H312.919C312.919 90.1792 322.287 99.5471 333.843 99.5471V78.6233ZM333.843 58.2307V37.3069C322.287 37.3069 312.919 46.6748 312.919 58.2307H333.843ZM313.45 122H334.374V40.88H313.45H292.526V122H313.45ZM313.45 40.88V61.8038H349.391V40.88V19.9562H313.45V40.88ZM349.391 40.88V61.8038C355.716 61.8038 357.95 63.5367 358.412 63.966C358.74 64.2701 359.675 65.2325 359.675 68.3707H380.599H401.523C401.523 55.5101 397.05 42.7272 386.872 33.2857C376.829 23.9693 363.458 19.9562 349.391 19.9562V40.88ZM380.599 68.3707H359.675C359.675 71.5962 358.722 72.5316 358.435 72.7971C357.996 73.2031 355.77 74.9375 349.391 74.9375V95.8613V116.785C363.404 116.785 376.783 112.83 386.85 103.518C397.069 94.0664 401.523 81.2564 401.523 68.3707H380.599ZM349.391 95.8613V74.9375H333.843V95.8613V116.785H349.391V95.8613ZM333.843 95.8613H312.919V122H333.843H354.766V95.8613H333.843ZM333.843 122V101.076H313.45V122V142.924H333.843V122ZM333.843 78.6233V99.5471H347.926V78.6233V57.6995H333.843V78.6233ZM347.926 78.6233V99.5471C353.952 99.5471 362.651 98.5129 370.113 92.604C378.559 85.9151 381.243 76.4438 381.243 68.3707H360.319H339.396C339.396 68.096 339.433 66.8074 340.17 65.0229C340.969 63.0909 342.325 61.2288 344.132 59.798C347.397 57.2127 349.9 57.6995 347.926 57.6995V78.6233ZM360.319 68.3707H381.243C381.243 60.2831 378.543 50.7557 369.976 44.0864C362.492 38.2596 353.808 37.3069 347.926 37.3069V58.2307V79.1545C350.043 79.1545 347.556 79.6664 344.269 77.1069C342.423 75.6698 341.021 73.7775 340.193 71.7919C339.432 69.9636 339.396 68.6416 339.396 68.3707H360.319ZM347.926 58.2307V37.3069H333.843V58.2307V79.1545H347.926V58.2307ZM333.843 58.2307H312.919V78.6233H333.843H354.766V58.2307H333.843Z" fill="#291F5B" mask="url(#path-3-outside-2_214_3364)"/>
<mask id="path-5-outside-3_214_3364" maskUnits="userSpaceOnUse" x="33.9601" y="100.018" width="414.966" height="147.511" fill="black">
<rect fill="white" x="33.9601" y="100.018" width="414.966" height="147.511"/>
<path d="M64.5146 223.215L57.925 165.648L72.3967 163.992L78.9863 221.559L64.5146 223.215ZM121.683 216.671L95.7506 181.893L100.015 219.151L86.1834 220.735L79.5938 163.168L95.1049 161.392L121.028 196.091L116.772 158.912L130.605 157.329L137.194 214.896L121.683 216.671ZM158.306 212.479L153.199 167.865L135.849 169.851L134.366 156.898L183.618 151.26L185.1 164.213L167.75 166.199L172.857 210.813L158.306 212.479ZM221.231 206.248C202.042 208.445 190.12 196.282 188.244 179.892C186.368 163.501 195.233 148.959 214.422 146.762C233.531 144.575 245.454 156.737 247.33 173.128C249.206 189.519 240.34 204.061 221.231 206.248ZM203.275 178.171C204.328 187.366 209.302 194.734 219.776 193.535C230.17 192.346 233.351 184.043 232.298 174.849C231.246 165.654 226.271 158.285 215.877 159.475C205.403 160.674 202.223 168.976 203.275 178.171ZM287.104 197.736L281.997 153.121L264.647 155.107L263.164 142.155L312.416 136.517L313.898 149.47L296.548 151.456L301.655 196.07L287.104 197.736ZM359.114 189.493L356.487 166.546L334.58 169.054L337.207 192.001L322.735 193.657L316.145 136.09L330.617 134.434L333.097 156.101L355.005 153.593L352.525 131.926L366.996 130.269L373.586 187.836L359.114 189.493ZM380.789 187.012L374.2 129.445L418.574 124.365L420.057 137.318L390.154 140.741L391.234 150.175L418.898 147.009L420.289 159.162L392.625 162.328L393.778 172.403L423.601 168.989L425.084 181.941L380.789 187.012Z"/>
</mask>
<path d="M64.5146 223.215L57.925 165.648L72.3967 163.992L78.9863 221.559L64.5146 223.215ZM121.683 216.671L95.7506 181.893L100.015 219.151L86.1834 220.735L79.5938 163.168L95.1049 161.392L121.028 196.091L116.772 158.912L130.605 157.329L137.194 214.896L121.683 216.671ZM158.306 212.479L153.199 167.865L135.849 169.851L134.366 156.898L183.618 151.26L185.1 164.213L167.75 166.199L172.857 210.813L158.306 212.479ZM221.231 206.248C202.042 208.445 190.12 196.282 188.244 179.892C186.368 163.501 195.233 148.959 214.422 146.762C233.531 144.575 245.454 156.737 247.33 173.128C249.206 189.519 240.34 204.061 221.231 206.248ZM203.275 178.171C204.328 187.366 209.302 194.734 219.776 193.535C230.17 192.346 233.351 184.043 232.298 174.849C231.246 165.654 226.271 158.285 215.877 159.475C205.403 160.674 202.223 168.976 203.275 178.171ZM287.104 197.736L281.997 153.121L264.647 155.107L263.164 142.155L312.416 136.517L313.898 149.47L296.548 151.456L301.655 196.07L287.104 197.736ZM359.114 189.493L356.487 166.546L334.58 169.054L337.207 192.001L322.735 193.657L316.145 136.09L330.617 134.434L333.097 156.101L355.005 153.593L352.525 131.926L366.996 130.269L373.586 187.836L359.114 189.493ZM380.789 187.012L374.2 129.445L418.574 124.365L420.057 137.318L390.154 140.741L391.234 150.175L418.898 147.009L420.289 159.162L392.625 162.328L393.778 172.403L423.601 168.989L425.084 181.941L380.789 187.012Z" fill="#C7C2EA"/>
<path d="M64.5146 223.215L43.7266 225.595C45.0408 237.076 55.4133 245.317 66.8942 244.003L64.5146 223.215ZM57.925 165.648L55.5455 144.86C44.0645 146.174 35.8228 156.547 37.137 168.028L57.925 165.648ZM72.3967 163.992L93.1848 161.612C91.8706 150.131 81.4981 141.889 70.0171 143.204L72.3967 163.992ZM78.9863 221.559L81.3659 242.347C92.8468 241.032 101.089 230.66 99.7744 219.179L78.9863 221.559ZM64.5146 223.215L85.3027 220.836L78.7131 163.269L57.925 165.648L37.137 168.028L43.7266 225.595L64.5146 223.215ZM57.925 165.648L60.3046 186.436L74.7763 184.78L72.3967 163.992L70.0171 143.204L55.5455 144.86L57.925 165.648ZM72.3967 163.992L51.6087 166.371L58.1982 223.938L78.9863 221.559L99.7744 219.179L93.1848 161.612L72.3967 163.992ZM78.9863 221.559L76.6067 200.771L62.135 202.427L64.5146 223.215L66.8942 244.003L81.3659 242.347L78.9863 221.559ZM121.683 216.671L104.909 229.179C109.364 235.153 116.659 238.307 124.063 237.459L121.683 216.671ZM95.7506 181.893L112.525 169.385C106.871 161.803 96.8338 158.956 88.0412 162.441C79.2485 165.926 73.8869 174.876 74.9625 184.272L95.7506 181.893ZM100.015 219.151L102.395 239.94C113.876 238.625 122.118 228.253 120.804 216.772L100.015 219.151ZM86.1834 220.735L65.3954 223.114C66.7096 234.595 77.0821 242.837 88.563 241.523L86.1834 220.735ZM79.5938 163.168L77.2143 142.38C65.7333 143.694 57.4916 154.066 58.8058 165.547L79.5938 163.168ZM95.1049 161.392L111.867 148.869C107.411 142.905 100.122 139.758 92.7254 140.604L95.1049 161.392ZM121.028 196.091L104.266 208.614C109.925 216.188 119.959 219.026 128.747 215.539C137.534 212.051 142.892 203.104 141.816 193.711L121.028 196.091ZM116.772 158.912L114.393 138.124C102.912 139.438 94.6702 149.811 95.9844 161.292L116.772 158.912ZM130.605 157.329L151.393 154.949C150.078 143.468 139.706 135.226 128.225 136.541L130.605 157.329ZM137.194 214.896L139.574 235.684C151.055 234.37 159.296 223.997 157.982 212.516L137.194 214.896ZM121.683 216.671L138.457 204.164L112.525 169.385L95.7506 181.893L78.9765 194.4L104.909 229.179L121.683 216.671ZM95.7506 181.893L74.9625 184.272L79.2274 221.531L100.015 219.151L120.804 216.772L116.539 179.513L95.7506 181.893ZM100.015 219.151L97.6359 198.363L83.8039 199.947L86.1834 220.735L88.563 241.523L102.395 239.94L100.015 219.151ZM86.1834 220.735L106.971 218.355L100.382 160.788L79.5938 163.168L58.8058 165.547L65.3954 223.114L86.1834 220.735ZM79.5938 163.168L81.9734 183.956L97.4845 182.18L95.1049 161.392L92.7254 140.604L77.2143 142.38L79.5938 163.168ZM95.1049 161.392L78.3426 173.916L104.266 208.614L121.028 196.091L137.791 183.568L111.867 148.869L95.1049 161.392ZM121.028 196.091L141.816 193.711L137.561 156.533L116.772 158.912L95.9844 161.292L100.24 198.47L121.028 196.091ZM116.772 158.912L119.152 179.7L132.984 178.117L130.605 157.329L128.225 136.541L114.393 138.124L116.772 158.912ZM130.605 157.329L109.816 159.708L116.406 217.275L137.194 214.896L157.982 212.516L151.393 154.949L130.605 157.329ZM137.194 214.896L134.815 194.108L119.303 195.883L121.683 216.671L124.063 237.459L139.574 235.684L137.194 214.896ZM158.306 212.479L137.518 214.859C138.832 226.34 149.204 234.581 160.685 233.267L158.306 212.479ZM153.199 167.865L173.987 165.485C172.673 154.004 162.3 145.762 150.819 147.077L153.199 167.865ZM135.849 169.851L115.061 172.23C116.375 183.711 126.747 191.953 138.228 190.639L135.849 169.851ZM134.366 156.898L131.987 136.11C120.506 137.424 112.264 147.797 113.578 159.278L134.366 156.898ZM183.618 151.26L204.406 148.881C203.092 137.4 192.719 129.158 181.238 130.472L183.618 151.26ZM185.1 164.213L187.48 185.001C198.961 183.687 207.203 173.314 205.889 161.833L185.1 164.213ZM167.75 166.199L165.371 145.411C153.89 146.725 145.648 157.098 146.962 168.579L167.75 166.199ZM172.857 210.813L175.237 231.601C186.718 230.287 194.96 219.915 193.645 208.434L172.857 210.813ZM158.306 212.479L179.094 210.099L173.987 165.485L153.199 167.865L132.411 170.244L137.518 214.859L158.306 212.479ZM153.199 167.865L150.819 147.077L133.469 149.063L135.849 169.851L138.228 190.639L155.578 188.653L153.199 167.865ZM135.849 169.851L156.637 167.471L155.154 154.519L134.366 156.898L113.578 159.278L115.061 172.23L135.849 169.851ZM134.366 156.898L136.746 177.686L185.997 172.048L183.618 151.26L181.238 130.472L131.987 136.11L134.366 156.898ZM183.618 151.26L162.83 153.64L164.312 166.593L185.1 164.213L205.889 161.833L204.406 148.881L183.618 151.26ZM185.1 164.213L182.721 143.425L165.371 145.411L167.75 166.199L170.13 186.987L187.48 185.001L185.1 164.213ZM167.75 166.199L146.962 168.579L152.069 213.193L172.857 210.813L193.645 208.434L188.539 163.819L167.75 166.199ZM172.857 210.813L170.478 190.025L155.926 191.691L158.306 212.479L160.685 233.267L175.237 231.601L172.857 210.813ZM221.231 206.248L218.852 185.46C214.363 185.974 212.569 184.759 211.867 184.158C210.914 183.34 209.476 181.388 209.032 177.512L188.244 179.892L167.456 182.271C168.888 194.785 174.349 207.11 184.623 215.922C195.149 224.95 208.911 228.719 223.611 227.036L221.231 206.248ZM188.244 179.892L209.032 177.512C208.588 173.636 209.548 171.409 210.292 170.397C210.84 169.653 212.313 168.064 216.802 167.55L214.422 146.762L212.043 125.974C197.343 127.657 184.788 134.438 176.575 145.611C168.558 156.517 166.023 169.757 167.456 182.271L188.244 179.892ZM214.422 146.762L216.802 167.55C221.225 167.044 222.998 168.243 223.7 168.847C224.657 169.669 226.098 171.63 226.542 175.508L247.33 173.128L268.118 170.748C266.685 158.235 261.227 145.92 250.976 137.11C240.471 128.082 226.728 124.293 212.043 125.974L214.422 146.762ZM247.33 173.128L226.542 175.508C226.986 179.385 226.025 181.621 225.279 182.638C224.731 183.385 223.275 184.954 218.852 185.46L221.231 206.248L223.611 227.036C238.296 225.355 250.828 218.559 259.021 207.391C267.016 196.492 269.55 183.262 268.118 170.748L247.33 173.128ZM203.275 178.171L182.487 180.55C183.315 187.785 185.915 196.85 192.782 204.119C200.448 212.234 211.061 215.593 222.156 214.323L219.776 193.535L217.397 172.747C217.383 172.749 217.604 172.723 218.016 172.76C218.436 172.799 219.006 172.9 219.671 173.126C221.104 173.614 222.331 174.459 223.203 175.382C224.003 176.23 224.265 176.88 224.279 176.917C224.291 176.947 224.156 176.6 224.063 175.791L203.275 178.171ZM219.776 193.535L222.156 214.323C233.268 213.051 242.816 207.339 248.415 197.716C253.428 189.101 253.915 179.704 253.086 172.469L232.298 174.849L211.51 177.228C211.603 178.037 211.55 178.41 211.554 178.385C211.558 178.355 211.662 177.672 212.244 176.671C212.878 175.582 213.88 174.473 215.178 173.662C216.435 172.877 217.353 172.752 217.397 172.747L219.776 193.535ZM232.298 174.849L253.086 172.469C252.258 165.234 249.66 156.19 242.831 148.93C235.202 140.822 224.61 137.415 213.498 138.687L215.877 159.475L218.257 180.263C218.213 180.268 217.291 180.354 215.889 179.873C214.441 179.376 213.215 178.523 212.351 177.605C211.558 176.762 211.303 176.12 211.291 176.092C211.282 176.068 211.418 176.42 211.51 177.228L232.298 174.849ZM215.877 159.475L213.498 138.687C202.403 139.957 192.824 145.628 187.19 155.265C182.143 163.898 181.659 173.316 182.487 180.55L203.275 178.171L224.063 175.791C223.971 174.982 224.024 174.614 224.019 174.646C224.013 174.685 223.906 175.378 223.317 176.384C222.676 177.481 221.672 178.581 220.387 179.38C219.79 179.751 219.258 179.978 218.857 180.11C218.464 180.24 218.244 180.265 218.257 180.263L215.877 159.475ZM287.104 197.736L266.316 200.115C267.63 211.596 278.002 219.838 289.483 218.524L287.104 197.736ZM281.997 153.121L302.785 150.742C301.471 139.261 291.098 131.019 279.617 132.333L281.997 153.121ZM264.647 155.107L243.859 157.487C245.173 168.968 255.545 177.21 267.026 175.896L264.647 155.107ZM263.164 142.155L260.784 121.367C249.304 122.681 241.062 133.054 242.376 144.534L263.164 142.155ZM312.416 136.517L333.204 134.138C331.89 122.657 321.517 114.415 310.036 115.729L312.416 136.517ZM313.898 149.47L316.278 170.258C327.759 168.944 336.001 158.571 334.686 147.09L313.898 149.47ZM296.548 151.456L294.169 130.668C282.688 131.982 274.446 142.354 275.76 153.835L296.548 151.456ZM301.655 196.07L304.035 216.858C315.516 215.544 323.758 205.171 322.443 193.691L301.655 196.07ZM287.104 197.736L307.892 195.356L302.785 150.742L281.997 153.121L261.209 155.501L266.316 200.115L287.104 197.736ZM281.997 153.121L279.617 132.333L262.267 134.319L264.647 155.107L267.026 175.896L284.376 173.909L281.997 153.121ZM264.647 155.107L285.435 152.728L283.952 139.775L263.164 142.155L242.376 144.534L243.859 157.487L264.647 155.107ZM263.164 142.155L265.544 162.943L314.795 157.305L312.416 136.517L310.036 115.729L260.784 121.367L263.164 142.155ZM312.416 136.517L291.628 138.897L293.11 151.849L313.898 149.47L334.686 147.09L333.204 134.138L312.416 136.517ZM313.898 149.47L311.519 128.682L294.169 130.668L296.548 151.456L298.928 172.244L316.278 170.258L313.898 149.47ZM296.548 151.456L275.76 153.835L280.867 198.45L301.655 196.07L322.443 193.691L317.336 149.076L296.548 151.456ZM301.655 196.07L299.276 175.282L284.724 176.948L287.104 197.736L289.483 218.524L304.035 216.858L301.655 196.07ZM359.114 189.493L338.326 191.872C339.64 203.353 350.013 211.595 361.494 210.281L359.114 189.493ZM356.487 166.546L377.276 164.166C375.961 152.686 365.589 144.444 354.108 145.758L356.487 166.546ZM334.58 169.054L332.2 148.266C320.72 149.58 312.478 159.952 313.792 171.433L334.58 169.054ZM337.207 192.001L339.586 212.789C351.067 211.474 359.309 201.102 357.995 189.621L337.207 192.001ZM322.735 193.657L301.947 196.037C303.261 207.518 313.634 215.759 325.115 214.445L322.735 193.657ZM316.145 136.09L313.766 115.302C302.285 116.616 294.043 126.989 295.357 138.47L316.145 136.09ZM330.617 134.434L351.405 132.054C350.091 120.573 339.718 112.331 328.238 113.646L330.617 134.434ZM333.097 156.101L312.309 158.481C313.624 169.962 323.996 178.203 335.477 176.889L333.097 156.101ZM355.005 153.593L357.384 174.382C368.865 173.067 377.107 162.695 375.793 151.214L355.005 153.593ZM352.525 131.926L350.145 111.138C338.664 112.452 330.422 122.825 331.736 134.306L352.525 131.926ZM366.996 130.269L387.784 127.89C386.47 116.409 376.098 108.167 364.617 109.481L366.996 130.269ZM373.586 187.836L375.965 208.624C387.446 207.31 395.688 196.938 394.374 185.457L373.586 187.836ZM359.114 189.493L379.902 187.113L377.276 164.166L356.487 166.546L335.699 168.926L338.326 191.872L359.114 189.493ZM356.487 166.546L354.108 145.758L332.2 148.266L334.58 169.054L336.96 189.842L358.867 187.334L356.487 166.546ZM334.58 169.054L313.792 171.433L316.419 194.38L337.207 192.001L357.995 189.621L355.368 166.674L334.58 169.054ZM337.207 192.001L334.827 171.213L320.355 172.869L322.735 193.657L325.115 214.445L339.586 212.789L337.207 192.001ZM322.735 193.657L343.523 191.278L336.934 133.711L316.145 136.09L295.357 138.47L301.947 196.037L322.735 193.657ZM316.145 136.09L318.525 156.878L332.997 155.222L330.617 134.434L328.238 113.646L313.766 115.302L316.145 136.09ZM330.617 134.434L309.829 136.813L312.309 158.481L333.097 156.101L353.885 153.722L351.405 132.054L330.617 134.434ZM333.097 156.101L335.477 176.889L357.384 174.382L355.005 153.593L352.625 132.805L330.718 135.313L333.097 156.101ZM355.005 153.593L375.793 151.214L373.313 129.546L352.525 131.926L331.736 134.306L334.217 155.973L355.005 153.593ZM352.525 131.926L354.904 152.714L369.376 151.057L366.996 130.269L364.617 109.481L350.145 111.138L352.525 131.926ZM366.996 130.269L346.208 132.649L352.798 190.216L373.586 187.836L394.374 185.457L387.784 127.89L366.996 130.269ZM373.586 187.836L371.206 167.048L356.735 168.705L359.114 189.493L361.494 210.281L375.965 208.624L373.586 187.836ZM380.789 187.012L360.001 189.391C361.315 200.872 371.688 209.114 383.169 207.8L380.789 187.012ZM374.2 129.445L371.82 108.657C360.339 109.971 352.097 120.343 353.412 131.824L374.2 129.445ZM418.574 124.365L439.362 121.986C438.048 110.505 427.675 102.263 416.195 103.577L418.574 124.365ZM420.057 137.318L422.436 158.106C433.917 156.792 442.159 146.419 440.845 134.938L420.057 137.318ZM390.154 140.741L387.774 119.953C376.293 121.267 368.052 131.639 369.366 143.12L390.154 140.741ZM391.234 150.175L370.446 152.555C371.76 164.036 382.133 172.278 393.613 170.963L391.234 150.175ZM418.898 147.009L439.686 144.629C438.372 133.148 427.999 124.907 416.518 126.221L418.898 147.009ZM420.289 159.162L422.669 179.95C434.15 178.636 442.391 168.263 441.077 156.782L420.289 159.162ZM392.625 162.328L390.245 141.54C378.765 142.855 370.523 153.227 371.837 164.708L392.625 162.328ZM393.778 172.403L372.99 174.782C374.304 186.263 384.677 194.505 396.158 193.191L393.778 172.403ZM423.601 168.989L444.389 166.609C443.075 155.128 432.702 146.887 421.222 148.201L423.601 168.989ZM425.084 181.941L427.463 202.73C438.944 201.415 447.186 191.043 445.872 179.562L425.084 181.941ZM380.789 187.012L401.577 184.632L394.988 127.065L374.2 129.445L353.412 131.824L360.001 189.391L380.789 187.012ZM374.2 129.445L376.579 150.233L420.954 145.153L418.574 124.365L416.195 103.577L371.82 108.657L374.2 129.445ZM418.574 124.365L397.786 126.745L399.269 139.697L420.057 137.318L440.845 134.938L439.362 121.986L418.574 124.365ZM420.057 137.318L417.677 116.53L387.774 119.953L390.154 140.741L392.534 161.529L422.436 158.106L420.057 137.318ZM390.154 140.741L369.366 143.12L370.446 152.555L391.234 150.175L412.022 147.796L410.942 138.361L390.154 140.741ZM391.234 150.175L393.613 170.963L421.278 167.797L418.898 147.009L416.518 126.221L388.854 129.387L391.234 150.175ZM418.898 147.009L398.11 149.388L399.501 161.541L420.289 159.162L441.077 156.782L439.686 144.629L418.898 147.009ZM420.289 159.162L417.91 138.374L390.245 141.54L392.625 162.328L395.005 183.117L422.669 179.95L420.289 159.162ZM392.625 162.328L371.837 164.708L372.99 174.782L393.778 172.403L414.566 170.023L413.413 159.949L392.625 162.328ZM393.778 172.403L396.158 193.191L425.981 189.777L423.601 168.989L421.222 148.201L391.399 151.615L393.778 172.403ZM423.601 168.989L402.813 171.368L404.296 184.321L425.084 181.941L445.872 179.562L444.389 166.609L423.601 168.989ZM425.084 181.941L422.704 161.153L378.41 166.224L380.789 187.012L383.169 207.8L427.463 202.73L425.084 181.941Z" fill="#291F5B" mask="url(#path-5-outside-3_214_3364)"/>
</svg>
